<svg id="Group_220360" data-name="Group 220360" xmlns="http://www.w3.org/2000/svg" width="24" height="24" viewBox="0 0 24 24">
  <path id="Path_297780" data-name="Path 297780" d="M0,0H24V24H0Z" fill="none"/>
  <path id="Path_297781" data-name="Path 297781" d="M4,10.4V4A1,1,0,0,1,5,3h5V1h4V3h5a1,1,0,0,1,1,1v6.4l1.086.326a1,1,0,0,1,.683,1.2l-1.517,6.068Q20.126,18,20,18a4.991,4.991,0,0,1-1.65-.279L19.6,12.37,12,10,4.4,12.37l1.25,5.351A4.991,4.991,0,0,1,4,18q-.127,0-.252-.006L2.232,11.926a1,1,0,0,1,.683-1.2Zm2-.6L12,8l6,1.8V5H6ZM4,20a5.978,5.978,0,0,0,4-1.528,6,6,0,0,0,8,0A5.978,5.978,0,0,0,20,20h2v2H20a7.963,7.963,0,0,1-4-1.07,8.01,8.01,0,0,1-8,0A7.963,7.963,0,0,1,4,22H2V20Z" fill="#48217A"/>
</svg>
