<svg id="Group_121621" data-name="Group 121621" xmlns="http://www.w3.org/2000/svg" xmlns:xlink="http://www.w3.org/1999/xlink" width="32" height="30.074" viewBox="0 0 32 30.074">
  <defs>
    <clipPath id="clip-path">
      <rect id="Rectangle_56819" data-name="Rectangle 56819" width="32" height="30.074" fill="#4bb90f"/>
    </clipPath>
  </defs>
  <g id="Group_121620" data-name="Group 121620" clip-path="url(#clip-path)">
    <path id="Path_267155" data-name="Path 267155" d="M0,5.913c.056-.262.107-.525.168-.785A6.523,6.523,0,0,1,6.522.018Q16-.014,25.488.02a6.57,6.57,0,0,1,.05,13.139c-2.708.02-5.416.005-8.124.006h-.394v2.01l1.368.175c1.259.161,2.523.29,3.776.491A2.755,2.755,0,0,1,24.5,18.633c.007,2.468,0,4.937,0,7.405,0,.989,0,1.979,0,2.968a.949.949,0,0,1-1.033,1.063q-5.53.01-11.061,0a.945.945,0,0,1-1.03-1.063c0-.979,0-1.958,0-2.937a.485.485,0,0,0-.2-.42q-1.91-1.587-3.808-3.19A2.626,2.626,0,0,1,6.537,19.3a2.932,2.932,0,0,1,3.013-1.671,3.248,3.248,0,0,1,1.794.814V13.165h-.322c-1.458,0-2.916,0-4.374,0A6.567,6.567,0,0,1,.054,7.4,1.15,1.15,0,0,0,0,7.226V5.913m11.376,5.377c0-1-.016-1.944,0-2.891a2.79,2.79,0,0,1,2.588-2.689A2.727,2.727,0,0,1,16.926,8,28.073,28.073,0,0,1,17,10.871c0,.132,0,.263,0,.42h.28c2.718,0,5.436.008,8.154,0a4.7,4.7,0,0,0,.05-9.395Q16,1.862,6.518,1.893a4.7,4.7,0,0,0,.078,9.4c1.354.006,2.708,0,4.061,0h.718M22.619,24.448c0-2,.008-3.946-.005-5.893a.912.912,0,0,0-.878-.894q-2.8-.35-5.606-.7a.987.987,0,0,1-1.007-1.134q0-2.608,0-5.216c0-.7.009-1.4,0-2.093a.936.936,0,0,0-1.2-.912.958.958,0,0,0-.672,1.007q0,5.841,0,11.682a1,1,0,0,1-.542,1.035.988.988,0,0,1-1.143-.236c-.541-.472-1.09-.936-1.654-1.381a1.117,1.117,0,0,0-1.545.152c-.324.41-.223.795.337,1.265,1.236,1.037,2.469,2.078,3.715,3.1a.946.946,0,0,0,.552.2c3.092.012,6.184.009,9.277.009h.371m-9.361,3.725H22.6V26.349H13.258Z" transform="translate(0 0)" fill="#4bb90f"/>
    <path id="Path_267156" data-name="Path 267156" d="M228.113,48.4c.995-1,1.975-1.989,2.969-2.968a1.371,1.371,0,0,1,.544-.338.889.889,0,0,1,1.017.425.909.909,0,0,1-.138,1.124c-.492.509-1,1-1.5,1.5q-1.082,1.083-2.165,2.164a.952.952,0,0,1-1.5,0q-.853-.848-1.7-1.7a.95.95,0,0,1-.087-1.409.96.96,0,0,1,1.412.086c.355.352.708.706,1.062,1.058a.527.527,0,0,0,.087.049" transform="translate(-206.468 -41.297)" fill="#4bb90f"/>
  </g>
</svg>
