<svg id="Group_122591" data-name="Group 122591" xmlns="http://www.w3.org/2000/svg" width="76" height="76" viewBox="0 0 76 76">
  <path id="Path_267463" data-name="Path 267463" d="M0,0H76V76H0Z" fill="none"/>
  <path id="Path_267464" data-name="Path 267464" d="M22.915,52.667H35.752c.418-3.805,2.36-6.946,5.512-10.378.355-.386,2.632-2.743,2.9-3.08A19,19,0,1,0,14.5,39.2c.27.338,2.553,2.7,2.9,3.082C20.554,45.72,22.5,48.862,22.915,52.667ZM35.667,59H23v3.167H35.667ZM9.554,43.164a25.333,25.333,0,1,1,39.553.007C47.143,45.62,42,49.5,42,54.25v7.917A6.333,6.333,0,0,1,35.667,68.5H23a6.333,6.333,0,0,1-6.333-6.333V54.25C16.667,49.5,11.52,45.616,9.554,43.164ZM32.5,27.349h7.917l-14.25,19V33.682H18.25L32.5,14.667Z" transform="translate(8.667 4.333)"/>
  <path id="Path_267464_-_Outline" data-name="Path 267464 - Outline" d="M35.667,69.5H23a7.342,7.342,0,0,1-7.333-7.333V54.25a8.037,8.037,0,0,0-1.638-4.5,31.014,31.014,0,0,0-3.429-3.97c-.691-.713-1.344-1.386-1.827-1.988a26.347,26.347,0,1,1,41.113.007c-.482.6-1.133,1.272-1.823,1.983a30.97,30.97,0,0,0-3.427,3.968A8.037,8.037,0,0,0,43,54.25v7.917A7.342,7.342,0,0,1,35.667,69.5ZM29.333,3a24.324,24.324,0,0,0-19,39.539c.423.528,1.016,1.139,1.7,1.846,2.376,2.45,5.631,5.8,5.631,9.865v7.917A5.339,5.339,0,0,0,23,67.5H35.667A5.339,5.339,0,0,0,41,62.167V54.25c0-4.062,3.253-7.415,5.629-9.863.684-.705,1.275-1.314,1.7-1.841A24.325,24.325,0,0,0,29.333,3Zm7.333,60.167H22V58H36.667ZM24,61.167H34.667V60H24Zm12.648-7.5H22.019l-.1-.891c-.358-3.256-1.93-6.191-5.257-9.814-.113-.123-.462-.488-.865-.911-1.1-1.152-1.892-1.985-2.083-2.223a20.014,20.014,0,1,1,31.23.006c-.19.237-.98,1.067-2.076,2.214-.405.424-.755.791-.87.916-3.325,3.621-4.9,6.555-5.255,9.811Zm-12.864-2h11.1c.574-3.355,2.3-6.415,5.645-10.055.128-.14.467-.495.9-.944.631-.661,1.806-1.892,1.962-2.085a18.014,18.014,0,1,0-28.11,0c.156.194,1.335,1.429,1.969,2.093.427.448.765.8.891.939C21.481,45.251,23.21,48.312,23.784,51.667Zm1.383-2.318V34.682H16.251L33.5,11.665V26.349h8.917ZM20.249,32.682h6.918V43.349l11.25-15H31.5V17.669Z" transform="translate(8.667 4.333)" fill="#ffe6fb"/>
</svg>
