<svg xmlns="http://www.w3.org/2000/svg" width="75.296" height="76" viewBox="0 0 75.296 76">
  <g id="Group_122589" data-name="Group 122589" transform="translate(-0.123 0.441)">
    <rect id="Rectangle_44283" data-name="Rectangle 44283" width="75.296" height="76" transform="translate(0.123 -0.441)" fill="#fff" opacity="0"/>
    <g id="noun-estimate-7040622" transform="translate(7.932 3.448)">
      <path id="Path_267268" data-name="Path 267268" d="M29.779,45.605a1.073,1.073,0,0,0-1.074-1.074H19.043a1.073,1.073,0,0,0-1.074,1.074v8.589a1.073,1.073,0,0,0,1.074,1.074h9.663a1.073,1.073,0,0,0,1.074-1.074Zm-2.147,7.516H20.116V46.679h7.516Z" transform="translate(-10.453 -13.932)" fill="#363636"/>
      <path id="Path_267269" data-name="Path 267269" d="M23.853,53.235a1.076,1.076,0,0,0,1.439,0l2.378-2.147a1.074,1.074,0,1,0-1.439-1.594l-1.659,1.5-.123-.113a1.074,1.074,0,0,0-1.439,1.594Z" transform="translate(-11.919 -15.396)" fill="#363636"/>
      <path id="Path_267270" data-name="Path 267270" d="M38.281,73.73A1.073,1.073,0,0,0,39.355,74.8h5.368V72.656H39.355A1.073,1.073,0,0,0,38.281,73.73Z" transform="translate(-16.807 -22.731)" fill="#363636"/>
      <path id="Path_267271" data-name="Path 267271" d="M44.723,66.406H39.355a1.074,1.074,0,1,0,0,2.147h5.368Z" transform="translate(-16.807 -20.775)" fill="#363636"/>
      <path id="Path_267272" data-name="Path 267272" d="M44.723,53.906H39.355a1.074,1.074,0,0,0,0,2.147h5.368Z" transform="translate(-16.807 -16.865)" fill="#363636"/>
      <path id="Path_267273" data-name="Path 267273" d="M44.723,47.656H39.355a1.074,1.074,0,0,0,0,2.147h5.368Z" transform="translate(-16.807 -14.909)" fill="#363636"/>
      <path id="Path_267274" data-name="Path 267274" d="M76.549,42.188H54a3.227,3.227,0,0,0-3.221,3.221V72.251A3.227,3.227,0,0,0,54,75.472H76.549a3.227,3.227,0,0,0,3.221-3.221V45.409A3.227,3.227,0,0,0,76.549,42.188Zm-20.4,31.136H54a1.073,1.073,0,0,1-1.074-1.074V70.1h3.221Zm0-5.368H52.928V64.735h3.221Zm0-5.368H52.928V59.367h3.221Zm5.368,10.737H58.3V70.1h3.221Zm0-5.368H58.3V64.735h3.221Zm0-5.368H58.3V59.367h3.221Zm5.368,10.737H63.665V70.1h3.221Zm0-5.368H63.665V64.735h3.221Zm0-5.368H63.665V59.367h3.221Zm5.368,10.737H69.033V70.1h3.221Zm0-5.368H69.033V64.735h3.221Zm0-5.368H69.033V59.367h3.221Zm5.368,9.663a1.073,1.073,0,0,1-1.074,1.074H74.4V64.735h3.221Zm0-9.663H74.4V59.367h3.221Zm0-5.368H52.928V45.408A1.073,1.073,0,0,1,54,44.335H76.548a1.073,1.073,0,0,1,1.074,1.074Z" transform="translate(-20.718 -13.199)" fill="#363636"/>
      <path id="Path_267275" data-name="Path 267275" d="M76.357,48.438H58.105a1.073,1.073,0,0,0-1.074,1.074v6.442a1.073,1.073,0,0,0,1.074,1.074H76.357a1.073,1.073,0,0,0,1.074-1.074V49.512A1.073,1.073,0,0,0,76.357,48.438ZM75.284,54.88H59.178V50.585H75.284Z" transform="translate(-22.673 -15.154)" fill="#363636"/>
      <path id="Path_267276" data-name="Path 267276" d="M21.967,17.969a1.073,1.073,0,0,0-1.074,1.074v.735a4.929,4.929,0,0,0-1.441.325,3.2,3.2,0,0,0-2.1,3.965c.62,1.817,2.37,2.287,3.779,2.665a3.922,3.922,0,0,1,2.295,1.109l0,0a1.169,1.169,0,0,1,.03,1.3,2.786,2.786,0,0,1-2.644.674,2.51,2.51,0,0,1-1.052-.472,1.074,1.074,0,0,0-1.291,1.718,4.712,4.712,0,0,0,1.968.87l.032.005V33a1.074,1.074,0,0,0,2.147,0V31.921a3.939,3.939,0,0,0,2.6-1.557,3.3,3.3,0,0,0,.013-3.683,5.5,5.5,0,0,0-3.546-2.021c-1.272-.341-2.064-.585-2.3-1.28-.217-.65.475-1.125.872-1.283v0a3.275,3.275,0,0,1,2.821.293,1.074,1.074,0,0,0,1.119-1.833,5.518,5.518,0,0,0-1.152-.529v-.982a1.073,1.073,0,0,0-1.074-1.074Z" transform="translate(-10.21 -5.622)" fill="#363636"/>
      <path id="Path_267277" data-name="Path 267277" d="M57.7,21.875H36.23a1.074,1.074,0,0,0,0,2.147H57.7a1.074,1.074,0,0,0,0-2.147Z" transform="translate(-15.83 -6.844)" fill="#363636"/>
      <path id="Path_267278" data-name="Path 267278" d="M57.7,28.125H36.23a1.074,1.074,0,0,0,0,2.147H57.7a1.074,1.074,0,0,0,0-2.147Z" transform="translate(-15.83 -8.799)" fill="#363636"/>
      <path id="Path_267279" data-name="Path 267279" d="M58.777,35.449A1.073,1.073,0,0,0,57.7,34.375H36.23a1.074,1.074,0,0,0,0,2.147H57.7A1.073,1.073,0,0,0,58.777,35.449Z" transform="translate(-15.83 -10.755)" fill="#363636"/>
      <path id="Path_267280" data-name="Path 267280" d="M13.866,7.516A1.073,1.073,0,0,1,14.94,6.443h6.442V7.516A3.227,3.227,0,0,0,24.6,10.737H42.855a3.227,3.227,0,0,0,3.221-3.221V6.443h6.442a1.073,1.073,0,0,1,1.074,1.074V26.842h2.147V7.516A3.227,3.227,0,0,0,52.518,4.3H46.076V3.222A3.227,3.227,0,0,0,42.855,0H24.6a3.227,3.227,0,0,0-3.221,3.221V4.3H14.94a3.227,3.227,0,0,0-3.221,3.221V50.342a18.549,18.549,0,0,1,2.147-.526Zm9.663-4.295A1.073,1.073,0,0,1,24.6,2.148H42.855a1.073,1.073,0,0,1,1.074,1.074V7.516A1.073,1.073,0,0,1,42.855,8.59H24.6a1.073,1.073,0,0,1-1.074-1.074Z" transform="translate(-8.498 0)" fill="#363636"/>
      <path id="Path_267281" data-name="Path 267281" d="M61.176,94.823A1.073,1.073,0,0,1,60.1,95.9H38.095a5.848,5.848,0,0,1-2.134,2.147H60.1a3.227,3.227,0,0,0,3.221-3.221V93.749H61.176Z" transform="translate(-16.082 -29.329)" fill="#363636"/>
      <path id="Path_267282" data-name="Path 267282" d="M29.779,71.014V64.355a1.073,1.073,0,0,0-1.074-1.074H19.043a1.073,1.073,0,0,0-1.074,1.074v4.958c.717-.07,1.439-.107,2.147-.121V65.428h7.516v4.711a12.645,12.645,0,0,1,2.147.875Z" transform="translate(-10.453 -19.798)" fill="#363636"/>
      <path id="Path_267283" data-name="Path 267283" d="M26.232,68.243l-1.659,1.5-.123-.113a1.072,1.072,0,0,0-1.766,1.028,27.012,27.012,0,0,1,3.72.325l1.267-1.143a1.074,1.074,0,1,0-1.439-1.594Z" transform="translate(-11.92 -21.262)" fill="#363636"/>
      <path id="Path_267284" data-name="Path 267284" d="M27.431,79.295c0-2.95-5.288-4.295-10.2-4.295s-10.2,1.345-10.2,4.295v8.589c0,2.95,5.288,4.295,10.2,4.295s10.2-1.345,10.2-4.295Zm-2.147,8.589c0,.623-2.821,2.147-8.053,2.147s-8.053-1.525-8.053-2.147V86.359a18.822,18.822,0,0,0,8.053,1.525,18.822,18.822,0,0,0,8.053-1.525Zm0-4.295c0,.623-2.821,2.147-8.053,2.147s-8.053-1.525-8.053-2.147V82.065a18.822,18.822,0,0,0,8.053,1.525,18.822,18.822,0,0,0,8.053-1.525Zm-8.053-2.147c-5.232,0-8.053-1.525-8.053-2.147S12,77.147,17.231,77.147s8.053,1.525,8.053,2.147S22.463,81.442,17.231,81.442Z" transform="translate(-7.031 -23.464)" fill="#363636"/>
    </g>
  </g>
</svg>
