<svg id="Group_121626" data-name="Group 121626" xmlns="http://www.w3.org/2000/svg" width="36" height="36" viewBox="0 0 36 36">
  <path id="Path_267157" data-name="Path 267157" d="M0,0H36V36H0Z" fill="none"/>
  <path id="Path_267158" data-name="Path 267158" d="M12.5,1V4h9V1h3V4h6A1.5,1.5,0,0,1,32,5.5v24A1.5,1.5,0,0,1,30.5,31H3.5A1.5,1.5,0,0,1,2,29.5V5.5A1.5,1.5,0,0,1,3.5,4h6V1ZM29,16H5V28H29ZM11,19v3H8V19Zm7.5,0v3h-3V19ZM26,19v3H23V19ZM9.5,7H5v6H29V7H24.5v3h-3V7h-9v3h-3Z" transform="translate(1 0.5)"/>
</svg>
