<svg xmlns="http://www.w3.org/2000/svg" xmlns:xlink="http://www.w3.org/1999/xlink" width="106" height="40" viewBox="0 0 106 40">
  <defs>
    <clipPath id="clip-path">
      <rect id="Rectangle_85158" data-name="Rectangle 85158" width="106" height="40" transform="translate(7003 989)" fill="#fff" stroke="#707070" stroke-width="1"/>
    </clipPath>
  </defs>
  <g id="Group_220028" data-name="Group 220028" transform="translate(-6952 -881)">
    <g id="Mask_Group_21532" data-name="Mask Group 21532" transform="translate(-51 -108)" clip-path="url(#clip-path)">
      <g id="CMACGM_logo" data-name="CMACGM logo" transform="translate(6897.6 991.011)">
        <rect id="Rectangle_85905" data-name="Rectangle 85905" width="60.923" height="36.325" transform="translate(105.4 -0.004)" fill="none"/>
        <path id="Path_297768" data-name="Path 297768" d="M134.587,30.394l-3.569-8.731h-2.613l-3.569,8.731h2.039l.574-1.466h4.461l.637,1.466h2.039Zm-4.907-7.329,1.593,4.206h-3.186Zm-7.775,2.74.637-1.147v5.735h1.912V21.664h-2.1L119.8,26.316l-2.74-4.652h-2.039v8.731h1.784V24.659l.637,1.147,2.23,3.7h.064l2.23-3.7Zm41.933,0,.637-1.147v5.735h1.848V21.664h-1.912l-2.74,4.652-2.74-4.652h-2.039v8.731h1.784V24.659l.637,1.147,2.23,3.7h.064Zm-51.874,2.039v.064c0,.637-.382.828-1.211.828h-1.912c-1.338,0-1.593-.127-1.593-1.721V25.1c0-1.593.255-1.784,1.657-1.784h1.912c.765,0,1.147.127,1.147.828h1.912c0-1.912-.637-2.549-3-2.549h-2.422c-2.167,0-3.059.892-3.059,3.059v2.8c0,2.1.892,3,3.059,3h2.422c2.294,0,3.059-.637,3.059-2.549h-1.912Zm31.864,0v.064c0,.637-.382.828-1.211.828h-1.848c-1.4,0-1.593-.127-1.593-1.721V25.1c0-1.593.191-1.784,1.593-1.784h1.912c.765,0,1.147.127,1.147.828h1.912c0-1.912-.7-2.549-3-2.549h-2.422c-2.167,0-3.059.892-3.059,3.059v2.8c0,2.1.892,3,3.059,3h2.422c2.294,0,3-.637,3-2.549h-1.912Zm9.878.064c0,.637-.382.828-1.275.828H150.2c-1.4,0-1.593-.127-1.593-1.721V25.1c0-1.593.191-1.784,1.593-1.784h2.167c.828,0,1.275.127,1.275.828h1.912c0-1.912-.765-2.549-3.059-2.549h-2.74c-2.23,0-3.059.892-3.059,3.059v2.8c0,2.1.828,3,3.059,3h2.677c2.294,0,3.059-.637,3.059-2.549v-2.23h-4.461v1.466h2.549v.828Z" transform="translate(0 -7.839)" fill="#051039" fill-rule="evenodd"/>
        <path id="Path_297769" data-name="Path 297769" d="M148.747.7a.142.142,0,0,0-.127-.255c-4.843-1.4-19.628,0-26.574,10.642-.127.191-.127.191,0,.319,2.422-4.015,7.966-7.137,14.657-7.838a31.226,31.226,0,0,1,8.348.446.538.538,0,0,0,.446-.127A30.081,30.081,0,0,0,148.684.7ZM134.982,35.683a.131.131,0,0,0,.064.255c4.907,1.4,19.628,0,26.638-10.642.064-.191,0-.191-.064-.255-2.422,3.951-7.966,7.074-14.657,7.775a31.226,31.226,0,0,1-8.285-.446c-.319,0-.319,0-.51.127a29.313,29.313,0,0,0-3.186,3.186Z" transform="translate(-6.003 0)" fill="red"/>
      </g>
    </g>
  </g>
</svg>
