<svg xmlns="http://www.w3.org/2000/svg" width="480" height="326" viewBox="0 0 480 326">
  <g id="Group_122611" data-name="Group 122611" transform="translate(-10802 -1405)">
    <g id="Ellipse_180" data-name="Ellipse 180" transform="translate(10891 1405)" fill="#fff" stroke="#707070" stroke-width="1">
      <circle cx="64" cy="64" r="64" stroke="none"/>
      <circle cx="64" cy="64" r="63.5" fill="none"/>
    </g>
    <g id="Ellipse_182" data-name="Ellipse 182" transform="translate(11061 1589)" fill="#fff" stroke="#707070" stroke-width="1">
      <circle cx="64" cy="64" r="64" stroke="none"/>
      <circle cx="64" cy="64" r="63.5" fill="none"/>
    </g>
    <g id="Ellipse_188" data-name="Ellipse 188" transform="translate(11143 1439)" fill="#fff" stroke="#8540d6" stroke-linecap="round" stroke-width="2" stroke-dasharray="10 6.5">
      <circle cx="64" cy="64" r="64" stroke="none"/>
      <circle cx="64" cy="64" r="63" fill="none"/>
    </g>
    <circle id="Ellipse_189" data-name="Ellipse 189" cx="64" cy="64" r="64" transform="translate(11154 1430)" fill="#fcfaff"/>
    <circle id="Ellipse_181" data-name="Ellipse 181" cx="22" cy="22" r="22" transform="translate(10868 1420)" fill="#43717e"/>
    <circle id="Ellipse_183" data-name="Ellipse 183" cx="22" cy="22" r="22" transform="translate(11169 1617)" fill="#f6c644"/>
    <circle id="Ellipse_190" data-name="Ellipse 190" cx="22" cy="22" r="22" transform="translate(10962 1685)" fill="#f6c644"/>
    <circle id="Ellipse_184" data-name="Ellipse 184" cx="22" cy="22" r="22" transform="translate(11076 1450)" fill="#2963f6"/>
    <circle id="Ellipse_185" data-name="Ellipse 185" cx="12" cy="12" r="12" transform="translate(11034 1578)" fill="#ebecf0"/>
    <circle id="Ellipse_191" data-name="Ellipse 191" cx="12" cy="12" r="12" transform="translate(10802 1479)" fill="#ebecf0"/>
    <circle id="Ellipse_186" data-name="Ellipse 186" cx="12" cy="12" r="12" transform="translate(11253 1707)" fill="#ebecf0"/>
  </g>
</svg>
