<svg xmlns="http://www.w3.org/2000/svg" width="24" height="21" viewBox="0 0 16 16.317">
  <g id="noun-container-6367760" transform="translate(-0.508)">
    <g id="Group_220012" data-name="Group 220012" transform="translate(0.508)">
      <path id="Path_297007" data-name="Path 297007" d="M15.731,9.583a.181.181,0,0,1,.015-.072H1.271a.181.181,0,0,1,.015.072v5.662H15.731ZM2.965,8,7.546,4.413a1.277,1.277,0,0,1-.32-.847.273.273,0,0,1,.545,0,.734.734,0,0,0,.205.51l.364-.286a.272.272,0,0,1,.338,0l.361.283a.737.737,0,0,0-.232-1.183.962.962,0,0,1-.419-.355l-.011-.019a.966.966,0,0,1-.143-.509V1.791H7.319a.273.273,0,0,1-.273-.273V.707A.273.273,0,0,1,7.319.434H9.7a.273.273,0,0,1,.273.273v.811a.273.273,0,0,1-.273.273H8.781V2.01A.405.405,0,0,0,9.03,2.4a1.281,1.281,0,0,1,.44,2.017L14.051,8h2.457V9.147h-16V8H2.965ZM13.17,8,9.012,4.744A1.282,1.282,0,0,1,8,4.744L3.846,8Zm3.338,7.6h-16v1.143h16ZM8.1,11.191v2.521a.707.707,0,0,1-.705.705h-.04a.706.706,0,0,1-.705-.705V11.191a.706.706,0,0,1,.705-.7h.04a.706.706,0,0,1,.705.7Zm-.364,2.521V11.191a.342.342,0,0,0-.341-.341h-.04a.342.342,0,0,0-.341.341v2.521a.342.342,0,0,0,.341.341h.04a.342.342,0,0,0,.341-.341Zm2.631-2.521v2.521a.706.706,0,0,1-.705.705h-.04a.706.706,0,0,1-.7-.705V11.191a.706.706,0,0,1,.7-.7h.04a.708.708,0,0,1,.705.7ZM10,13.712V11.191a.341.341,0,0,0-.1-.241.337.337,0,0,0-.241-.1h-.04a.342.342,0,0,0-.341.341v2.521a.342.342,0,0,0,.341.341h.04A.342.342,0,0,0,10,13.712Zm2.631-2.521v2.521a.706.706,0,0,1-.705.705h-.04a.708.708,0,0,1-.705-.705V11.191a.706.706,0,0,1,.705-.7h.04a.706.706,0,0,1,.705.7Zm-.364,2.521V11.191a.342.342,0,0,0-.341-.341h-.04a.342.342,0,0,0-.341.341v2.521a.342.342,0,0,0,.341.341h.04a.342.342,0,0,0,.341-.341Zm-8.7-2.521v2.521a.706.706,0,0,1-.705.705H2.82a.706.706,0,0,1-.7-.705V11.191a.708.708,0,0,1,.7-.7h.04a.708.708,0,0,1,.705.7ZM3.2,13.712V11.191a.341.341,0,0,0-.1-.241.337.337,0,0,0-.241-.1H2.82a.341.341,0,0,0-.241.1.337.337,0,0,0-.1.241v2.521a.342.342,0,0,0,.341.341h.04a.342.342,0,0,0,.341-.341Zm2.631-2.521v2.521a.707.707,0,0,1-.705.705h-.04a.706.706,0,0,1-.705-.705V11.191a.706.706,0,0,1,.705-.7h.04a.706.706,0,0,1,.705.7Zm-.364,2.521V11.191a.342.342,0,0,0-.341-.341h-.04a.342.342,0,0,0-.341.341v2.521a.342.342,0,0,0,.341.341h.04a.342.342,0,0,0,.341-.341ZM14.9,11.191v2.521a.706.706,0,0,1-.7.705h-.04a.706.706,0,0,1-.705-.705V11.191a.707.707,0,0,1,.705-.7h.04a.707.707,0,0,1,.7.7Zm-.364,2.521V11.191a.341.341,0,0,0-.1-.237.345.345,0,0,0-.245-.1h-.04a.342.342,0,0,0-.237.1.346.346,0,0,0-.1.245v2.521a.342.342,0,0,0,.341.341h.04a.342.342,0,0,0,.341-.341Z" transform="translate(-0.508 -0.434)" fill="#4e1e7e"/>
    </g>
  </g>
</svg>
