<svg xmlns="http://www.w3.org/2000/svg" width="68.727" height="76" viewBox="0 0 68.727 76">
  <g id="noun-captain-7201749" transform="translate(-8.719 -4.368)" opacity="1">
    <path id="Path_267329" data-name="Path 267329" d="M31.538,54.634l3.495-.969,7.259,6.551,6.894-5.166,1.82-1.385h2.509l2.026.969-3.135,6.308-3.22,4.215L45.734,63.6l-2.014-2.246-2.756.76-3.023,3.039-2.909-2.268-3.06-4.728L30.657,55.37Z" fill="#8540d6"/>
    <path id="Path_267328" data-name="Path 267328" d="M22.1,16.735v-3.8l6.056-4.179,9-2.934s15.4-.276,20.15,2.934c.146-.021,7.358,4.179,7.358,4.179v3.8L59.636,22.6l-2.326,2.92H28.156l-3.648-5.447Z" fill="#8540d6"/>
    <path id="Path_267293" data-name="Path 267293" d="M76.323,88.207h-66a.859.859,0,0,1-.858-.858V81.394a17.549,17.549,0,0,1,12.3-16.745L34.2,60.757V55.233a.858.858,0,1,1,1.716,0v6.154a.858.858,0,0,1-.6.819L22.281,66.287a15.766,15.766,0,0,0-11.1,15.107v5.1h64.28v-5.1a15.764,15.764,0,0,0-11.1-15.107L51.332,62.205a.858.858,0,0,1-.6-.819V55.373a.858.858,0,1,1,1.716,0v5.38l12.428,3.893a17.549,17.549,0,0,1,12.3,16.745v5.955a.859.859,0,0,1-.858.858Z" transform="translate(-0.239 -8.353)" fill="#48217a" fill-rule="evenodd"/>
    <path id="Path_267293_-_Outline" data-name="Path 267293 - Outline" d="M76.084,88.479h-66A1.371,1.371,0,0,1,8.719,87.11V81.155A18.061,18.061,0,0,1,21.377,63.922l12.073-3.78V54.994a1.369,1.369,0,0,1,2.739,0v6.154a1.362,1.362,0,0,1-.964,1.307l-13.03,4.081A15.259,15.259,0,0,0,11.453,81.155V85.74H74.711V81.155A15.253,15.253,0,0,0,63.973,66.536L50.941,62.454a1.361,1.361,0,0,1-.962-1.307V55.134a1.369,1.369,0,0,1,2.739,0v5l12.07,3.78A18.061,18.061,0,0,1,77.445,81.152v5.955a1.371,1.371,0,0,1-1.361,1.369ZM34.819,54.647a.347.347,0,0,0-.347.347v5.9l-12.79,4A17.038,17.038,0,0,0,9.741,81.155V87.11a.347.347,0,0,0,.347.347H76.075v0a.347.347,0,0,0,.347-.347V81.152A17.038,17.038,0,0,0,64.481,64.895l-12.787-4V55.134a.347.347,0,0,0-.694,0v6.013a.348.348,0,0,0,.243.331L64.278,65.56A16.271,16.271,0,0,1,75.733,81.155v5.608h-65.3V81.155A16.277,16.277,0,0,1,21.889,65.56l13.032-4.082a.349.349,0,0,0,.245-.331V54.994A.347.347,0,0,0,34.819,54.647Z" transform="translate(0 -8.114)" fill="#48217a"/>
    <path id="Path_267294" data-name="Path 267294" d="M78.163,93.293a.859.859,0,0,1-.858-.858V86.112a.858.858,0,0,1,1.716,0v6.323A.859.859,0,0,1,78.163,93.293Z" transform="translate(-11.414 -13.44)" fill="#48217a" fill-rule="evenodd"/>
    <path id="Path_267294_-_Outline" data-name="Path 267294 - Outline" d="M77.924,93.566A1.371,1.371,0,0,1,76.555,92.2V85.873a1.369,1.369,0,1,1,2.739,0V92.2A1.371,1.371,0,0,1,77.924,93.566Zm0-8.039a.347.347,0,0,0-.347.347V92.2a.347.347,0,0,0,.694,0V85.873A.347.347,0,0,0,77.924,85.527Z" transform="translate(-11.175 -13.201)" fill="#48217a"/>
    <path id="Path_267295" data-name="Path 267295" d="M21.5,93.293a.859.859,0,0,1-.858-.858V86.112a.858.858,0,1,1,1.716,0v6.323A.859.859,0,0,1,21.5,93.293Z" transform="translate(-2.08 -13.44)" fill="#48217a" fill-rule="evenodd"/>
    <path id="Path_267295_-_Outline" data-name="Path 267295 - Outline" d="M21.264,93.566A1.371,1.371,0,0,1,19.895,92.2V85.873a1.369,1.369,0,1,1,2.739,0V92.2A1.371,1.371,0,0,1,21.264,93.566Zm0-8.039a.347.347,0,0,0-.347.347V92.2a.347.347,0,0,0,.694,0V85.873A.347.347,0,0,0,21.264,85.527Z" transform="translate(-1.841 -13.201)" fill="#48217a"/>
    <path id="Path_267296" data-name="Path 267296" d="M45.452,6.84c-1.909,0-14.7.277-20.4,7.5a1.077,1.077,0,0,0-.02,1.3l7.132,9.808a.851.851,0,0,1,.163.454l.692,11.459a12.677,12.677,0,0,0,25.293-.007l.8-11.459a.9.9,0,0,1,.163-.447L66.4,15.643a1.082,1.082,0,0,0-.023-1.3c-6.137-7.775-20.5-7.5-20.644-7.5h-.284Zm.212,44.028A14.392,14.392,0,0,1,31.3,37.474l-.679-11.218L23.64,16.648a2.79,2.79,0,0,1,.065-3.374c2.777-3.52,7.481-6.046,13.6-7.3a41.933,41.933,0,0,1,16.816,0c6.121,1.259,10.823,3.782,13.6,7.3a2.8,2.8,0,0,1,.062,3.374L60.8,26.26l-.78,11.214a14.392,14.392,0,0,1-14.356,13.4Z" transform="translate(-2.485 -0.239)" fill="#48217a" fill-rule="evenodd"/>
    <path id="Path_267296_-_Outline" data-name="Path 267296 - Outline" d="M45.139,4.368c.123,0,.237,0,.338,0l.339,0a42.189,42.189,0,0,1,8.172.865c6.241,1.284,11.047,3.873,13.9,7.486a3.319,3.319,0,0,1,.074,3.991L61.06,26.2l-.77,11.068A14.9,14.9,0,0,1,45.424,51.143h-.718l.007-.02A14.9,14.9,0,0,1,30.556,37.271v0L29.886,26.2l-6.9-9.488a3.3,3.3,0,0,1,.079-3.993c2.851-3.615,7.658-6.2,13.9-7.484A42.2,42.2,0,0,1,45.139,4.368Zm.338,1.025h-.01c-.1,0-.208,0-.328,0a41.126,41.126,0,0,0-7.967.844c-6,1.232-10.6,3.693-13.3,7.118a2.279,2.279,0,0,0-.054,2.756l7.074,9.73L31.576,37.2A13.88,13.88,0,0,0,45.425,50.118h.3A13.881,13.881,0,0,0,59.27,37.2l.79-11.361,7.075-9.731a2.293,2.293,0,0,0-.05-2.757c-2.7-3.421-7.3-5.883-13.3-7.117a41.119,41.119,0,0,0-7.966-.844l-.329,0Zm-.264.7h.563a41.246,41.246,0,0,1,8.9,1.064,28.121,28.121,0,0,1,6.4,2.284,16.44,16.44,0,0,1,5.472,4.347,1.6,1.6,0,0,1,.035,1.919l-7.131,9.805a.385.385,0,0,0-.069.188l-.8,11.455a13.188,13.188,0,0,1-26.313.006v0L31.577,25.7a.338.338,0,0,0-.065-.182L24.378,15.7a1.589,1.589,0,0,1,.032-1.92A16.46,16.46,0,0,1,29.9,9.428a28.174,28.174,0,0,1,6.415-2.283A41.32,41.32,0,0,1,45.213,6.09ZM45.425,48.4A12.2,12.2,0,0,0,57.561,37.082l.8-11.465a1.413,1.413,0,0,1,.255-.7l0-.005L65.75,15.1a.569.569,0,0,0-.01-.684A15.431,15.431,0,0,0,60.6,10.348a27.1,27.1,0,0,0-6.163-2.2,40.128,40.128,0,0,0-8.685-1.037c-.139,0-.221,0-.237,0h-.691a40.587,40.587,0,0,0-8.275,1.025,27.157,27.157,0,0,0-6.182,2.2,15.451,15.451,0,0,0-5.158,4.081.565.565,0,0,0-.009.683l7.134,9.809a1.362,1.362,0,0,1,.26.724l.692,11.457A12.161,12.161,0,0,0,45.425,48.4Z" transform="translate(-2.246 0)" fill="#48217a"/>
    <path id="Path_267297" data-name="Path 267297" d="M45.6,91.518a.579.579,0,0,1-.1-.007.858.858,0,0,1-.75-.953l1.246-10.493L44.85,75.547a.859.859,0,1,1,1.664-.424L47.695,79.8a.826.826,0,0,1,.02.31l-1.266,10.65a.857.857,0,0,1-.852.757Z" transform="translate(-6.049 -11.665)" fill="#48217a" fill-rule="evenodd"/>
    <path id="Path_267297_-_Outline" data-name="Path 267297 - Outline" d="M46.206,91.79h-.845a1.082,1.082,0,0,1-.178-.012A1.37,1.37,0,0,1,44,90.26l1.235-10.4-1.119-4.427a1.37,1.37,0,0,1,2.655-.677l1.182,4.674a1.331,1.331,0,0,1,.031.5L46.717,90.577a1.37,1.37,0,0,1-.626.995Zm-.91-1.029h.062a.347.347,0,0,0,.344-.306l1.266-10.649a.321.321,0,0,0-.007-.122L45.779,75.01a.347.347,0,0,0-.673.172l1.165,4.612L45.014,90.38A.347.347,0,0,0,45.3,90.762Z" transform="translate(-5.81 -11.426)" fill="#48217a"/>
    <path id="Path_267298" data-name="Path 267298" d="M53.811,91.518a.857.857,0,0,1-.852-.757L51.694,80.115c0-.033-.007-.069-.007-.1a.943.943,0,0,1,.026-.212l1.181-4.676a.858.858,0,0,1,1.664.421l-1.145,4.522L54.66,90.562a.858.858,0,0,1-.75.953c-.033,0-.069.007-.1.007Z" transform="translate(-7.194 -11.665)" fill="#48217a" fill-rule="evenodd"/>
    <path id="Path_267298_-_Outline" data-name="Path 267298 - Outline" d="M53.569,91.794H52.25l.4-.363a1.367,1.367,0,0,1-.435-.848L50.946,79.927a1.514,1.514,0,0,1-.009-.152,1.451,1.451,0,0,1,.04-.33l0-.007,1.181-4.676a1.37,1.37,0,0,1,2.507-.36,1.354,1.354,0,0,1,.148,1.034l-1.122,4.429,1.235,10.4a1.369,1.369,0,0,1-1.2,1.521h-.009A1.511,1.511,0,0,1,53.569,91.794ZM51.963,79.821l1.265,10.641a.347.347,0,0,0,.344.306h.042a.347.347,0,0,0,.3-.385L52.656,79.8l1.168-4.614a.339.339,0,0,0-.037-.26.347.347,0,0,0-.214-.16h0a.341.341,0,0,0-.086-.011.346.346,0,0,0-.333.263l-1.18,4.67a.438.438,0,0,0-.012.091C51.96,79.782,51.961,79.8,51.963,79.821Z" transform="translate(-6.955 -11.426)" fill="#48217a"/>
    <path id="Path_267299" data-name="Path 267299" d="M51.651,81.791H47.112a.858.858,0,1,1,0-1.716h4.539a.858.858,0,1,1,0,1.716Z" transform="translate(-6.299 -12.587)" fill="#48217a" fill-rule="evenodd"/>
    <path id="Path_267299_-_Outline" data-name="Path 267299 - Outline" d="M51.412,82.063H46.873a1.369,1.369,0,1,1,0-2.739h4.539a1.369,1.369,0,1,1,0,2.739Zm-4.539-1.716a.347.347,0,1,0,0,.694h4.539a.347.347,0,0,0,0-.694Z" transform="translate(-6.06 -12.348)" fill="#48217a"/>
    <path id="Path_267300" data-name="Path 267300" d="M41.641,75.707a1.672,1.672,0,0,1-.219-.013,1.77,1.77,0,0,1-1.263-.777L33.3,64.627a.858.858,0,0,1,1.429-.949l6.865,10.29a.067.067,0,0,0,.046.026.074.074,0,0,0,.052-.016l13.231-12.01a.859.859,0,1,1,1.155,1.272l-8.268,7.5-4.963,4.5a1.777,1.777,0,0,1-1.2.463Z" transform="translate(-4.14 -9.567)" fill="#48217a" fill-rule="evenodd"/>
    <path id="Path_267300_-_Outline" data-name="Path 267300 - Outline" d="M41.406,75.983h-.2l-.013-.012-.073-.008a2.28,2.28,0,0,1-1.625-1l-6.865-10.29a1.37,1.37,0,0,1,1.139-2.127,1.37,1.37,0,0,1,1.14.61l6.577,9.859L54.335,61.35a1.37,1.37,0,1,1,1.842,2.03L42.947,75.387A2.284,2.284,0,0,1,41.406,75.983ZM33.77,63.567a.345.345,0,0,0-.289.537L40.346,74.4a1.259,1.259,0,0,0,.9.553h.005a1.161,1.161,0,0,0,.152.009H41.5a1.263,1.263,0,0,0,.763-.327l4.963-4.5,8.268-7.5a.348.348,0,0,0,.024-.492.344.344,0,0,0-.258-.115.348.348,0,0,0-.234.091L41.74,74.165l-.042.021a.569.569,0,0,1-.294.081.582.582,0,0,1-.064,0,.576.576,0,0,1-.36-.182l-.026-.026L34.06,63.722A.349.349,0,0,0,33.77,63.567Z" transform="translate(-3.901 -9.328)" fill="#48217a"/>
    <path id="Path_267301" data-name="Path 267301" d="M53.783,75.707a1.777,1.777,0,0,1-1.2-.463L39.355,63.236a.859.859,0,0,1,1.155-1.272L53.74,73.971a.062.062,0,0,0,.052.016.052.052,0,0,0,.046-.029L60.749,63.68a.859.859,0,0,1,1.426.959l-6.91,10.275A1.791,1.791,0,0,1,54,75.69a1.639,1.639,0,0,1-.219.013Z" transform="translate(-5.115 -9.567)" fill="#48217a" fill-rule="evenodd"/>
    <path id="Path_267301_-_Outline" data-name="Path 267301 - Outline" d="M53.545,75.979a2.284,2.284,0,0,1-1.542-.6L38.773,63.376a1.37,1.37,0,0,1,1.842-2.03l12.848,11.66,6.623-9.851a1.37,1.37,0,0,1,2.275,1.529L55.45,74.96a2.3,2.3,0,0,1-1.394.958v.058Zm-.092-1.026h.092a1.136,1.136,0,0,0,.15-.008h0a1.279,1.279,0,0,0,.9-.554l6.911-10.275a.351.351,0,0,0-.291-.543.343.343,0,0,0-.285.153l-6.9,10.266a.565.565,0,0,1-.428.266.574.574,0,0,1-.451-.151l-13.226-12a.341.341,0,0,0-.232-.09.348.348,0,0,0-.236.605L52.691,74.626A1.264,1.264,0,0,0,53.453,74.953Z" transform="translate(-4.877 -9.328)" fill="#48217a"/>
    <path id="Path_267302" data-name="Path 267302" d="M61.441,30.752h-28.5a.858.858,0,1,1,0-1.716h28.5a.858.858,0,0,1,0,1.716Z" transform="translate(-3.965 -4.179)" fill="#48217a" fill-rule="evenodd"/>
    <path id="Path_267302_-_Outline" data-name="Path 267302 - Outline" d="M61.2,31.024H32.7a1.369,1.369,0,1,1,0-2.739H61.2a1.369,1.369,0,0,1,0,2.739ZM32.7,29.308a.347.347,0,1,0,0,.694H61.2a.347.347,0,0,0,0-.694Z" transform="translate(-3.726 -3.94)" fill="#48217a"/>
    <path id="Path_267303" data-name="Path 267303" d="M55.065,37.083H39.381a6.588,6.588,0,0,1-4.176-1.5l-2.63-2.167a.858.858,0,0,1,1.09-1.325l2.63,2.167a4.849,4.849,0,0,0,3.08,1.106H55.062a4.876,4.876,0,0,0,3.083-1.106l2.607-2.15a.858.858,0,0,1,1.09,1.325l-2.607,2.147a6.57,6.57,0,0,1-4.176,1.5Z" transform="translate(-3.994 -4.651)" fill="#48217a" fill-rule="evenodd"/>
    <path id="Path_267303_-_Outline" data-name="Path 267303 - Outline" d="M54.826,37.355H39.142a7.1,7.1,0,0,1-4.5-1.614l-2.63-2.167a1.369,1.369,0,0,1,1.739-2.114l2.63,2.167a4.333,4.333,0,0,0,2.755.989H54.823a4.367,4.367,0,0,0,2.759-.99l2.606-2.149a1.37,1.37,0,0,1,1.928.187,1.367,1.367,0,0,1-.188,1.927l-2.606,2.146a7.086,7.086,0,0,1-4.487,1.614h-.007ZM32.882,32.171a.346.346,0,0,0-.221.613l2.63,2.167a6.079,6.079,0,0,0,3.851,1.381H54.82v0h.013a6.061,6.061,0,0,0,3.838-1.381L61.278,32.8a.346.346,0,0,0,.126-.236.338.338,0,0,0-.077-.25.347.347,0,0,0-.489-.049l-2.606,2.149a5.393,5.393,0,0,1-3.409,1.223H39.136a5.357,5.357,0,0,1-3.406-1.223L33.1,32.25A.343.343,0,0,0,32.882,32.171Z" transform="translate(-3.755 -4.412)" fill="#48217a"/>
    <path id="Path_267304" data-name="Path 267304" d="M49.4,15.166a2.173,2.173,0,1,0,2.173,2.173A2.176,2.176,0,0,0,49.4,15.166Zm0,6.065A3.891,3.891,0,1,1,53.3,17.342,3.895,3.895,0,0,1,49.4,21.231Z" transform="translate(-6.177 -1.611)" fill="#48217a" fill-rule="evenodd"/>
    <path id="Path_267304_-_Outline" data-name="Path 267304 - Outline" d="M49.166,12.7a4.4,4.4,0,1,1-4.4,4.4A4.409,4.409,0,0,1,49.166,12.7Zm0,7.782A3.38,3.38,0,1,0,45.788,17.1,3.383,3.383,0,0,0,49.166,20.481Zm0-6.065A2.684,2.684,0,1,1,46.482,17.1,2.687,2.687,0,0,1,49.166,14.416Zm0,4.346A1.662,1.662,0,1,0,47.5,17.1,1.664,1.664,0,0,0,49.166,18.762Z" transform="translate(-5.938 -1.373)" fill="#48217a"/>
    <path id="Path_267305" data-name="Path 267305" d="M58.488,16.56H52.866a.858.858,0,1,1,0-1.716h5.622a.858.858,0,1,1,0,1.716Z" transform="translate(-7.246 -1.841)" fill="#48217a" fill-rule="evenodd"/>
    <path id="Path_267305_-_Outline" data-name="Path 267305 - Outline" d="M58.249,16.832H52.627a1.369,1.369,0,0,1,0-2.739h5.622a1.369,1.369,0,1,1,0,2.739Zm-5.622-1.716a.347.347,0,0,0,0,.694h5.622a.347.347,0,1,0,0-.694Z" transform="translate(-7.008 -1.602)" fill="#48217a"/>
    <path id="Path_267306" data-name="Path 267306" d="M46.032,16.56H40.413a.858.858,0,0,1,0-1.716h5.622a.858.858,0,0,1,0,1.716Z" transform="translate(-5.195 -1.841)" fill="#48217a" fill-rule="evenodd"/>
    <path id="Path_267306_-_Outline" data-name="Path 267306 - Outline" d="M45.8,16.832H40.174a1.369,1.369,0,0,1,0-2.739H45.8a1.369,1.369,0,0,1,0,2.739Zm-5.622-1.716a.347.347,0,0,0,0,.694H45.8a.347.347,0,0,0,0-.694Z" transform="translate(-4.956 -1.602)" fill="#48217a"/>
    <path id="Path_267307" data-name="Path 267307" d="M56.135,21.029H52.866a.858.858,0,1,1,0-1.716h3.273a.858.858,0,1,1,0,1.716Z" transform="translate(-7.246 -2.577)" fill="#48217a" fill-rule="evenodd"/>
    <path id="Path_267307_-_Outline" data-name="Path 267307 - Outline" d="M55.9,21.3H52.627a1.369,1.369,0,0,1,0-2.739H55.9a1.369,1.369,0,1,1,0,2.739Zm-3.273-1.716a.347.347,0,0,0,0,.694H55.9a.347.347,0,1,0,0-.694Z" transform="translate(-7.008 -2.338)" fill="#48217a"/>
    <path id="Path_267308" data-name="Path 267308" d="M46.495,21.029H43.226a.858.858,0,1,1,0-1.716h3.269a.858.858,0,1,1,0,1.716Z" transform="translate(-5.658 -2.577)" fill="#48217a" fill-rule="evenodd"/>
    <path id="Path_267308_-_Outline" data-name="Path 267308 - Outline" d="M46.256,21.3H42.987a1.369,1.369,0,0,1,0-2.739h3.269a1.369,1.369,0,0,1,0,2.739Zm-3.269-1.716a.347.347,0,0,0,0,.694h3.269a.343.343,0,0,0,.347-.347.347.347,0,0,0-.347-.347Z" transform="translate(-5.42 -2.338)" fill="#48217a"/>
    <path id="Path_267309" data-name="Path 267309" d="M18.941,75.389a1.827,1.827,0,0,1-1.338-.581L15.368,72.4a.859.859,0,0,1,1.259-1.168l2.232,2.4a.114.114,0,0,0,.147.013L23.349,70.5a.118.118,0,0,0,.042-.082.1.1,0,0,0-.029-.085l-1.811-1.948a.859.859,0,1,1,1.259-1.168l1.811,1.948a1.83,1.83,0,0,1-.261,2.721L20.014,75.04a1.834,1.834,0,0,1-1.07.346Z" transform="translate(-1.173 -10.424)" fill="#48217a" fill-rule="evenodd"/>
    <path id="Path_267309_-_Outline" data-name="Path 267309 - Outline" d="M18.914,75.662H18.7a2.347,2.347,0,0,1-1.712-.744L14.755,72.51a1.371,1.371,0,0,1,1.005-2.3,1.372,1.372,0,0,1,1,.44l1.989,2.144,3.689-2.675-1.5-1.619a1.37,1.37,0,1,1,2.009-1.863l1.81,1.947a2.342,2.342,0,0,1-.334,3.482l-4.347,3.152a2.341,2.341,0,0,1-1.148.433Zm-.3-1.026h.1a1.318,1.318,0,0,0,.772-.25l4.344-3.15a1.319,1.319,0,0,0,.187-1.959L22.2,67.329a.343.343,0,0,0-.255-.112.349.349,0,0,0-.238.094.344.344,0,0,0-.111.241.348.348,0,0,0,.094.25l1.806,1.943a.614.614,0,0,1,.168.488v.012a.627.627,0,0,1-.236.422l-.014.01-4.359,3.16a.63.63,0,0,1-.35.107.621.621,0,0,1-.442-.184l-.013-.014-2.232-2.4a.343.343,0,0,0-.254-.112.349.349,0,0,0-.238.094.345.345,0,0,0-.111.242.341.341,0,0,0,.092.247l2.236,2.409A1.32,1.32,0,0,0,18.61,74.636Z" transform="translate(-0.934 -10.185)" fill="#48217a"/>
    <path id="Path_267310" data-name="Path 267310" d="M79.147,75.389a1.827,1.827,0,0,1-1.07-.346L73.734,71.9a1.828,1.828,0,0,1-.264-2.721l1.8-1.935a.859.859,0,1,1,1.259,1.168l-1.8,1.935a.1.1,0,0,0-.029.085.111.111,0,0,0,.046.082l4.339,3.145a.111.111,0,0,0,.147-.016l2.212-2.379A.859.859,0,0,1,82.7,72.427l-2.212,2.382a1.827,1.827,0,0,1-1.341.581Z" transform="translate(-10.702 -10.427)" fill="#48217a" fill-rule="evenodd"/>
    <path id="Path_267310_-_Outline" data-name="Path 267310 - Outline" d="M78.908,75.662a2.352,2.352,0,0,1-1.37-.443L73.2,72.07a2.339,2.339,0,0,1-.338-3.483l1.8-1.934a1.38,1.38,0,0,1,1.005-.438,1.37,1.37,0,0,1,1,2.3l-1.491,1.6,3.686,2.672,1.972-2.121a1.374,1.374,0,0,1,1.933-.074l0,0a1.375,1.375,0,0,1,.072,1.935l-2.213,2.383a2.352,2.352,0,0,1-1.713.744ZM75.66,67.237a.349.349,0,0,0-.257.112l-1.8,1.934a1.317,1.317,0,0,0,.191,1.96l4.341,3.147a1.322,1.322,0,0,0,.768.249h0a1.308,1.308,0,0,0,.967-.418L82.09,71.84a.346.346,0,0,0-.255-.582.346.346,0,0,0-.256.111l-2.211,2.378a.625.625,0,0,1-.457.2.618.618,0,0,1-.361-.116l0,0-4.359-3.16a.628.628,0,0,1-.237-.451.613.613,0,0,1,.169-.467l1.794-1.931a.35.35,0,0,0-.02-.492A.34.34,0,0,0,75.66,67.237Z" transform="translate(-10.463 -10.188)" fill="#48217a"/>
  </g>
</svg>
