<svg id="Group_121619" data-name="Group 121619" xmlns="http://www.w3.org/2000/svg" width="32" height="32" viewBox="0 0 32 32">
  <path id="Path_267153" data-name="Path 267153" d="M0,0H32V32H0Z" fill="none"/>
  <path id="Path_267154" data-name="Path 267154" d="M6.5,5.35A13.334,13.334,0,0,1,26.281,22.956l-3.609-7.62H26A10.667,10.667,0,0,0,7.7,7.886ZM24.174,25.322A13.334,13.334,0,0,1,4.4,7.716L8,15.336H4.672a10.667,10.667,0,0,0,18.3,7.45ZM10.672,18H18a.667.667,0,0,0,0-1.333H12.672a3.333,3.333,0,1,1,0-6.667H14V8.669h2.667V10H20v2.667H12.672a.667.667,0,1,0,0,1.333H18a3.333,3.333,0,1,1,0,6.667H16.672V22H14V20.669H10.672Z" transform="translate(0.668 0.668)" fill="#4bb90f"/>
</svg>
