<svg xmlns="http://www.w3.org/2000/svg" width="99.234" height="74.883" viewBox="0 0 99.234 74.883">
  <path id="Shape" d="M161.908,86.858a2.786,2.786,0,1,1,2.786,2.786,2.786,2.786,0,0,1-2.786-2.786Zm-23.41,0a2.786,2.786,0,1,1,2.785,2.786,2.786,2.786,0,0,1-2.785-2.786Zm-23.411,0a2.786,2.786,0,1,1,2.786,2.786,2.786,2.786,0,0,1-2.786-2.786Zm-23.426,0a2.786,2.786,0,1,1,2.785,2.786,2.786,2.786,0,0,1-2.785-2.786Zm-23.411,0a2.786,2.786,0,1,1,2.786,2.786,2.786,2.786,0,0,1-2.786-2.786ZM161.909,63.75a2.784,2.784,0,1,1,.814,1.969,2.786,2.786,0,0,1-.814-1.969Zm-23.41,0a2.786,2.786,0,1,1,2.785,2.785A2.786,2.786,0,0,1,138.5,63.75Zm-23.411,0a2.784,2.784,0,1,1,.814,1.969,2.786,2.786,0,0,1-.814-1.969Zm-23.426,0a2.786,2.786,0,1,1,2.785,2.785,2.786,2.786,0,0,1-2.785-2.785Zm-23.411,0a2.784,2.784,0,1,1,.814,1.969,2.786,2.786,0,0,1-.814-1.969ZM161.91,40.642a7.436,7.436,0,1,0,0-.009Zm-23.41,0a4.038,4.038,0,1,0,0-.009Zm-23.411,0a7.354,7.354,0,1,0,0-.009Zm-23.426,0a7.2,7.2,0,1,0,0-.009Zm-23.411,0a7.354,7.354,0,1,0,0-.009Zm93.659-23.094a34.395,34.395,0,1,0,0-.009Zm-23.41,0a7.264,7.264,0,1,0,0-.009Zm-23.411,0a36.17,36.17,0,1,0,0-.009Zm-23.426,0a31.372,31.372,0,1,0,0-.009Zm-23.411,0a34.409,34.409,0,1,0,0-.009Z" transform="translate(-68.25 -14.761)" fill="#fffbed"/>
</svg>
