<svg xmlns="http://www.w3.org/2000/svg" xmlns:xlink="http://www.w3.org/1999/xlink" width="76" height="76" viewBox="0 0 76 76">
  <defs>
    <clipPath id="clip-path">
      <rect id="Rectangle_44265" data-name="Rectangle 44265" width="63.431" height="63.36" fill="none"/>
    </clipPath>
  </defs>
  <g id="Group_87969" data-name="Group 87969" transform="translate(4576 3828)">
    <rect id="Rectangle_44279" data-name="Rectangle 44279" width="76" height="76" transform="translate(-4576 -3828)" fill="#fff" opacity="0"/>
    <g id="Group_87938" data-name="Group 87938" transform="translate(-4569.715 -3821.746)">
      <g id="Group_87937" data-name="Group 87937" clip-path="url(#clip-path)">
        <g id="Group_87936" data-name="Group 87936">
          <g id="Group_87935" data-name="Group 87935" clip-path="url(#clip-path)">
            <path id="Path_257397" data-name="Path 257397" d="M630.128,69.207c-1.644-.623-3.185-1.2-4.724-1.79a4.085,4.085,0,0,1-.714-.313,1.4,1.4,0,0,1-.615-1.658,1.312,1.312,0,0,1,1.589-.877c1.194.364,2.357.833,3.528,1.274,1.326.5,2.65,1.007,3.967,1.532a.73.73,0,0,0,.979-.25c.929-1.165,1.89-2.3,2.847-3.446.3-.357.322-.581-.184-.768-2.708-1-5.409-2.024-8.11-3.044-.531-.2-1.056-.418-1.576-.645a1.417,1.417,0,0,1-.82-1.624,1.391,1.391,0,0,1,1.687-.945,45.439,45.439,0,0,1,4.328,1.58c2.508.916,5,1.882,7.511,2.786a1.554,1.554,0,0,1,.763,2.664c-1.414,1.687-2.807,3.391-4.217,5.081a.609.609,0,0,0,0,.923c1.423,1.711,2.82,3.444,4.218,5.175.876,1.083.644,1.982-.644,2.494a10.947,10.947,0,0,1-1.85.709c-.667.134-.895.537-.891,1.221.023,4.88.014,9.76.014,14.639,0,.308.008.617-.015.924a1.367,1.367,0,0,1-.916,1.307c-2.923,1.105-5.839,2.227-8.761,3.335q-6.206,2.353-12.415,4.694a44.261,44.261,0,0,0-4.172,1.6,3.973,3.973,0,0,1-3.464-.117q-6-2.294-12.011-4.564-4.646-1.765-9.291-3.534c-1.215-.464-2.42-.953-3.641-1.4a1.335,1.335,0,0,1-.943-1.211,7.246,7.246,0,0,1-.052-2.12,12.216,12.216,0,0,0-.074-2.194c.026-1.913.137-3.827.08-5.737-.055-1.823-.073-3.638.008-5.46.044-1.01-.146-1.156-1.086-1.468-.605-.2-1.2-.446-1.787-.687A1.346,1.346,0,0,1,578,75.111c.6-.847,1.3-1.627,1.956-2.433.824-1.007,1.645-2.018,2.484-3.012a.589.589,0,0,0-.006-.875c-1.357-1.642-2.691-3.3-4.065-4.93-1.042-1.234-.862-2.192.659-2.78,3.813-1.474,7.638-2.914,11.466-4.348a1.39,1.39,0,0,1,1.965.8,1.471,1.471,0,0,1-1.057,1.808q-4.61,1.759-9.226,3.5c-.744.282-.756.372-.265.962.849,1.018,1.693,2.039,2.511,3.081a1.11,1.11,0,0,0,1.515.373c2.325-.934,4.677-1.8,7.033-2.654A1.369,1.369,0,0,1,594.8,65.9a1.439,1.439,0,0,1-1.108,1.4c-1.417.531-2.836,1.058-4.253,1.589-.235.088-.464.2-.849.358,1.047.41,1.935.771,2.834,1.106,3.918,1.461,7.842,2.907,11.758,4.373,1.769.663,3.532,1.344,5.281,2.056a2.33,2.33,0,0,0,1.839,0c4.058-1.554,8.131-3.073,12.2-4.607q3.647-1.376,7.289-2.762a2.839,2.839,0,0,0,.339-.209M610.9,82.773c-.2.241-.122.488-.125.713-.013,1-.01,1.99-.01,2.985q0,7.783,0,15.565c0,.766.086.8.752.533q1.938-.782,3.9-1.513c2.078-.778,4.169-1.524,6.245-2.309,4.043-1.527,8.077-3.08,12.124-4.6a.86.86,0,0,0,.676-.922q-.021-6.538-.005-13.078c0-.551-.173-.646-.682-.45-3.092,1.189-6.194,2.357-9.294,3.528q-4.351,1.644-8.705,3.278a1.619,1.619,0,0,1-2.282-.662c-.445-.554-.868-1.128-1.339-1.659a8.128,8.128,0,0,0-1.255-1.411m-3.071-.066c-.9,1.1-1.753,2.166-2.622,3.22a1.579,1.579,0,0,1-2.124.607c-2.97-1.108-5.932-2.235-8.9-3.356-3.076-1.162-6.154-2.318-9.224-3.495-.5-.192-.638-.038-.637.445q.005,6.537,0,13.073a.876.876,0,0,0,.62.921c1.549.577,3.093,1.168,4.64,1.75q5.866,2.208,11.732,4.413c1.946.733,3.884,1.486,5.837,2.2.844.309.859.276.86-.647q0-9.237,0-18.473a.808.808,0,0,0-.178-.66m7.83.819a3.862,3.862,0,0,0,.405-.111c1.683-.629,3.369-1.253,5.046-1.9,3.044-1.169,6.063-2.409,9.133-3.508,2.179-.78,4.317-1.667,6.5-2.424.526-.182.576-.38.229-.79-.824-.978-1.626-1.972-2.438-2.96-.728-.886-.733-.9-1.819-.5q-6.651,2.482-13.3,4.981-3.491,1.312-6.972,2.649c-.281.108-.829.143-.387.685q1.458,1.788,2.924,3.571a.637.637,0,0,0,.671.3M606.9,79.409c-.066-.289-.3-.336-.486-.408-.818-.31-1.646-.6-2.464-.908-3.049-1.16-6.092-2.334-9.143-3.489-2.942-1.115-5.905-2.178-8.828-3.341a1.147,1.147,0,0,0-1.578.374q-1.249,1.592-2.567,3.128c-.369.432-.351.62.218.83,2.835,1.05,5.654,2.14,8.481,3.211q6.128,2.324,12.255,4.645a.767.767,0,0,0,1-.216c.971-1.192,1.963-2.366,2.945-3.55a2,2,0,0,0,.166-.278" transform="translate(-577.674 -42.774)"/>
            <path id="Path_257398" data-name="Path 257398" d="M622.65,63.715c-1-.466-1.531.242-2.126,1.125a2.444,2.444,0,0,1-3.5.743,5.636,5.636,0,0,1-.728-.443.806.806,0,0,0-1.094.009,5.434,5.434,0,0,1-.666.408,2.5,2.5,0,0,1-3.559-.728,2.691,2.691,0,0,1-.373-.518,1.12,1.12,0,0,0-1.44-.662,2.6,2.6,0,0,1-3.1-1.406,4.631,4.631,0,0,1-.434-1.631.958.958,0,0,0-.765-.954,4.051,4.051,0,0,1-1.622-.85,2.568,2.568,0,0,1-.483-3.026,1.354,1.354,0,0,0-.453-1.843,3.652,3.652,0,0,1-1.033-1.671,1.289,1.289,0,0,1,.066-1.032,5.534,5.534,0,0,1,1.26-1.79,1.019,1.019,0,0,0,.271-1.207c-.8-2.323-.279-3.418,2.05-4.259a.963.963,0,0,0,.746-.891c.038-.329.115-.653.183-.978a2.5,2.5,0,0,1,2.977-2.075,1.682,1.682,0,0,0,1.979-.9,2.573,2.573,0,0,1,4.1-.819,1.274,1.274,0,0,0,1.7.052,2.627,2.627,0,0,1,3.1-.341,3.84,3.84,0,0,1,1.24,1.438,1.121,1.121,0,0,0,1.292.6c2.189-.309,3.216.436,3.512,2.633a1.574,1.574,0,0,0,1.178,1.446c1.968.728,2.5,1.934,1.764,3.915a1.168,1.168,0,0,0,.327,1.508,3.53,3.53,0,0,1,.553.647,2.461,2.461,0,0,1-.241,3.571A1.763,1.763,0,0,0,628.807,56a2.384,2.384,0,0,1-1.639,3.431,2,2,0,0,0-1.477,1.864c-.233,1.71-1.147,2.409-3.041,2.417m-.988-2.867c.25,0,.511-.007.771,0a.538.538,0,0,0,.63-.589,3.174,3.174,0,0,1,2.423-3.128c.532-.167.659-.459.459-.959a3,3,0,0,1,.862-3.717c.5-.424.462-.756-.016-1.2a3.017,3.017,0,0,1-.817-3.733c.257-.563.055-.83-.482-.989a3.092,3.092,0,0,1-2.425-3.106c-.015-.453-.241-.673-.681-.584a3.168,3.168,0,0,1-3.711-1.8c-.22-.4-.48-.47-.853-.192a3.178,3.178,0,0,1-4.072.04c-.432-.307-.693-.257-.954.2a3.132,3.132,0,0,1-3.6,1.753c-.455-.092-.72.079-.747.586a3.083,3.083,0,0,1-2.431,3.1c-.553.148-.717.44-.47.993a2.961,2.961,0,0,1-.777,3.674c-.537.487-.551.83.005,1.3a2.9,2.9,0,0,1,.874,3.4c-.313.951-.3,1,.653,1.331a2.951,2.951,0,0,1,2.108,2.749c.053.745.34.949,1.016.849a3.062,3.062,0,0,1,3.357,1.709c.253.45.569.48,1,.2a3.088,3.088,0,0,1,3.771-.1c.673.486,1.029.253,1.4-.367a2.581,2.581,0,0,1,2.713-1.434" transform="translate(-584.048 -37.635)"/>
            <path id="Path_257399" data-name="Path 257399" d="M617,59.946a2,2,0,0,1-1.241-.461,17.249,17.249,0,0,1-2.433-2.373,1.292,1.292,0,0,1,.026-2c.647-.587,1.265-.553,2,.133a16.336,16.336,0,0,1,1.2,1.206c.366.421.624.41,1.021,0,1.618-1.659,3.267-3.288,4.911-4.92a1.4,1.4,0,0,1,1.854-.3,1.3,1.3,0,0,1,.262,2.035c-2.038,2.075-4.105,4.121-6.176,6.162a1.791,1.791,0,0,1-1.426.521" transform="translate(-587.211 -41.256)"/>
          </g>
        </g>
      </g>
    </g>
  </g>
</svg>
