<svg xmlns="http://www.w3.org/2000/svg" width="151.44" height="32.01" viewBox="0 0 151.44 32.01">
  <path id="shipKRATE_Logo" d="M8.67.24a9.622,9.622,0,0,1-3.9-.75,6.661,6.661,0,0,1-2.7-2.055A5.405,5.405,0,0,1,.96-5.49H6.03a1.949,1.949,0,0,0,.81,1.41,2.866,2.866,0,0,0,1.77.54,2.526,2.526,0,0,0,1.485-.375,1.148,1.148,0,0,0,.525-.975,1.125,1.125,0,0,0-.75-1.065A15.152,15.152,0,0,0,7.44-6.72a22.814,22.814,0,0,1-3-.885,5.183,5.183,0,0,1-2.07-1.47A4.006,4.006,0,0,1,1.5-11.79a4.61,4.61,0,0,1,.8-2.625,5.353,5.353,0,0,1,2.34-1.875,8.96,8.96,0,0,1,3.675-.69,7.367,7.367,0,0,1,4.965,1.56,6.07,6.07,0,0,1,2.085,4.14H10.62a2.043,2.043,0,0,0-.765-1.38,2.653,2.653,0,0,0-1.695-.51,2.343,2.343,0,0,0-1.38.345,1.1,1.1,0,0,0-.48.945,1.154,1.154,0,0,0,.765,1.08,12.253,12.253,0,0,0,2.385.72,26.092,26.092,0,0,1,3.03.945,5.227,5.227,0,0,1,2.055,1.5A4.244,4.244,0,0,1,15.45-4.86a4.4,4.4,0,0,1-.825,2.625A5.456,5.456,0,0,1,12.255-.42,9.064,9.064,0,0,1,8.67.24ZM28.89-16.92a5.956,5.956,0,0,1,4.62,1.9A7.471,7.471,0,0,1,35.25-9.78V0h-5.1V-9.09a3.674,3.674,0,0,0-.87-2.61,3.051,3.051,0,0,0-2.34-.93,3.051,3.051,0,0,0-2.34.93,3.674,3.674,0,0,0-.87,2.61V0H18.6V-22.2h5.13v7.71a5.483,5.483,0,0,1,2.13-1.77A6.807,6.807,0,0,1,28.89-16.92ZM41.4-18.48a3.109,3.109,0,0,1-2.2-.8,2.576,2.576,0,0,1-.855-1.965,2.61,2.61,0,0,1,.855-2,3.109,3.109,0,0,1,2.2-.8,3.068,3.068,0,0,1,2.175.8,2.61,2.61,0,0,1,.855,2,2.576,2.576,0,0,1-.855,1.965A3.068,3.068,0,0,1,41.4-18.48Zm2.55,1.74V0H38.82V-16.74Zm8.85,2.37a5.569,5.569,0,0,1,2.07-1.89,6.354,6.354,0,0,1,3.09-.72,6.931,6.931,0,0,1,3.75,1.05,7.273,7.273,0,0,1,2.655,3A10,10,0,0,1,65.34-8.4a10.1,10.1,0,0,1-.975,4.545A7.359,7.359,0,0,1,61.71-.825,6.859,6.859,0,0,1,57.96.24a6.377,6.377,0,0,1-3.075-.72A5.637,5.637,0,0,1,52.8-2.34V7.98H47.67V-16.74H52.8ZM60.12-8.4a4.141,4.141,0,0,0-1.065-3.015,3.517,3.517,0,0,0-2.625-1.1,3.46,3.46,0,0,0-2.595,1.11A4.194,4.194,0,0,0,52.77-8.37a4.194,4.194,0,0,0,1.065,3.03A3.46,3.46,0,0,0,56.43-4.23a3.486,3.486,0,0,0,2.61-1.125A4.213,4.213,0,0,0,60.12-8.4ZM79.83,0,71.22-9.54V0H68.49V-20.91h2.73v9.69l8.64-9.69h3.45L73.83-10.44,83.4,0ZM97.47,0,92.49-8.55h-3.3V0H86.46V-20.91h6.75a8.961,8.961,0,0,1,4.005.81,5.64,5.64,0,0,1,2.445,2.19,6.106,6.106,0,0,1,.81,3.15,6.154,6.154,0,0,1-1.245,3.81A6.084,6.084,0,0,1,95.49-8.76L100.74,0ZM89.19-10.74h4.02a4.561,4.561,0,0,0,3.33-1.095,3.923,3.923,0,0,0,1.11-2.925,3.742,3.742,0,0,0-1.1-2.88,4.765,4.765,0,0,0-3.345-1.02H89.19Zm27.87,6.09h-9.12L106.26,0h-2.88l7.56-20.79h3.15L121.62,0h-2.88Zm-.78-2.22L112.5-17.43,108.72-6.87Zm21.51-14.04v2.22h-5.7V0h-2.73V-18.69h-5.73v-2.22Zm6.09,2.22v6.99h7.62v2.25h-7.62v7.2h8.52V0H141.15V-20.94H152.4v2.25Z" transform="translate(-0.96 24.03)" fill="#472078"/>
</svg>
