<svg xmlns="http://www.w3.org/2000/svg" width="682.471" height="323.408" viewBox="0 0 682.471 323.408">
  <g id="Group_379" data-name="Group 379" opacity="0.3">
    <path id="Path_4553" data-name="Path 4553" d="M637.478,132.412H400.537s23.491-64.465,59.65-64.465,47.479,44.495,47.479,44.495S532.062,88.26,552.1,88.26s37.461,31.948,37.461,31.948S617.877,103.021,637.478,132.412Z" transform="translate(-400.537 -67.947)" fill="#ebebeb"/>
    <path id="Path_4554" data-name="Path 4554" d="M478.439,159.127H367.71s24.745-36.014,44.218-36.014,25.253,24.009,25.253,24.009,13.756-11.2,26.5-9.2S478.439,159.127,478.439,159.127Z" transform="translate(-194.748 -58.648)" fill="#ebebeb" opacity="0.5"/>
    <g id="Group_197" data-name="Group 197" transform="translate(75.057 283.249)">
      <g id="Group_196" data-name="Group 196" transform="translate(0)">
        <g id="Group_195" data-name="Group 195">
          <rect id="Rectangle_447" data-name="Rectangle 447" width="35.61" height="40.159" transform="translate(104.12)" fill="#ebebeb"/>
          <rect id="Rectangle_448" data-name="Rectangle 448" width="28.966" height="34.197" transform="translate(107.443 2.981)" fill="#dbdbdb"/>
          <rect id="Rectangle_449" data-name="Rectangle 449" width="1.541" height="34.197" transform="translate(121.155 2.981)" fill="#c7c7c7"/>
          <g id="Group_191" data-name="Group 191">
            <rect id="Rectangle_450" data-name="Rectangle 450" width="104.12" height="40.159" fill="#dbdbdb"/>
          </g>
          <g id="Group_194" data-name="Group 194" transform="translate(3.216 2.981)">
            <g id="Group_192" data-name="Group 192" transform="translate(0)">
              <rect id="Rectangle_451" data-name="Rectangle 451" width="97.688" height="34.197" fill="#c7c7c7"/>
              <rect id="Rectangle_452" data-name="Rectangle 452" width="97.688" height="34.197" fill="#c7c7c7" opacity="0.1"/>
            </g>
            <g id="Group_193" data-name="Group 193" transform="translate(0)">
              <rect id="Rectangle_453" data-name="Rectangle 453" width="1.537" height="34.197" transform="translate(96.151)" fill="#a6a6a6"/>
              <rect id="Rectangle_454" data-name="Rectangle 454" width="1.537" height="34.197" transform="translate(92.945)" fill="#a6a6a6"/>
              <rect id="Rectangle_455" data-name="Rectangle 455" width="1.537" height="34.197" transform="translate(89.739)" fill="#a6a6a6"/>
              <rect id="Rectangle_456" data-name="Rectangle 456" width="1.537" height="34.197" transform="translate(86.537)" fill="#a6a6a6"/>
              <rect id="Rectangle_457" data-name="Rectangle 457" width="1.537" height="34.197" transform="translate(83.331)" fill="#a6a6a6"/>
              <rect id="Rectangle_458" data-name="Rectangle 458" width="1.537" height="34.197" transform="translate(80.125)" fill="#a6a6a6"/>
              <rect id="Rectangle_459" data-name="Rectangle 459" width="1.537" height="34.197" transform="translate(76.919)" fill="#a6a6a6"/>
              <rect id="Rectangle_460" data-name="Rectangle 460" width="1.537" height="34.197" transform="translate(73.717)" fill="#a6a6a6"/>
              <rect id="Rectangle_461" data-name="Rectangle 461" width="1.537" height="34.197" transform="translate(70.511)" fill="#a6a6a6"/>
              <rect id="Rectangle_462" data-name="Rectangle 462" width="1.537" height="34.197" transform="translate(67.305)" fill="#a6a6a6"/>
              <rect id="Rectangle_463" data-name="Rectangle 463" width="1.537" height="34.197" transform="translate(64.099)" fill="#a6a6a6"/>
              <rect id="Rectangle_464" data-name="Rectangle 464" width="1.537" height="34.197" transform="translate(60.893)" fill="#a6a6a6"/>
              <rect id="Rectangle_465" data-name="Rectangle 465" width="1.537" height="34.197" transform="translate(57.691)" fill="#a6a6a6"/>
              <rect id="Rectangle_466" data-name="Rectangle 466" width="1.537" height="34.197" transform="translate(54.485)" fill="#a6a6a6"/>
              <rect id="Rectangle_467" data-name="Rectangle 467" width="1.537" height="34.197" transform="translate(51.279)" fill="#a6a6a6"/>
              <rect id="Rectangle_468" data-name="Rectangle 468" width="1.537" height="34.197" transform="translate(48.074)" fill="#a6a6a6"/>
              <rect id="Rectangle_469" data-name="Rectangle 469" width="1.537" height="34.197" transform="translate(44.868)" fill="#a6a6a6"/>
              <rect id="Rectangle_470" data-name="Rectangle 470" width="1.537" height="34.197" transform="translate(41.665)" fill="#a6a6a6"/>
              <rect id="Rectangle_471" data-name="Rectangle 471" width="1.537" height="34.197" transform="translate(38.46)" fill="#a6a6a6"/>
              <rect id="Rectangle_472" data-name="Rectangle 472" width="1.537" height="34.197" transform="translate(35.254)" fill="#a6a6a6"/>
              <rect id="Rectangle_473" data-name="Rectangle 473" width="1.537" height="34.197" transform="translate(32.048)" fill="#a6a6a6"/>
              <rect id="Rectangle_474" data-name="Rectangle 474" width="1.537" height="34.197" transform="translate(28.846)" fill="#a6a6a6"/>
              <rect id="Rectangle_475" data-name="Rectangle 475" width="1.537" height="34.197" transform="translate(25.64)" fill="#a6a6a6"/>
              <rect id="Rectangle_476" data-name="Rectangle 476" width="1.537" height="34.197" transform="translate(22.434)" fill="#a6a6a6"/>
              <rect id="Rectangle_477" data-name="Rectangle 477" width="1.537" height="34.197" transform="translate(19.228)" fill="#a6a6a6"/>
              <rect id="Rectangle_478" data-name="Rectangle 478" width="1.537" height="34.197" transform="translate(16.022)" fill="#a6a6a6"/>
              <rect id="Rectangle_479" data-name="Rectangle 479" width="1.537" height="34.197" transform="translate(12.82)" fill="#a6a6a6"/>
              <rect id="Rectangle_480" data-name="Rectangle 480" width="1.537" height="34.197" transform="translate(9.614)" fill="#a6a6a6"/>
              <rect id="Rectangle_481" data-name="Rectangle 481" width="1.537" height="34.197" transform="translate(6.408)" fill="#a6a6a6"/>
              <rect id="Rectangle_482" data-name="Rectangle 482" width="1.537" height="34.197" transform="translate(3.202)" fill="#a6a6a6"/>
              <rect id="Rectangle_483" data-name="Rectangle 483" width="1.537" height="34.197" fill="#a6a6a6"/>
            </g>
          </g>
        </g>
      </g>
    </g>
    <g id="Group_204" data-name="Group 204" transform="translate(27.64 243.093)">
      <g id="Group_203" data-name="Group 203" transform="translate(0)">
        <g id="Group_202" data-name="Group 202">
          <rect id="Rectangle_484" data-name="Rectangle 484" width="35.61" height="40.159" transform="translate(104.12)" fill="#ebebeb"/>
          <rect id="Rectangle_485" data-name="Rectangle 485" width="28.966" height="34.197" transform="translate(107.443 2.981)" fill="#dbdbdb"/>
          <rect id="Rectangle_486" data-name="Rectangle 486" width="1.541" height="34.197" transform="translate(121.155 2.981)" fill="#c7c7c7"/>
          <g id="Group_198" data-name="Group 198">
            <rect id="Rectangle_487" data-name="Rectangle 487" width="104.12" height="40.159" fill="#dbdbdb"/>
          </g>
          <g id="Group_201" data-name="Group 201" transform="translate(3.213 2.981)">
            <g id="Group_199" data-name="Group 199" transform="translate(0.003)">
              <rect id="Rectangle_488" data-name="Rectangle 488" width="97.688" height="34.197" fill="#c7c7c7"/>
              <rect id="Rectangle_489" data-name="Rectangle 489" width="97.688" height="34.197" fill="#c7c7c7" opacity="0.1"/>
            </g>
            <g id="Group_200" data-name="Group 200" transform="translate(0)">
              <rect id="Rectangle_490" data-name="Rectangle 490" width="1.537" height="34.197" transform="translate(96.154)" fill="#a6a6a6"/>
              <rect id="Rectangle_491" data-name="Rectangle 491" width="1.537" height="34.197" transform="translate(92.948)" fill="#a6a6a6"/>
              <rect id="Rectangle_492" data-name="Rectangle 492" width="1.537" height="34.197" transform="translate(89.742)" fill="#a6a6a6"/>
              <rect id="Rectangle_493" data-name="Rectangle 493" width="1.537" height="34.197" transform="translate(86.54)" fill="#a6a6a6"/>
              <rect id="Rectangle_494" data-name="Rectangle 494" width="1.537" height="34.197" transform="translate(83.334)" fill="#a6a6a6"/>
              <rect id="Rectangle_495" data-name="Rectangle 495" width="1.537" height="34.197" transform="translate(80.128)" fill="#a6a6a6"/>
              <rect id="Rectangle_496" data-name="Rectangle 496" width="1.537" height="34.197" transform="translate(76.922)" fill="#a6a6a6"/>
              <rect id="Rectangle_497" data-name="Rectangle 497" width="1.537" height="34.197" transform="translate(73.72)" fill="#a6a6a6"/>
              <rect id="Rectangle_498" data-name="Rectangle 498" width="1.537" height="34.197" transform="translate(70.514)" fill="#a6a6a6"/>
              <rect id="Rectangle_499" data-name="Rectangle 499" width="1.537" height="34.197" transform="translate(67.308)" fill="#a6a6a6"/>
              <rect id="Rectangle_500" data-name="Rectangle 500" width="1.537" height="34.197" transform="translate(64.103)" fill="#a6a6a6"/>
              <rect id="Rectangle_501" data-name="Rectangle 501" width="1.537" height="34.197" transform="translate(60.897)" fill="#a6a6a6"/>
              <rect id="Rectangle_502" data-name="Rectangle 502" width="1.537" height="34.197" transform="translate(57.694)" fill="#a6a6a6"/>
              <rect id="Rectangle_503" data-name="Rectangle 503" width="1.537" height="34.197" transform="translate(54.489)" fill="#a6a6a6"/>
              <rect id="Rectangle_504" data-name="Rectangle 504" width="1.537" height="34.197" transform="translate(51.283)" fill="#a6a6a6"/>
              <rect id="Rectangle_505" data-name="Rectangle 505" width="1.537" height="34.197" transform="translate(48.077)" fill="#a6a6a6"/>
              <rect id="Rectangle_506" data-name="Rectangle 506" width="1.537" height="34.197" transform="translate(44.871)" fill="#a6a6a6"/>
              <rect id="Rectangle_507" data-name="Rectangle 507" width="1.537" height="34.197" transform="translate(41.669)" fill="#a6a6a6"/>
              <rect id="Rectangle_508" data-name="Rectangle 508" width="1.537" height="34.197" transform="translate(38.463)" fill="#a6a6a6"/>
              <rect id="Rectangle_509" data-name="Rectangle 509" width="1.537" height="34.197" transform="translate(35.257)" fill="#a6a6a6"/>
              <rect id="Rectangle_510" data-name="Rectangle 510" width="1.537" height="34.197" transform="translate(32.051)" fill="#a6a6a6"/>
              <rect id="Rectangle_511" data-name="Rectangle 511" width="1.537" height="34.197" transform="translate(28.849)" fill="#a6a6a6"/>
              <rect id="Rectangle_512" data-name="Rectangle 512" width="1.537" height="34.197" transform="translate(25.643)" fill="#a6a6a6"/>
              <rect id="Rectangle_513" data-name="Rectangle 513" width="1.537" height="34.197" transform="translate(22.437)" fill="#a6a6a6"/>
              <rect id="Rectangle_514" data-name="Rectangle 514" width="1.537" height="34.197" transform="translate(19.231)" fill="#a6a6a6"/>
              <rect id="Rectangle_515" data-name="Rectangle 515" width="1.537" height="34.197" transform="translate(16.026)" fill="#a6a6a6"/>
              <rect id="Rectangle_516" data-name="Rectangle 516" width="1.537" height="34.197" transform="translate(12.823)" fill="#a6a6a6"/>
              <rect id="Rectangle_517" data-name="Rectangle 517" width="1.537" height="34.197" transform="translate(9.617)" fill="#a6a6a6"/>
              <rect id="Rectangle_518" data-name="Rectangle 518" width="1.537" height="34.197" transform="translate(6.412)" fill="#a6a6a6"/>
              <rect id="Rectangle_519" data-name="Rectangle 519" width="1.537" height="34.197" transform="translate(3.206)" fill="#a6a6a6"/>
              <rect id="Rectangle_520" data-name="Rectangle 520" width="1.537" height="34.197" fill="#a6a6a6"/>
            </g>
          </g>
        </g>
      </g>
    </g>
    <g id="Group_211" data-name="Group 211" transform="translate(32.614 283.249)">
      <g id="Group_210" data-name="Group 210" transform="translate(0)">
        <g id="Group_209" data-name="Group 209">
          <rect id="Rectangle_521" data-name="Rectangle 521" width="35.61" height="40.159" transform="translate(104.12)" fill="#ebebeb"/>
          <rect id="Rectangle_522" data-name="Rectangle 522" width="28.966" height="34.197" transform="translate(107.44 2.981)" fill="#dbdbdb"/>
          <rect id="Rectangle_523" data-name="Rectangle 523" width="1.541" height="34.197" transform="translate(121.155 2.981)" fill="#c7c7c7"/>
          <g id="Group_205" data-name="Group 205">
            <rect id="Rectangle_524" data-name="Rectangle 524" width="104.12" height="40.159" fill="#dbdbdb"/>
          </g>
          <g id="Group_208" data-name="Group 208" transform="translate(3.213 2.981)">
            <g id="Group_206" data-name="Group 206" transform="translate(0.003)">
              <rect id="Rectangle_525" data-name="Rectangle 525" width="97.688" height="34.197" fill="#c7c7c7"/>
              <rect id="Rectangle_526" data-name="Rectangle 526" width="97.688" height="34.197" fill="#c7c7c7" opacity="0.1"/>
            </g>
            <g id="Group_207" data-name="Group 207" transform="translate(0)">
              <rect id="Rectangle_527" data-name="Rectangle 527" width="1.537" height="34.197" transform="translate(96.154)" fill="#a6a6a6"/>
              <rect id="Rectangle_528" data-name="Rectangle 528" width="1.537" height="34.197" transform="translate(92.948)" fill="#a6a6a6"/>
              <rect id="Rectangle_529" data-name="Rectangle 529" width="1.537" height="34.197" transform="translate(89.742)" fill="#a6a6a6"/>
              <rect id="Rectangle_530" data-name="Rectangle 530" width="1.537" height="34.197" transform="translate(86.54)" fill="#a6a6a6"/>
              <rect id="Rectangle_531" data-name="Rectangle 531" width="1.537" height="34.197" transform="translate(83.334)" fill="#a6a6a6"/>
              <rect id="Rectangle_532" data-name="Rectangle 532" width="1.537" height="34.197" transform="translate(80.128)" fill="#a6a6a6"/>
              <rect id="Rectangle_533" data-name="Rectangle 533" width="1.537" height="34.197" transform="translate(76.922)" fill="#a6a6a6"/>
              <rect id="Rectangle_534" data-name="Rectangle 534" width="1.537" height="34.197" transform="translate(73.72)" fill="#a6a6a6"/>
              <rect id="Rectangle_535" data-name="Rectangle 535" width="1.537" height="34.197" transform="translate(70.514)" fill="#a6a6a6"/>
              <rect id="Rectangle_536" data-name="Rectangle 536" width="1.537" height="34.197" transform="translate(67.308)" fill="#a6a6a6"/>
              <rect id="Rectangle_537" data-name="Rectangle 537" width="1.537" height="34.197" transform="translate(64.103)" fill="#a6a6a6"/>
              <rect id="Rectangle_538" data-name="Rectangle 538" width="1.537" height="34.197" transform="translate(60.897)" fill="#a6a6a6"/>
              <rect id="Rectangle_539" data-name="Rectangle 539" width="1.537" height="34.197" transform="translate(57.694)" fill="#a6a6a6"/>
              <rect id="Rectangle_540" data-name="Rectangle 540" width="1.537" height="34.197" transform="translate(54.489)" fill="#a6a6a6"/>
              <rect id="Rectangle_541" data-name="Rectangle 541" width="1.537" height="34.197" transform="translate(51.283)" fill="#a6a6a6"/>
              <rect id="Rectangle_542" data-name="Rectangle 542" width="1.537" height="34.197" transform="translate(48.077)" fill="#a6a6a6"/>
              <rect id="Rectangle_543" data-name="Rectangle 543" width="1.537" height="34.197" transform="translate(44.871)" fill="#a6a6a6"/>
              <rect id="Rectangle_544" data-name="Rectangle 544" width="1.537" height="34.197" transform="translate(41.669)" fill="#a6a6a6"/>
              <rect id="Rectangle_545" data-name="Rectangle 545" width="1.537" height="34.197" transform="translate(38.463)" fill="#a6a6a6"/>
              <rect id="Rectangle_546" data-name="Rectangle 546" width="1.537" height="34.197" transform="translate(35.257)" fill="#a6a6a6"/>
              <rect id="Rectangle_547" data-name="Rectangle 547" width="1.537" height="34.197" transform="translate(32.051)" fill="#a6a6a6"/>
              <rect id="Rectangle_548" data-name="Rectangle 548" width="1.537" height="34.197" transform="translate(28.849)" fill="#a6a6a6"/>
              <rect id="Rectangle_549" data-name="Rectangle 549" width="1.537" height="34.197" transform="translate(25.643)" fill="#a6a6a6"/>
              <rect id="Rectangle_550" data-name="Rectangle 550" width="1.537" height="34.197" transform="translate(22.437)" fill="#a6a6a6"/>
              <rect id="Rectangle_551" data-name="Rectangle 551" width="1.537" height="34.197" transform="translate(19.231)" fill="#a6a6a6"/>
              <rect id="Rectangle_552" data-name="Rectangle 552" width="1.537" height="34.197" transform="translate(16.026)" fill="#a6a6a6"/>
              <rect id="Rectangle_553" data-name="Rectangle 553" width="1.537" height="34.197" transform="translate(12.823)" fill="#a6a6a6"/>
              <rect id="Rectangle_554" data-name="Rectangle 554" width="1.537" height="34.197" transform="translate(9.617)" fill="#a6a6a6"/>
              <rect id="Rectangle_555" data-name="Rectangle 555" width="1.537" height="34.197" transform="translate(6.412)" fill="#a6a6a6"/>
              <rect id="Rectangle_556" data-name="Rectangle 556" width="1.537" height="34.197" transform="translate(3.206)" fill="#a6a6a6"/>
              <rect id="Rectangle_557" data-name="Rectangle 557" width="1.537" height="34.197" fill="#a6a6a6"/>
            </g>
          </g>
        </g>
      </g>
    </g>
    <g id="Group_238" data-name="Group 238" transform="translate(157.161 5.589)">
      <g id="Group_232" data-name="Group 232" transform="translate(333.426 137.208)">
        <path id="Path_4560" data-name="Path 4560" d="M282.607,181.281c-4.743-2.131-9.5-4.228-14.291-6.242s-9.559-4.087-14.385-6.007l-14.447-5.873-14.509-5.669-3.375-1.316,2.518,2.594c3.724,3.838,7.555,7.572,11.348,11.345s7.655,7.476,11.542,11.158c-3.555-4-7.13-7.987-10.785-11.894s-7.255-7.859-10.979-11.7l-.853,1.275,14.447,5.855,14.509,5.662c4.836,1.921,9.721,3.676,14.582,5.527S277.692,179.567,282.607,181.281Z" transform="translate(-142.874 -156.076)" fill="#263238"/>
        <path id="Path_4561" data-name="Path 4561" d="M254.683,181.34c4.912-1.727,9.807-3.455,14.675-5.285s9.752-3.6,14.582-5.527l14.509-5.665,14.45-5.848-.846-1.3c-3.9,3.845-7.7,7.79-11.531,11.707s-7.6,7.894-11.341,11.9c4.069-3.676,8.115-7.372,12.091-11.144s7.987-7.5,11.894-11.341l2.764-2.708-3.6,1.41-14.509,5.676-14.443,5.873c-4.836,1.921-9.59,4.011-14.385,6.011S259.426,179.208,254.683,181.34Z" transform="translate(-254.683 -156.132)" fill="#263238"/>
        <g id="Group_231" data-name="Group 231" transform="translate(0 25.204)">
          <rect id="Rectangle_632" data-name="Rectangle 632" width="35.61" height="40.159" transform="translate(104.12)" fill="#ffc727"/>
          <rect id="Rectangle_633" data-name="Rectangle 633" width="35.61" height="40.159" transform="translate(104.12)" fill="#fffefd" opacity="0.5"/>
          <rect id="Rectangle_634" data-name="Rectangle 634" width="28.966" height="34.197" transform="translate(107.44 2.981)" fill="#ffc727" opacity="0.5"/>
          <rect id="Rectangle_635" data-name="Rectangle 635" width="1.541" height="34.197" transform="translate(121.155 2.981)" fill="#ffc727" opacity="0.5"/>
          <g id="Group_227" data-name="Group 227">
            <rect id="Rectangle_636" data-name="Rectangle 636" width="104.12" height="40.159" fill="#ffc727"/>
            <rect id="Rectangle_637" data-name="Rectangle 637" width="104.12" height="40.159" fill="#fffefd" opacity="0.4"/>
          </g>
          <g id="Group_230" data-name="Group 230" transform="translate(3.216 2.981)">
            <g id="Group_228" data-name="Group 228" transform="translate(0)" opacity="0.7">
              <rect id="Rectangle_638" data-name="Rectangle 638" width="97.688" height="34.197" fill="#ffc727"/>
            </g>
            <g id="Group_229" data-name="Group 229" transform="translate(0)" opacity="0.1">
              <rect id="Rectangle_639" data-name="Rectangle 639" width="1.537" height="34.197" transform="translate(96.151)"/>
              <rect id="Rectangle_640" data-name="Rectangle 640" width="1.537" height="34.197" transform="translate(92.945)"/>
              <rect id="Rectangle_641" data-name="Rectangle 641" width="1.537" height="34.197" transform="translate(89.739)"/>
              <rect id="Rectangle_642" data-name="Rectangle 642" width="1.537" height="34.197" transform="translate(86.537)"/>
              <rect id="Rectangle_643" data-name="Rectangle 643" width="1.537" height="34.197" transform="translate(83.331)"/>
              <rect id="Rectangle_644" data-name="Rectangle 644" width="1.537" height="34.197" transform="translate(80.125)"/>
              <rect id="Rectangle_645" data-name="Rectangle 645" width="1.537" height="34.197" transform="translate(76.919)"/>
              <rect id="Rectangle_646" data-name="Rectangle 646" width="1.537" height="34.197" transform="translate(73.717)"/>
              <rect id="Rectangle_647" data-name="Rectangle 647" width="1.537" height="34.197" transform="translate(70.511)"/>
              <rect id="Rectangle_648" data-name="Rectangle 648" width="1.537" height="34.197" transform="translate(67.305)"/>
              <rect id="Rectangle_649" data-name="Rectangle 649" width="1.537" height="34.197" transform="translate(64.099)"/>
              <rect id="Rectangle_650" data-name="Rectangle 650" width="1.537" height="34.197" transform="translate(60.893)"/>
              <rect id="Rectangle_651" data-name="Rectangle 651" width="1.537" height="34.197" transform="translate(57.691)"/>
              <rect id="Rectangle_652" data-name="Rectangle 652" width="1.537" height="34.197" transform="translate(54.485)"/>
              <rect id="Rectangle_653" data-name="Rectangle 653" width="1.537" height="34.197" transform="translate(51.279)"/>
              <rect id="Rectangle_654" data-name="Rectangle 654" width="1.537" height="34.197" transform="translate(48.074)"/>
              <rect id="Rectangle_655" data-name="Rectangle 655" width="1.537" height="34.197" transform="translate(44.868)"/>
              <rect id="Rectangle_656" data-name="Rectangle 656" width="1.537" height="34.197" transform="translate(41.665)"/>
              <rect id="Rectangle_657" data-name="Rectangle 657" width="1.537" height="34.197" transform="translate(38.46)"/>
              <rect id="Rectangle_658" data-name="Rectangle 658" width="1.537" height="34.197" transform="translate(35.254)"/>
              <rect id="Rectangle_659" data-name="Rectangle 659" width="1.537" height="34.197" transform="translate(32.048)"/>
              <rect id="Rectangle_660" data-name="Rectangle 660" width="1.537" height="34.197" transform="translate(28.846)"/>
              <rect id="Rectangle_661" data-name="Rectangle 661" width="1.537" height="34.197" transform="translate(25.64)"/>
              <rect id="Rectangle_662" data-name="Rectangle 662" width="1.537" height="34.197" transform="translate(22.434)"/>
              <rect id="Rectangle_663" data-name="Rectangle 663" width="1.537" height="34.197" transform="translate(19.228)"/>
              <rect id="Rectangle_664" data-name="Rectangle 664" width="1.537" height="34.197" transform="translate(16.022)"/>
              <rect id="Rectangle_665" data-name="Rectangle 665" width="1.537" height="34.197" transform="translate(12.82)"/>
              <rect id="Rectangle_666" data-name="Rectangle 666" width="1.537" height="34.197" transform="translate(9.614)"/>
              <rect id="Rectangle_667" data-name="Rectangle 667" width="1.537" height="34.197" transform="translate(6.408)"/>
              <rect id="Rectangle_668" data-name="Rectangle 668" width="1.537" height="34.197" transform="translate(3.202)"/>
              <rect id="Rectangle_669" data-name="Rectangle 669" width="1.537" height="34.197"/>
            </g>
          </g>
        </g>
      </g>
      <g id="Group_233" data-name="Group 233" transform="translate(103.312)">
        <path id="Path_4562" data-name="Path 4562" d="M513.176,222.762l2-2.7L350.757,98.295,277.175,219.66l2.874,1.727,71.675-118.2Z" transform="translate(-277.175 -98.295)" fill="#a6a6a6"/>
        <path id="Path_4563" data-name="Path 4563" d="M336.837,221.307l27.142-108.763,26.583,106.528,3.261-.815L363.979,98.667l-30.4,121.825Z" transform="translate(-289.634 -97.786)" fill="#a6a6a6"/>
      </g>
      <g id="Group_234" data-name="Group 234" transform="translate(144.697 101.757)">
        <rect id="Rectangle_670" data-name="Rectangle 670" width="8.381" height="216.051" transform="translate(56.983 0.003)" fill="#c7c7c7"/>
        <rect id="Rectangle_671" data-name="Rectangle 671" width="8.381" height="216.051" transform="translate(0 0.003)" fill="#c7c7c7"/>
        <rect id="Rectangle_672" data-name="Rectangle 672" width="8.381" height="65.364" transform="translate(65.364 0.003) rotate(90)" fill="#c7c7c7"/>
        <rect id="Rectangle_673" data-name="Rectangle 673" width="8.381" height="65.364" transform="translate(65.364 111.737) rotate(90)" fill="#c7c7c7"/>
        <rect id="Rectangle_674" data-name="Rectangle 674" width="8.381" height="65.364" transform="translate(65.364 196.933) rotate(90)" fill="#c7c7c7"/>
        <path id="Path_4564" data-name="Path 4564" d="M397.863,255.437v-8.381L332.5,141.188v8.381Z" transform="translate(-332.497 -141.188)" fill="#c7c7c7"/>
      </g>
      <g id="Group_235" data-name="Group 235" transform="translate(72.069 101.757)">
        <rect id="Rectangle_675" data-name="Rectangle 675" width="8.381" height="216.051" transform="translate(56.983 0.003)" fill="#b8bfc2"/>
        <rect id="Rectangle_676" data-name="Rectangle 676" width="8.381" height="216.051" transform="translate(0 0.003)" fill="#b8bfc2"/>
        <rect id="Rectangle_677" data-name="Rectangle 677" width="8.381" height="65.364" transform="translate(65.364 0.003) rotate(90)" fill="#a6a6a6"/>
        <rect id="Rectangle_678" data-name="Rectangle 678" width="8.381" height="65.364" transform="translate(65.364 111.737) rotate(90)" fill="#b8bfc2"/>
        <rect id="Rectangle_679" data-name="Rectangle 679" width="8.381" height="65.364" transform="translate(65.364 196.933) rotate(90)" fill="#b8bfc2"/>
        <path id="Path_4565" data-name="Path 4565" d="M428.478,255.437v-8.381L363.114,141.188v8.381Z" transform="translate(-363.114 -141.188)" fill="#b8bfc2"/>
      </g>
      <g id="Group_237" data-name="Group 237" transform="translate(0 116.228)">
        <path id="Path_4566" data-name="Path 4566" d="M238.068,158.128H653.16l19-10.056H238.068Z" transform="translate(-238.068 -146.21)" fill="#b8bfc2"/>
        <rect id="Rectangle_680" data-name="Rectangle 680" width="13.78" height="1.862" transform="translate(381.756)" fill="#b8bfc2"/>
        <rect id="Rectangle_681" data-name="Rectangle 681" width="13.78" height="1.862" transform="translate(354.941)" fill="#b8bfc2"/>
        <rect id="Rectangle_682" data-name="Rectangle 682" width="13.78" height="1.862" transform="translate(328.124)" fill="#b8bfc2"/>
        <rect id="Rectangle_683" data-name="Rectangle 683" width="13.78" height="1.862" transform="translate(301.309)" fill="#b8bfc2"/>
        <rect id="Rectangle_684" data-name="Rectangle 684" width="13.78" height="1.862" transform="translate(274.492)" fill="#b8bfc2"/>
        <rect id="Rectangle_685" data-name="Rectangle 685" width="13.78" height="1.862" transform="translate(247.678)" fill="#b8bfc2"/>
        <rect id="Rectangle_686" data-name="Rectangle 686" width="13.78" height="1.862" transform="translate(220.86)" fill="#b8bfc2"/>
        <rect id="Rectangle_687" data-name="Rectangle 687" width="13.78" height="1.862" transform="translate(194.046)" fill="#b8bfc2"/>
        <rect id="Rectangle_688" data-name="Rectangle 688" width="13.78" height="1.862" transform="translate(167.228)" fill="#b8bfc2"/>
        <rect id="Rectangle_689" data-name="Rectangle 689" width="13.78" height="1.862" transform="translate(140.414)" fill="#b8bfc2"/>
        <rect id="Rectangle_690" data-name="Rectangle 690" width="13.78" height="1.862" transform="translate(113.596)" fill="#b8bfc2"/>
        <rect id="Rectangle_691" data-name="Rectangle 691" width="13.78" height="1.862" transform="translate(86.782)" fill="#b8bfc2"/>
        <rect id="Rectangle_692" data-name="Rectangle 692" width="13.78" height="1.862" transform="translate(59.964)" fill="#b8bfc2"/>
        <rect id="Rectangle_693" data-name="Rectangle 693" width="13.78" height="1.862" transform="translate(33.15)" fill="#b8bfc2"/>
        <rect id="Rectangle_694" data-name="Rectangle 694" width="13.78" height="1.862" transform="translate(6.332)" fill="#b8bfc2"/>
        <g id="Group_236" data-name="Group 236" transform="translate(391.363 11.918)">
          <rect id="Rectangle_695" data-name="Rectangle 695" width="23.861" height="3.613" transform="translate(0 6.484)" fill="#a6a6a6"/>
          <rect id="Rectangle_696" data-name="Rectangle 696" width="0.877" height="6.484" transform="translate(14.081)" fill="#a6a6a6"/>
          <rect id="Rectangle_697" data-name="Rectangle 697" width="0.877" height="6.484" transform="translate(8.902)" fill="#a6a6a6"/>
        </g>
      </g>
      <rect id="Rectangle_698" data-name="Rectangle 698" width="98.79" height="27.374" transform="translate(41.624 85.127)" fill="#b8bfc2"/>
    </g>
    <g id="Birds" transform="translate(118.481 83.088)">
      <g id="Group_363" data-name="Group 363" transform="translate(0 0)">
        <path id="Path_4591" data-name="Path 4591" d="M408,167.4a34.9,34.9,0,0,1,4.373-1.872,18.331,18.331,0,0,1,4.767-1.1,4.088,4.088,0,0,1,1.482.162,2.169,2.169,0,0,1,.456.218c.121.076.194.138.29.207.193.138.346.28.511.421a22.792,22.792,0,0,1,1.727,1.755c1.074,1.206,2.031,2.463,2.988,3.755l-1.185-.414a36.107,36.107,0,0,1,4.867-1.036,20.2,20.2,0,0,1,2.539-.18,8.975,8.975,0,0,1,1.354.1,4.936,4.936,0,0,1,.725.176,5.65,5.65,0,0,1,.729.345,8.512,8.512,0,0,1,1.921,1.845,23.4,23.4,0,0,1,1.437,2.035,31.375,31.375,0,0,1,2.266,4.342c-1.036-1.254-2.056-2.512-3.13-3.7a23.239,23.239,0,0,0-1.634-1.707,7.908,7.908,0,0,0-1.727-1.33,4.431,4.431,0,0,0-1.907-.186,17.957,17.957,0,0,0-2.273.311c-1.527.273-3.085.656-4.584,1.061l-.753.207-.432-.622c-.874-1.254-1.827-2.494-2.764-3.689a20.709,20.709,0,0,0-1.468-1.693,4.83,4.83,0,0,0-.373-.345l-.173-.149c-.021,0,0-.028-.073-.048a2.42,2.42,0,0,0-.836-.166,23.271,23.271,0,0,0-4.491.439C411.091,166.794,409.554,167.109,408,167.4Z" transform="translate(-369.613 -85.062)" fill="#263238"/>
        <path id="Path_4592" data-name="Path 4592" d="M393.237,189.448a52.751,52.751,0,0,1,5.873-4.028,27.55,27.55,0,0,1,6.684-3.005,6.119,6.119,0,0,1,2.221-.193,3.293,3.293,0,0,1,.732.183c.2.079.325.148.491.224.328.145.587.307.874.466a33.181,33.181,0,0,1,3.06,2.073c1.935,1.458,3.7,3.026,5.486,4.646l-1.862-.266a54.338,54.338,0,0,1,6.854-2.926,29.922,29.922,0,0,1,3.683-1,13.432,13.432,0,0,1,2.018-.252,7.26,7.26,0,0,1,1.119.048,8.21,8.21,0,0,1,1.171.3A12.874,12.874,0,0,1,435,187.859a35.3,35.3,0,0,1,2.7,2.57,46.651,46.651,0,0,1,4.6,5.721c-1.9-1.534-3.752-3.092-5.676-4.518a35.255,35.255,0,0,0-2.9-2.031,11.821,11.821,0,0,0-2.905-1.458,6.609,6.609,0,0,0-2.857.283,27.272,27.272,0,0,0-3.247,1.116c-2.166.85-4.346,1.862-6.432,2.9l-1.036.518-.815-.784c-1.655-1.589-3.413-3.137-5.154-4.612a30.811,30.811,0,0,0-2.653-2.073c-.218-.138-.446-.3-.653-.4l-.3-.169c-.031,0-.031-.038-.117-.048a3.587,3.587,0,0,0-1.275,0,34.769,34.769,0,0,0-6.484,1.959C397.607,187.652,395.452,188.571,393.237,189.448Z" transform="translate(-337.657 -60.651)" fill="#263238"/>
        <path id="Path_4593" data-name="Path 4593" d="M199.617,142.564A34.542,34.542,0,0,1,203.624,140a18.413,18.413,0,0,1,4.525-1.865,4.089,4.089,0,0,1,1.489-.079,2.048,2.048,0,0,1,.484.138c.131.055.214.1.321.159a4.506,4.506,0,0,1,.573.346,22.3,22.3,0,0,1,2,1.451c1.257,1.012,2.418,2.1,3.562,3.216l-1.237-.214a36.253,36.253,0,0,1,4.633-1.807,19.988,19.988,0,0,1,2.48-.594,9.047,9.047,0,0,1,1.351-.124,4.837,4.837,0,0,1,.746.055,5.181,5.181,0,0,1,.774.221,8.594,8.594,0,0,1,2.2,1.5,24.183,24.183,0,0,1,1.751,1.772,31.746,31.746,0,0,1,2.944,3.914c-1.237-1.064-2.436-2.142-3.693-3.133-.618-.5-1.247-.991-1.893-1.42a7.9,7.9,0,0,0-1.907-1.036,4.413,4.413,0,0,0-1.91.128,17.967,17.967,0,0,0-2.194.691c-1.465.522-2.94,1.15-4.353,1.8l-.691.325-.529-.542c-1.068-1.1-2.207-2.166-3.337-3.185a20,20,0,0,0-1.727-1.43c-.145-.1-.29-.211-.428-.287l-.193-.117c-.021,0-.021-.028-.079-.035a2.386,2.386,0,0,0-.853-.028,23.181,23.181,0,0,0-4.367,1.171C202.567,141.458,201.109,142.025,199.617,142.564Z" transform="translate(331.772 -121.276)" fill="#263238"/>
        <path id="Path_4594" data-name="Path 4594" d="M209.186,145.946a52.637,52.637,0,0,1,4.418-5.593,27.439,27.439,0,0,1,5.489-4.857,6.164,6.164,0,0,1,2.073-.843,3.421,3.421,0,0,1,.753-.041,3.588,3.588,0,0,1,.535.069c.345.041.653.121.974.187a33.3,33.3,0,0,1,3.541,1.071c2.277.819,4.432,1.793,6.615,2.809l-1.859.3a54.263,54.263,0,0,1,5.676-4.836,29.792,29.792,0,0,1,3.22-2.055,13.644,13.644,0,0,1,1.852-.84,7.042,7.042,0,0,1,1.081-.287,8.444,8.444,0,0,1,1.209-.066A12.846,12.846,0,0,1,248.613,132a35.942,35.942,0,0,1,3.344,1.648,46.969,46.969,0,0,1,6.09,4.1c-2.273-.9-4.491-1.838-6.764-2.625a35.027,35.027,0,0,0-3.375-1.081,11.884,11.884,0,0,0-3.206-.529,6.647,6.647,0,0,0-2.643,1.116,26.943,26.943,0,0,0-2.764,2.035c-1.814,1.451-3.6,3.068-5.279,4.677l-.843.808-1.012-.5c-2.049-1.036-4.183-1.983-6.291-2.874a30.932,30.932,0,0,0-3.14-1.178c-.249-.066-.518-.155-.746-.193l-.345-.073c-.031,0-.041-.028-.124,0a3.582,3.582,0,0,0-1.219.38,34.74,34.74,0,0,0-5.607,3.8C212.827,142.93,211.017,144.447,209.186,145.946Z" transform="translate(283.246 -130.963)" fill="#263238"/>
        <path id="Path_4595" data-name="Path 4595" d="M416.757,189.111a52.3,52.3,0,0,1,4.418-5.593,27.514,27.514,0,0,1,5.489-4.857,6.163,6.163,0,0,1,2.073-.843,3.292,3.292,0,0,1,.753-.041,3.585,3.585,0,0,1,.536.069c.345.041.653.121.974.187a33.48,33.48,0,0,1,3.537,1.071c2.277.819,4.432,1.789,6.616,2.809l-1.858.3a54.55,54.55,0,0,1,5.676-4.836,30.085,30.085,0,0,1,3.22-2.052,13.68,13.68,0,0,1,1.852-.839,7.318,7.318,0,0,1,1.085-.287,8.376,8.376,0,0,1,1.206-.066,12.851,12.851,0,0,1,3.848,1.037,35.661,35.661,0,0,1,3.344,1.648,46.977,46.977,0,0,1,6.091,4.1c-2.27-.9-4.491-1.838-6.764-2.625a35,35,0,0,0-3.375-1.081,11.866,11.866,0,0,0-3.206-.529,6.653,6.653,0,0,0-2.646,1.116,26.865,26.865,0,0,0-2.764,2.035c-1.817,1.451-3.6,3.068-5.282,4.677l-.843.8-1.012-.5c-2.049-1.036-4.187-1.983-6.291-2.874a30.958,30.958,0,0,0-3.144-1.178c-.249-.066-.518-.155-.746-.193l-.346-.073c-.035,0-.042-.028-.128,0a3.579,3.579,0,0,0-1.219.38,34.72,34.72,0,0,0-5.607,3.8C420.388,186.1,418.595,187.615,416.757,189.111Z" transform="translate(-416.757 -71.721)" fill="#263238"/>
      </g>
    </g>
  </g>
</svg>
