<svg xmlns="http://www.w3.org/2000/svg" width="44.659" height="44.659" viewBox="0 0 44.659 44.659">
  <path id="Subtraction_5" data-name="Subtraction 5" d="M38.374,44.659H6.286A6.286,6.286,0,0,1,0,38.374V6.286A6.286,6.286,0,0,1,6.286,0H38.374a6.286,6.286,0,0,1,6.286,6.286V38.374a6.286,6.286,0,0,1-6.286,6.286ZM22.264,6.939c-4.167,0-4.714.018-6.358.093a11.4,11.4,0,0,0-3.743.717,7.886,7.886,0,0,0-4.51,4.51A11.4,11.4,0,0,0,6.936,16c-.075,1.645-.093,2.191-.093,6.358s.018,4.713.093,6.358a11.4,11.4,0,0,0,.717,3.743,7.886,7.886,0,0,0,4.51,4.51,11.4,11.4,0,0,0,3.743.717c1.646.075,2.193.093,6.358.093s4.712-.018,6.358-.093a11.4,11.4,0,0,0,3.743-.717,7.885,7.885,0,0,0,4.51-4.51,11.4,11.4,0,0,0,.717-3.743c.075-1.644.093-2.191.093-6.358s-.018-4.714-.093-6.358a11.4,11.4,0,0,0-.717-3.743,7.885,7.885,0,0,0-4.51-4.51,11.4,11.4,0,0,0-3.743-.717C26.977,6.957,26.431,6.939,22.264,6.939Zm0,28.063c-4.118,0-4.605-.016-6.231-.09a8.532,8.532,0,0,1-2.863-.531,5.107,5.107,0,0,1-2.927-2.927,8.532,8.532,0,0,1-.531-2.863c-.074-1.624-.09-2.112-.09-6.231s.016-4.607.09-6.231a8.531,8.531,0,0,1,.531-2.863,5.107,5.107,0,0,1,2.927-2.927,8.534,8.534,0,0,1,2.863-.531c1.626-.074,2.114-.09,6.231-.09s4.605.016,6.231.09a8.534,8.534,0,0,1,2.863.531,5.107,5.107,0,0,1,2.927,2.927,8.529,8.529,0,0,1,.531,2.863c.074,1.626.09,2.114.09,6.231s-.016,4.605-.09,6.231a8.53,8.53,0,0,1-.531,2.863,5.107,5.107,0,0,1-2.927,2.927,8.533,8.533,0,0,1-2.863.531C26.869,34.987,26.381,35,22.264,35Zm0-20.561a7.977,7.977,0,0,0-1.6.161,7.876,7.876,0,0,0-2.832,1.192,7.942,7.942,0,0,0-2.869,3.484,7.879,7.879,0,0,0-.461,1.486,8,8,0,0,0,0,3.192A7.875,7.875,0,0,0,15.7,26.788a7.942,7.942,0,0,0,3.484,2.869,7.879,7.879,0,0,0,1.486.461,8,8,0,0,0,3.192,0,7.875,7.875,0,0,0,2.832-1.192,7.942,7.942,0,0,0,2.869-3.484,7.879,7.879,0,0,0,.461-1.486,8,8,0,0,0,0-3.192,7.876,7.876,0,0,0-1.192-2.832,7.942,7.942,0,0,0-3.484-2.869A7.878,7.878,0,0,0,23.86,14.6,7.977,7.977,0,0,0,22.264,14.441ZM30.5,12.278a1.845,1.845,0,1,0,.72.145A1.839,1.839,0,0,0,30.5,12.278ZM22.264,27.5a5.124,5.124,0,1,1,2-.4A5.108,5.108,0,0,1,22.264,27.5Z" fill="#fff"/>
</svg>
