<svg xmlns="http://www.w3.org/2000/svg" xmlns:xlink="http://www.w3.org/1999/xlink" width="168.947" height="78.182" viewBox="0 0 168.947 78.182">
  <defs>
    <clipPath id="clip-path">
      <rect id="Rectangle_57164" data-name="Rectangle 57164" width="166.09" height="33.707" fill="#8540d6"/>
    </clipPath>
  </defs>
  <g id="Group_122604" data-name="Group 122604" transform="translate(9.291) rotate(16)">
    <g id="Group_122602" data-name="Group 122602" transform="translate(0 0)" clip-path="url(#clip-path)">
      <path id="Path_267467" data-name="Path 267467" d="M93.467,1.626a147.345,147.345,0,0,0-48.159.747A105.819,105.819,0,0,0,15.287,12.432c-4.745,2.491-9.6,4.792-14.169,7.607-1.883.88-1.094,3.571.21,4.63,4.894-1.349,9.483-3.563,14.222-5.339a225.421,225.421,0,0,1,24.123-7.951,151.06,151.06,0,0,1,40.288-4.02c15.548.353,30.874,3.253,46.09,6.242,8.1,1.564,16.139,3.494,24.193,5.305a21.494,21.494,0,0,0,2.447.33c.512-2.222-2.06-3.065-3.646-3.734C131.136,8.753,112.375,4.426,93.467,1.626" transform="translate(13.333 0)" fill="#8540d6"/>
      <path id="Path_267468" data-name="Path 267468" d="M159.868,4.409c.581-1.19.255-3.371-1.553-2.668a80.04,80.04,0,0,0-16.6,9.677C137,14.976,132.119,19.236,130.65,25.21c-.587,1.849-.329,4.422,1.7,5.259,3.281,1.424,6.919,1.7,10.422,2.19a143.093,143.093,0,0,0,18.141,1.017,9.68,9.68,0,0,0,4.294-.887c.8-.519.74-1.6.886-2.423-1.753-1.346-4.045-1.342-6.135-1.674-6.625-.781-13.255-1.562-19.848-2.591a20.576,20.576,0,0,1-6.2-1.709c2.132-3.666,5.349-6.523,8.676-9.077a55.99,55.99,0,0,1,12.986-7.4c1.718-.7,3.883-1.432,4.3-3.507" transform="translate(-130.375 0)" fill="#8540d6"/>
    </g>
  </g>
</svg>
