<svg xmlns="http://www.w3.org/2000/svg" width="44.659" height="44.659" viewBox="0 0 44.659 44.659">
  <path id="Path_267342" data-name="Path 267342" d="M38.64.965H6.552A6.286,6.286,0,0,0,.266,7.251V39.339a6.286,6.286,0,0,0,6.286,6.286H38.64a6.286,6.286,0,0,0,6.286-6.286V7.251A6.286,6.286,0,0,0,38.64.965ZM15.155,36.648a1.1,1.1,0,0,1-.223.505,1.062,1.062,0,0,1-.505.223H9.262a1.056,1.056,0,0,1-.5-.223,1.064,1.064,0,0,1-.226-.505V18.522a1.085,1.085,0,0,1,.223-.5,1.064,1.064,0,0,1,.505-.226h5.164a1.085,1.085,0,0,1,.5.223,1.064,1.064,0,0,1,.226.505Zm-.84-21.942a3.361,3.361,0,0,1-2.47,1.01,3.425,3.425,0,0,1-3.481-3.481,3.292,3.292,0,0,1,1.01-2.412,3.394,3.394,0,0,1,4.94,0,3.3,3.3,0,0,1,1.008,2.412A3.358,3.358,0,0,1,14.314,14.706ZM37.1,36.648a.745.745,0,0,1-.729.729H31.092a.771.771,0,0,1-.729-.729V25.595a4.028,4.028,0,0,0-.505-2.191,2.642,2.642,0,0,0-2.021-.67A2.992,2.992,0,0,0,25.256,23.8a5.346,5.346,0,0,0-.729,3.031v9.819a.745.745,0,0,1-.731.729H18.632a.765.765,0,0,1-.726-.729V18.522a1.056,1.056,0,0,1,.223-.5,1.068,1.068,0,0,1,.5-.226h5a.971.971,0,0,1,.447.112c.078.039.154.167.226.391v.282l.056.112v.449a7.044,7.044,0,0,1,5.108-1.795,8.2,8.2,0,0,1,5.61,1.739A6.867,6.867,0,0,1,37.1,24.414Z" transform="translate(-0.266 -0.965)" fill="#fff"/>
</svg>
