<svg xmlns="http://www.w3.org/2000/svg" width="96" height="62.999" viewBox="0 0 96 62.999">
  <g id="noun-load-package-6339784" transform="translate(0 -22)" opacity="1">
    <path id="Path_267312" data-name="Path 267312" d="M25.5,48h9A1.5,1.5,0,0,0,36,46.5v-6A1.5,1.5,0,0,0,34.5,39h-9A1.5,1.5,0,0,0,24,40.5v6A1.5,1.5,0,0,0,25.5,48ZM27,42h6v3H27Z" transform="translate(11.999 8.5)" fill="#48217a"/>
    <path id="Path_267327" data-name="Path 267327" d="M9.579,26.917l2.353-3.085H24.3l.73,15.386H38.339l.725-15.386H51.359l2.885,4.242L52.42,62.52,9.579,61.649Z" fill="#48217a"/>
    <path id="Path_267313" data-name="Path 267313" d="M92.127,49.627l-5.506-1.834-3.489-8.376h0l-2.593-6.225A6.4,6.4,0,0,0,75,29.5H64.5A4.505,4.505,0,0,0,60,34V61H54.665a5.924,5.924,0,0,0,.835-3V28a6.006,6.006,0,0,0-6-6h-36a6.006,6.006,0,0,0-6,6V58a5.924,5.924,0,0,0,.835,3H1.5A1.5,1.5,0,0,0,0,62.5v6a6.006,6.006,0,0,0,6,6h6.1a11.989,11.989,0,0,0,23.793,0H60.1a11.989,11.989,0,0,0,23.793,0h7.6A4.505,4.505,0,0,0,96,70V55a5.964,5.964,0,0,0-3.871-5.373ZM83.249,47.5H73.5v-6H80.75ZM60,71.5H35.9A11.977,11.977,0,0,0,31.911,64H60ZM27,25h9V37H27ZM10.5,58V28a3,3,0,0,1,3-3H24V38.5A1.5,1.5,0,0,0,25.5,40h12A1.5,1.5,0,0,0,39,38.5V25H49.5a3,3,0,0,1,3,3V58a3,3,0,0,1-3,3h-36A3,3,0,0,1,10.5,58ZM3,68.5V64H16.089A11.977,11.977,0,0,0,12.1,71.5H6A3,3,0,0,1,3,68.5ZM24,82a9,9,0,1,1,9-9A9.009,9.009,0,0,1,24,82Zm48,0a9,9,0,1,1,9-9A9.009,9.009,0,0,1,72,82ZM91.5,71.5H83.9A11.976,11.976,0,0,0,63,65.088V34a1.5,1.5,0,0,1,1.5-1.5H75a3.4,3.4,0,0,1,2.77,1.845L79.5,38.5H72A1.5,1.5,0,0,0,70.5,40v9A1.5,1.5,0,0,0,72,50.5H85.256l5.922,1.974A2.968,2.968,0,0,1,93,55v6H90a1.5,1.5,0,1,0,0,3h3v6A1.5,1.5,0,0,1,91.5,71.5Z" transform="translate(0 0)" fill="#8540d6"/>
    <path id="Path_267314" data-name="Path 267314" d="M50,52a6,6,0,1,0,6,6A6.006,6.006,0,0,0,50,52Zm0,9a3,3,0,1,1,3-3A3,3,0,0,1,50,61Z" transform="translate(21.999 14.999)" fill="#8540d6"/>
    <path id="Path_267315" data-name="Path 267315" d="M18,52a6,6,0,1,0,6,6A6.006,6.006,0,0,0,18,52Zm0,9a3,3,0,1,1,3-3A3,3,0,0,1,18,61Z" transform="translate(6 14.999)" fill="#8540d6"/>
  </g>
</svg>
