<svg xmlns="http://www.w3.org/2000/svg" width="78.108" height="72" viewBox="0 0 78.108 72">
  <g id="Group_122345" data-name="Group 122345" transform="translate(-1254.184 -353.245)" opacity="1">
    <path id="Subtraction_2" data-name="Subtraction 2" d="M-6172.175-4475.36h-25.642l.381-31.4-.381-.993h24.57v19.218l-.053-.034-3.218,5.29,2.835,1.692.436-.72v2.809l1.072,4.133Zm-4.542-7.295h0l-.782,4.191,3.411-2.623Z" transform="translate(7478.317 4865.716)" fill="#8540d6"/>
    <g id="Group_122344" data-name="Group 122344">
      <path id="local_handling" data-name="local handling" d="M90.554,132.654H102.7v-1.581H90.554Zm15.918-6.246H90.554v1.581h15.919Zm-15.918-4.665v1.581h14.462v-1.581Zm19.831,11.277,12.167-20.109-.67-.4,1.305-2.156-1.326-.8-1.3,2.155-.669-.4L107.724,131.41Zm-3.8-15.941H90.554v1.58h16.03Zm.888,15.086-.72,3.854,3.081-2.425ZM86.123,141.5h25.658a1.827,1.827,0,0,0,1.865-1.867V129.9l-2.8,4.659V138.1H87.289V107.316h6.219v1.824h11.62v-1.824h5.72v16.646l2.8-4.659v-11.7a1.827,1.827,0,0,0-1.865-1.865h-6.654v-2.017h-4.3a1.507,1.507,0,1,0-3.013,0H93.508v2.017H86.123a1.827,1.827,0,0,0-1.866,1.865v32.027a1.828,1.828,0,0,0,1.867,1.868Zm21.589-29.087H90.554v1.58h17.158Zm30.005,17.206a3.587,3.587,0,0,0-3.125-.966,2.407,2.407,0,0,0-.883.458l-.027.022a11.1,11.1,0,0,0-.941.882,2.925,2.925,0,0,0-2.964.52c-1.672,1.473-3.853,5.731-4.772,7.778-.231.512-.524,1.1-.848,1.711-.28.527-.585,1.068-.89,1.587a4.291,4.291,0,0,0-.785.543,22.623,22.623,0,0,0-3.268,4.488l-.253.405a9.857,9.857,0,0,1-5.6,3.048,21.1,21.1,0,0,0-7.447,3.691c-1.6,1.411-5.125,5.448-5.551,7.051-.08.294-.184.62-.307,1-.166.521-.373,1.158-.593,1.98-.133.5-.271,1.062-.413,1.711-.14-.649-.278-1.214-.412-1.711-.22-.822-.424-1.46-.593-1.98-.122-.377-.227-.7-.306-1-.429-1.6-3.953-5.64-5.553-7.051a21.086,21.086,0,0,0-7.446-3.691,9.857,9.857,0,0,1-5.6-3.048l-.253-.405a22.537,22.537,0,0,0-3.269-4.488,4.239,4.239,0,0,0-.783-.543c-.307-.52-.611-1.061-.89-1.587-.325-.61-.62-1.2-.849-1.711-.918-2.047-3.1-6.307-4.771-7.778a2.924,2.924,0,0,0-2.963-.52,11.092,11.092,0,0,0-.942-.882c-.007-.008-.018-.016-.023-.022a2.431,2.431,0,0,0-.884-.458,3.586,3.586,0,0,0-3.125.966l-.391.36.211.487c.062.143.575,1.32,1.252,2.88,1.435,3.294,3.617,8.3,3.892,8.852.149.3.279.638.4.963a6.431,6.431,0,0,0,.679,1.42c.362.5,3.755,5.831,4.124,6.439a6.933,6.933,0,0,1,.323.81,5.543,5.543,0,0,0,1.723,2.882,25.392,25.392,0,0,1,2.82,2.655c.863.877,1.843,1.868,2.982,2.967a35.819,35.819,0,0,0,3.635,2.994,13.063,13.063,0,0,1,3.411,3.171c.4.622.525,2.322.495,4.422-.014,1.022-.064,2.161-.142,3.293.509-.036,25.985-.036,26.5,0-.078-1.133-.129-2.273-.144-3.293-.029-2.1.1-3.8.5-4.422a13.041,13.041,0,0,1,3.409-3.171,35.9,35.9,0,0,0,3.636-2.994c1.138-1.1,2.118-2.091,2.981-2.967a25.12,25.12,0,0,1,2.821-2.655,5.567,5.567,0,0,0,1.722-2.882,6.548,6.548,0,0,1,.323-.81c.367-.608,3.761-5.938,4.123-6.439a6.406,6.406,0,0,0,.678-1.42c.126-.325.255-.66.406-.963.272-.555,2.456-5.556,3.89-8.852.676-1.56,1.192-2.738,1.252-2.88l.214-.487Zm-70.376,2.037c1.184,1.045,2.9,4.129,3.962,6.344.161.332.306.644.432.925.271.6.653,1.359,1.081,2.15l-2.5-2.819c-.1-.141-.194-.286-.3-.436-.16-.495-.344-.972-.541-1.441a21.941,21.941,0,0,0-2.981-5.056,1.32,1.32,0,0,1,.845.333Zm30.827,40.936H87.406c.028-.743.045-1.488.043-2.15-.009-2.092-.2-3.909-.736-4.748a14.336,14.336,0,0,0-3.776-3.564,34.228,34.228,0,0,1-3.49-2.871c-1.125-1.086-2.1-2.072-2.956-2.94a23.325,23.325,0,0,0-3.092-2.873,5.224,5.224,0,0,1-1.107-2.12,6.716,6.716,0,0,0-.449-1.077c-.388-.642-3.8-6-4.191-6.542a5.554,5.554,0,0,1-.5-1.085c-.137-.354-.279-.722-.457-1.083-.261-.534-2.57-5.82-4.263-9.714-.216-.5-.422-.972-.615-1.412a1.425,1.425,0,0,1,1.639-.138.557.557,0,0,1,.051.044c.144.119.3.258.47.422s.343.344.527.545c.161.173.325.364.494.565a20.881,20.881,0,0,1,1.6,2.212,19.23,19.23,0,0,1,2.033,4.318l.032.1.062.088c1.066,1.579,1.815,2.61,2.327,3.277-.093.075-.185.155-.271.24-1.258,1.264-.883,2.191,1.279,5.585a16.13,16.13,0,0,1,.757,1.644c.12.289.223.542.336.766a5.745,5.745,0,0,1,.253.662,3.15,3.15,0,0,0,.656,1.3c.049.045.138.125.272.246a22.4,22.4,0,0,1,3.5,3.57,13.943,13.943,0,0,0,2.355,2.676l.984-1.128a13.653,13.653,0,0,1-1.812-1.951q-.134-.183-.243-.366a24.063,24.063,0,0,0-3.789-3.916c-.1-.091-.188-.168-.229-.207a4.44,4.44,0,0,1-.28-.707,6.323,6.323,0,0,0-.333-.858c-.087-.173-.179-.4-.286-.659a18.286,18.286,0,0,0-.832-1.805l-.014-.024-.015-.023c-2.045-3.207-1.9-3.356-1.5-3.753a1.667,1.667,0,0,1,.173-.152c.038-.028.075-.055.113-.08a1.717,1.717,0,0,1,.529-.227,2.018,2.018,0,0,1,1.141.089,2.638,2.638,0,0,1,.841.5,11.246,11.246,0,0,1,1.622,2.016c.471.7.941,1.456,1.364,2.137l.29.466.032.051s.037.044.037.044a11.425,11.425,0,0,0,6.446,3.565,19.494,19.494,0,0,1,6.776,3.352c1.693,1.492,4.817,5.259,5.1,6.314.09.332.2.674.33,1.071.214.67.474,1.476.746,2.589.227.936.466,2.087.7,3.565.033.22.066.483.1.784v3.361Zm28.2-33.666c.127-.282.273-.594.432-.925,1.068-2.216,2.78-5.3,3.963-6.344a1.317,1.317,0,0,1,.844-.333,22.084,22.084,0,0,0-2.982,5.056c-.2.469-.38.946-.541,1.441-.1.15-.2.295-.3.436l-2.5,2.819c.43-.789.812-1.543,1.081-2.149Zm9.3-7.1c-1.691,3.894-4,9.181-4.261,9.714-.179.361-.32.729-.459,1.083a5.721,5.721,0,0,1-.495,1.085c-.39.542-3.8,5.9-4.194,6.542a6.7,6.7,0,0,0-.448,1.077,5.281,5.281,0,0,1-1.1,2.12,22.914,22.914,0,0,0-3.095,2.873c-.858.868-1.83,1.855-2.956,2.94a34.541,34.541,0,0,1-3.49,2.871A14.318,14.318,0,0,0,111.4,165.7c-.539.839-.729,2.656-.736,4.748,0,.661.012,1.407.041,2.15H99.939v-3.357c.032-.3.066-.564.1-.784.229-1.478.468-2.63.7-3.565.273-1.113.529-1.919.746-2.589.129-.4.24-.74.328-1.071.281-1.054,3.4-4.822,5.1-6.314a19.5,19.5,0,0,1,6.775-3.352A11.425,11.425,0,0,0,120.127,148s.039-.045.037-.044l.033-.051.289-.466c.423-.681.893-1.44,1.364-2.138a11.431,11.431,0,0,1,1.622-2.016,2.659,2.659,0,0,1,.843-.5,2.008,2.008,0,0,1,1.138-.089,1.677,1.677,0,0,1,.529.227c.036.024.076.052.113.08a1.647,1.647,0,0,1,.174.152c.395.4.544.546-1.5,3.753l-.016.023-.012.024a18.35,18.35,0,0,0-.834,1.805c-.108.261-.2.486-.288.659a6.688,6.688,0,0,0-.331.858,4.5,4.5,0,0,1-.279.707c-.043.038-.127.116-.229.207a23.886,23.886,0,0,0-3.788,3.916c-.074.121-.156.244-.243.366a13.947,13.947,0,0,1-1.812,1.951l.981,1.128a13.843,13.843,0,0,0,2.357-2.676,22.461,22.461,0,0,1,3.5-3.57c.135-.121.222-.2.271-.246a3.177,3.177,0,0,0,.658-1.3,6.1,6.1,0,0,1,.251-.662c.113-.223.216-.475.334-.766a17.3,17.3,0,0,1,.759-1.644c2.162-3.4,2.539-4.322,1.279-5.585a3.406,3.406,0,0,0-.271-.24c.514-.667,1.263-1.7,2.328-3.277l.06-.088.035-.1a19.178,19.178,0,0,1,2.033-4.318,20.736,20.736,0,0,1,1.6-2.212c.17-.2.336-.391.5-.565.182-.2.358-.384.526-.545s.325-.3.47-.422c.016-.015.035-.031.049-.044a1.424,1.424,0,0,1,1.639.138c-.193.435-.4.91-.617,1.407Z" transform="translate(1194.184 251.029)" fill="#48217a"/>
      <rect id="Rectangle_57037" data-name="Rectangle 57037" width="13" height="2.5" transform="translate(1284.184 381.251)" fill="#fff"/>
      <rect id="Rectangle_57038" data-name="Rectangle 57038" width="17" height="2.5" transform="translate(1284.184 377.251)" fill="#fff"/>
      <rect id="Rectangle_57039" data-name="Rectangle 57039" width="17" height="2.5" transform="translate(1284.184 372.251)" fill="#fff"/>
      <rect id="Rectangle_57040" data-name="Rectangle 57040" width="17" height="2.5" transform="translate(1284.184 367.251)" fill="#fff"/>
      <rect id="Rectangle_57041" data-name="Rectangle 57041" width="18" height="2.5" transform="translate(1284.184 363.251)" fill="#fff"/>
    </g>
  </g>
</svg>
