<svg xmlns="http://www.w3.org/2000/svg" xmlns:xlink="http://www.w3.org/1999/xlink" width="76" height="76" viewBox="0 0 76 76">
  <defs>
    <clipPath id="clip-path">
      <rect id="Rectangle_44273" data-name="Rectangle 44273" width="59.352" height="31.054" fill="none"/>
    </clipPath>
  </defs>
  <g id="Group_87968" data-name="Group 87968" transform="translate(4006 3828)">
    <rect id="Rectangle_44283" data-name="Rectangle 44283" width="76" height="76" transform="translate(-4006 -3828)" fill="#fff" opacity="0"/>
    <g id="Group_87954" data-name="Group 87954" transform="translate(-3997.676 -3805.172)">
      <g id="Group_87953" data-name="Group 87953" clip-path="url(#clip-path)">
        <g id="Group_87952" data-name="Group 87952">
          <g id="Group_87951" data-name="Group 87951" clip-path="url(#clip-path)">
            <path id="Path_257417" data-name="Path 257417" d="M1310.156,85.6H1282.41a6.165,6.165,0,0,1-.725-.015,1.261,1.261,0,0,1-1.19-1.29c.067-10.246,3.683-18.756,12.294-24.732a28.644,28.644,0,0,1,13.407-4.777,33.3,33.3,0,0,1,13.045.986c8.947,2.58,15.211,8.17,18.591,16.886a30.51,30.51,0,0,1,2.009,11.17c0,1.352-.415,1.772-1.758,1.772h-27.927m16.693-2.63h4.654c1.693,0,3.385-.014,5.078.009.49.006.6-.142.569-.633a30.565,30.565,0,0,0-.672-5.021c-1.841-8.032-6.288-14.028-13.841-17.538a32.05,32.05,0,0,0-24-.411,23.7,23.7,0,0,0-12.866,12.234,28.513,28.513,0,0,0-2.588,10.735c-.025.488.075.635.567.634q9.732-.018,19.465,0a.668.668,0,0,0,.754-.586,5.457,5.457,0,0,1,1.188-2.221.627.627,0,0,0,.01-.971c-2.023-2.561-4.023-5.14-6.026-7.717a3.535,3.535,0,0,1-.639-.947A1.328,1.328,0,0,1,1299,69a1.248,1.248,0,0,1,1.564.085,3.753,3.753,0,0,1,.486.535c2.072,2.651,4.151,5.3,6.2,7.967a1.017,1.017,0,0,0,1.257.441,6.407,6.407,0,0,1,7.842,4.313.779.779,0,0,0,.894.647c3.2-.02,6.408-.01,9.612-.01m-16.713,0c1.025,0,2.051-.011,3.076.005.424.007.571-.1.332-.509a3.843,3.843,0,0,0-6.759,0c-.244.418-.083.513.335.507,1.005-.016,2.011-.005,3.016-.005" transform="translate(-1280.492 -54.552)"/>
            <path id="Path_257418" data-name="Path 257418" d="M1295.06,96.751a1.3,1.3,0,0,1-1.562,1.324c-.87-.155-1.734-.356-2.587-.585a1.318,1.318,0,0,1,.609-2.564c.829.162,1.655.34,2.474.546a1.262,1.262,0,0,1,1.066,1.279" transform="translate(-1284.452 -71.525)"/>
            <path id="Path_257419" data-name="Path 257419" d="M1365.789,86.278a1.2,1.2,0,0,1-.661.9c-.774.428-1.55.856-2.347,1.236a1.315,1.315,0,0,1-1.248-2.313,23.786,23.786,0,0,1,2.4-1.269c.92-.411,1.869.234,1.858,1.443" transform="translate(-1314.307 -67.239)"/>
            <path id="Path_257420" data-name="Path 257420" d="M1333.1,67.261c.091-.838.157-1.679.281-2.513a1.327,1.327,0,1,1,2.625.366c-.082.819-.155,1.639-.281,2.452a1.283,1.283,0,0,1-1.486,1.157,1.334,1.334,0,0,1-1.138-1.462" transform="translate(-1302.623 -58.333)"/>
            <path id="Path_257421" data-name="Path 257421" d="M1317.9,69.672a1.368,1.368,0,0,1-.94,1.462,1.243,1.243,0,0,1-1.43-.5,15.117,15.117,0,0,1-1.185-2.954,1.233,1.233,0,0,1,.734-1.382,1.185,1.185,0,0,1,1.525.309,14.013,14.013,0,0,1,1.295,3.07" transform="translate(-1294.716 -59.431)"/>
            <path id="Path_257422" data-name="Path 257422" d="M1303.16,80.439a1.308,1.308,0,0,1-1.937,1.2,12.469,12.469,0,0,1-2.352-1.98,1.3,1.3,0,0,1,1.726-1.916c.755.568,1.466,1.2,2.176,1.823a1.256,1.256,0,0,1,.387.871" transform="translate(-1288.087 -64.207)"/>
            <path id="Path_257423" data-name="Path 257423" d="M1349.37,73.715a7.752,7.752,0,0,1,2.266-3.365,1.2,1.2,0,0,1,1.386.269,1.149,1.149,0,0,1,.309,1.424,13.334,13.334,0,0,1-1.752,2.583,1.149,1.149,0,0,1-1.433.272,1.247,1.247,0,0,1-.776-1.184" transform="translate(-1309.466 -61.151)"/>
          </g>
        </g>
      </g>
    </g>
  </g>
</svg>
