<svg xmlns="http://www.w3.org/2000/svg" xmlns:xlink="http://www.w3.org/1999/xlink" width="96" height="63.154" viewBox="0 0 96 63.154">
  <defs>
    <clipPath id="clip-path">
      <rect id="Rectangle_56826" data-name="Rectangle 56826" width="96" height="63.154" fill="#48217a"/>
    </clipPath>
  </defs>
  <g id="Group_121976" data-name="Group 121976" clip-path="url(#clip-path)">
    <path id="Union_2" data-name="Union 2" d="M-6577.714-4834.619v-11h11v11Zm-12,0v-11h11v11Zm-13,0v-11h11v11Zm-34,0v-14h6v-12h15v12h6v14Z" transform="translate(6641.715 4871.625)" fill="#8540d6"/>
    <path id="Path_267167" data-name="Path 267167" d="M0,38.117a2.58,2.58,0,0,1,2.065-1.825c.926-.088,1.868-.018,2.927-.018V33.957c0-1.751-.009-3.5.005-5.253,0-.478-.043-.792-.628-.943A1.544,1.544,0,0,1,3.187,26.24c-.038-1.249-.055-2.5,0-3.748a1.66,1.66,0,0,1,1.6-1.659,20.489,20.489,0,0,1,2.058-.067c.744-.01,1.489,0,2.346,0v-1.1c0-2.345.053-4.691-.012-7.034-.11-4.012.363-4.472,4.4-4.345,1.21.038,2.423.006,3.739.006,0-2.021,0-3.949,0-5.878a8.186,8.186,0,0,1,.043-1.122,1.4,1.4,0,0,1,2.8.089c.056.778.029,1.562.031,2.343,0,1.491,0,2.983,0,4.568,1.848,0,3.591,0,5.334,0,2.085,0,2.8.728,2.8,2.832q0,4.268,0,8.535v1.1c1.284,0,2.465-.011,3.646,0,1.753.019,2.376.643,2.387,2.374.006.938.014,1.876-.006,2.814a1.851,1.851,0,0,1-1.383,1.889.782.782,0,0,0-.438.572c-.03,2.559-.02,5.119-.02,7.752h4.379V35.113c0-6.972,0-4.244,0-11.216l28.139.006c0,3.185,0-3.332,0-.013H66.1c2.908,0,5.815-.005,8.723,0,1.927,0,2.85.943,2.854,2.885,0,2.438,0,4.876,0,7.554.206-.4.308-.6.413-.8a3.708,3.708,0,0,1,3.381-2.151c3.97-.038,7.941-.05,11.912,0,2.146.026,3.224,1.971,2.27,4.021-2.014,4.33-4.06,8.646-6.091,12.969-1.991,4.238-4,8.466-5.957,12.722a3.182,3.182,0,0,1-3.215,2.059q-36.158-.03-72.316-.017c-2.692,0-3.811-1.813-2.658-4.259.572-1.214,1.1-2.456,1.745-3.628a2.277,2.277,0,0,0-.373-2.958A29.721,29.721,0,0,1,.617,41.359C.415,40.714.206,40.073,0,39.43V38.117m2.851.938c.432,1.29.761,2.426,1.19,3.523a31.654,31.654,0,0,0,5.042,8.179,2.845,2.845,0,0,0,2.559,1.191q25.744-.047,51.488-.02a9.607,9.607,0,0,1,1.309.058,1.355,1.355,0,0,1,.084,2.653,6.683,6.683,0,0,1-1.3.1q-25.509.007-51.019-.029c-1.282,0-2.017.239-2.457,1.535a41,41,0,0,1-1.882,4.074h71.8a4.007,4.007,0,0,0,.748-.014c.193-.037.465-.124.535-.27.828-1.7,1.624-3.417,2.5-5.292h-1.2q-5.44,0-10.879,0c-1.268,0-1.939-.5-1.95-1.4s.659-1.395,1.921-1.411c.25,0,.5,0,.75,0,3.939,0,7.878-.016,11.817.016a1.181,1.181,0,0,0,1.262-.81c2.482-5.352,5-10.687,7.5-16.029.128-.273.234-.556.388-.923-3.694,0-7.283,0-10.872,0-1.368,0-1.546.16-1.728,1.507A3.737,3.737,0,0,1,77.6,38.9a9.26,9.26,0,0,1-2.045.16q-35.638,0-71.277-.007H2.851M6.018,25.128c1.01,0,1.973-.031,2.932.009a1.3,1.3,0,0,1,1.4,1.32A1.333,1.333,0,0,1,9.059,27.9c-.388.06-.784.07-1.173.1v8.162h21.72V27.938c-4.458,0-8.833,0-13.208-.006-.432,0-.988.057-1.267-.176a2.1,2.1,0,0,1-.812-1.381c.013-.409.558-.882.977-1.169.264-.181.727-.087,1.1-.087q6.987-.006,13.974,0h1.1v-1.46H6.018Zm6.015-4.448H25.448v-9.5H12.033ZM52.4,36.169h9.727V26.741H52.4Zm-12.614.016h9.693V26.761H39.79ZM74.8,26.769h-9.71v9.423H74.8Z" transform="translate(0 0)" fill="#48217a"/>
  </g>
</svg>
