<svg xmlns="http://www.w3.org/2000/svg" xmlns:xlink="http://www.w3.org/1999/xlink" width="76" height="75.296" viewBox="0 0 76 75.296">
  <defs>
    <clipPath id="clip-path">
      <rect id="Rectangle_44313" data-name="Rectangle 44313" width="68.963" height="55.593" fill="none"/>
    </clipPath>
    <clipPath id="clip-path-2">
      <rect id="Rectangle_56981" data-name="Rectangle 56981" width="49.672" height="46.848" fill="none"/>
    </clipPath>
  </defs>
  <g id="Group_122588" data-name="Group 122588" transform="translate(-0.257 -0.434)">
    <rect id="Rectangle_44278" data-name="Rectangle 44278" width="76" height="75.296" transform="translate(0.257 0.434)" fill="#fff" opacity="0"/>
    <g id="Group_88011" data-name="Group 88011" transform="translate(3.775 10.285)">
      <g id="Group_88010" data-name="Group 88010" transform="translate(0 0)" clip-path="url(#clip-path)">
        <g id="Group_122279" data-name="Group 122279" transform="translate(9.901 4.159)">
          <g id="Group_122278" data-name="Group 122278" clip-path="url(#clip-path-2)">
            <path id="Path_267253" data-name="Path 267253" d="M231.363,85.04q0,7.6,0,15.2c0,1.354-.463,1.815-1.819,1.817q-1.97,0-3.941,0c-1.328,0-1.8-.484-1.807-1.84,0-1.783,0-3.566,0-5.349q0-12.423,0-24.847c0-1.564.443-2.008,2.006-2.01,1.243,0,2.487-.005,3.73,0,1.342.007,1.832.495,1.832,1.821q0,7.6,0,15.2" transform="translate(-181.692 -55.217)" fill="#363636"/>
            <path id="Path_267254" data-name="Path 267254" d="M82.21,132.916q0,5.069,0,10.139c0,1.43-.463,1.883-1.907,1.884-1.361,0-2.722.008-4.083,0a1.418,1.418,0,0,1-1.579-1.563q-.011-10.491,0-20.982a1.407,1.407,0,0,1,1.577-1.56c1.408-.012,2.816-.007,4.224,0,1.285,0,1.766.492,1.767,1.807q.006,5.14,0,10.28" transform="translate(-60.594 -98.095)" fill="#363636"/>
            <path id="Path_267255" data-name="Path 267255" d="M149.32,147.966q0-4.362,0-8.724c0-1.259.491-1.746,1.744-1.75,1.383,0,2.767-.008,4.151,0a1.432,1.432,0,0,1,1.636,1.644q.01,8.83,0,17.66c0,1.178-.5,1.664-1.673,1.668-1.43.005-2.861.009-4.291,0a1.388,1.388,0,0,1-1.563-1.562c-.011-2.978,0-5.957,0-8.935" transform="translate(-121.227 -111.622)" fill="#363636"/>
            <path id="Path_267256" data-name="Path 267256" d="M54.274,2.549c-.556.029-.973.067-1.391.069a1.081,1.081,0,0,1-1.175-.967A1.065,1.065,0,0,1,52.674.406Q54.982.152,57.3,0a1.053,1.053,0,0,1,1.174,1.184c-.131,1.541-.3,3.081-.51,4.614a1.081,1.081,0,0,1-1.236.981,1.109,1.109,0,0,1-.958-1.259c.014-.387.056-.773.085-1.159l-.221-.147a3.439,3.439,0,0,1-.379.574c-3.6,3.639-7.209,7.262-10.791,10.915a1.7,1.7,0,0,1-2,.476c-4.065-1.361-8.151-2.655-12.223-3.995a1.19,1.19,0,0,0-1.271.208C24.8,15.672,20.61,18.92,16.426,22.177c-.909.708-1.547.759-2.022.161-.487-.614-.293-1.2.625-1.919C19.417,17,23.812,13.6,28.18,10.156a1.936,1.936,0,0,1,2.007-.351q6.139,2.026,12.3,3.981a.991.991,0,0,0,.837-.179Q48.684,8.263,54,2.874c.064-.064.117-.138.275-.325" transform="translate(-11.484 0)" fill="#363636"/>
            <path id="Path_267257" data-name="Path 267257" d="M7.564,177.847c0,1.9,0,3.8,0,5.7,0,1.172-.506,1.681-1.663,1.686-1.432.006-2.864.008-4.3,0a1.408,1.408,0,0,1-1.591-1.552q-.027-5.81,0-11.62a1.438,1.438,0,0,1,1.635-1.592q2.148-.018,4.3,0c1.1.01,1.617.548,1.62,1.67.006,1.9,0,3.8,0,5.7" transform="translate(0 -138.394)" fill="#363636"/>
          </g>
        </g>
      </g>
    </g>
  </g>
</svg>
