<svg xmlns="http://www.w3.org/2000/svg" xmlns:xlink="http://www.w3.org/1999/xlink" width="168.947" height="78.182" viewBox="0 0 168.947 78.182">
  <defs>
    <clipPath id="clip-path">
      <rect id="Rectangle_57164" data-name="Rectangle 57164" width="166.09" height="33.707" fill="#8540d6"/>
    </clipPath>
  </defs>
  <g id="Group_122606" data-name="Group 122606" transform="translate(0)">
    <g id="Group_122604" data-name="Group 122604" transform="translate(168.946 32.402) rotate(164)">
      <g id="Group_122602" data-name="Group 122602" transform="translate(0)" clip-path="url(#clip-path)">
        <path id="Path_267467" data-name="Path 267467" d="M93.467,23.043A147.344,147.344,0,0,1,45.308,22.3,105.818,105.818,0,0,1,15.287,12.237C10.543,9.746,5.685,7.445,1.119,4.63-.764,3.75.025,1.059,1.329,0c4.894,1.349,9.483,3.563,14.222,5.339A225.42,225.42,0,0,0,39.673,13.29a151.059,151.059,0,0,0,40.288,4.02c15.548-.353,30.874-3.253,46.09-6.242,8.1-1.564,16.139-3.494,24.193-5.305a21.493,21.493,0,0,1,2.447-.33c.512,2.222-2.06,3.065-3.646,3.734-17.909,6.749-36.67,11.076-55.578,13.876" transform="translate(13.332 9.038)" fill="#8540d6"/>
        <path id="Path_267468" data-name="Path 267468" d="M29.493,29.3c.581,1.19.255,3.371-1.553,2.668a80.039,80.039,0,0,1-16.6-9.677C6.626,18.732,1.744,14.472.275,8.5c-.587-1.849-.329-4.422,1.7-5.259,3.281-1.424,6.919-1.7,10.422-2.19A143.091,143.091,0,0,1,30.535.031a9.68,9.68,0,0,1,4.294.887c.8.519.74,1.6.886,2.423C33.962,4.687,31.67,4.683,29.58,5.015,22.955,5.8,16.325,6.577,9.732,7.606a20.576,20.576,0,0,0-6.2,1.709c2.132,3.666,5.349,6.523,8.676,9.077a55.99,55.99,0,0,0,12.986,7.4c1.718.7,3.883,1.432,4.3,3.507" transform="translate(0 0)" fill="#8540d6"/>
      </g>
    </g>
  </g>
</svg>
