<svg xmlns="http://www.w3.org/2000/svg" width="96" height="57.43" viewBox="0 0 96 57.43">
  <g id="noun-cargo-train-3313368" transform="translate(-2.75 -15.506)">
    <g id="Group_122329" data-name="Group 122329" transform="translate(2.75 15.506)">
      <path id="Path_267316" data-name="Path 267316" d="M3.884,61.669a1.134,1.134,0,0,0,1.134-1.133v-.986H8.455v2.218A1.134,1.134,0,0,0,9.589,62.9h5.183a6.216,6.216,0,0,0,1.377,2.877H8.217a1.134,1.134,0,0,0,0,2.268h3.39V71.8a1.134,1.134,0,1,0,2.268,0V68.046h10.4V71.8a1.134,1.134,0,0,0,2.268,0V68.046h10.4V71.8a1.134,1.134,0,0,0,2.268,0V68.046h10.4V71.8a1.134,1.134,0,0,0,2.268,0V68.046h10.4V71.8a1.134,1.134,0,1,0,2.268,0V68.046h10.4V71.8a1.134,1.134,0,0,0,2.268,0V68.046h10.4V71.8a1.134,1.134,0,0,0,2.268,0V68.046h3.39a1.134,1.134,0,1,0,0-2.268H85.372A6.228,6.228,0,0,0,86.743,62.9h5.169a1.134,1.134,0,0,0,1.134-1.134V59.549h3.436v.985a1.134,1.134,0,0,0,2.268,0V56.3a1.134,1.134,0,1,0-2.268,0v.985H93.047V16.64a1.134,1.134,0,0,0-1.134-1.134H9.589A1.134,1.134,0,0,0,8.455,16.64V57.282H5.019V56.3a1.134,1.134,0,0,0-2.268,0v2.116s0,0,0,0,0,0,0,0v2.115A1.134,1.134,0,0,0,3.884,61.669Zm13.041.1a4.011,4.011,0,1,1,4.025,4.011A4.023,4.023,0,0,1,16.925,61.767Zm47.2,1.134A6.216,6.216,0,0,0,65.5,65.778H36.019A6.228,6.228,0,0,0,37.391,62.9Zm11.668,2.877h-.71c.119-.143.248-.277.354-.43C75.543,65.5,75.672,65.636,75.792,65.778Zm-5.489,0a4.011,4.011,0,1,1,4-4.011A4.023,4.023,0,0,1,70.3,65.778Zm-39.063,0a4.011,4.011,0,1,1,4-4.011A4.023,4.023,0,0,1,31.24,65.778Zm-5.511,0c.119-.143.248-.277.355-.43.107.153.236.288.356.43Zm50.838-4.011a4.011,4.011,0,1,1,4.026,4.011A4.023,4.023,0,0,1,76.567,61.767ZM10.722,17.774H90.779V60.633H86.756a6.276,6.276,0,0,0-11.319-2.462,6.279,6.279,0,0,0-11.324,2.462H37.4a6.276,6.276,0,0,0-11.319-2.462A6.279,6.279,0,0,0,14.76,60.633H10.722V17.774Z" transform="translate(-2.75 -15.506)" fill="#48217a"/>
      <path id="Path_267317" data-name="Path 267317" d="M15.171,50.987a3.541,3.541,0,0,0,3.537-3.537V23.964a3.537,3.537,0,1,0-7.073,0V47.45A3.54,3.54,0,0,0,15.171,50.987ZM13.9,23.964a1.269,1.269,0,1,1,2.538,0V47.45a1.269,1.269,0,1,1-2.538,0Z" transform="translate(1.797 -12.987)" fill="#8540d6"/>
      <path id="Path_267318" data-name="Path 267318" d="M23.382,50.987A3.541,3.541,0,0,0,26.92,47.45V23.964a3.537,3.537,0,0,0-7.075,0V47.45A3.541,3.541,0,0,0,23.382,50.987Zm-1.27-27.023a1.27,1.27,0,0,1,2.539,0V47.45a1.27,1.27,0,0,1-2.539,0Z" transform="translate(5.999 -12.987)" fill="#8540d6"/>
      <path id="Path_267319" data-name="Path 267319" d="M31.593,50.987a3.54,3.54,0,0,0,3.536-3.537V23.964a3.537,3.537,0,1,0-7.073,0V47.45A3.541,3.541,0,0,0,31.593,50.987Zm-1.27-27.023a1.269,1.269,0,1,1,2.538,0V47.45a1.269,1.269,0,1,1-2.538,0Z" transform="translate(10.202 -12.987)" fill="#8540d6"/>
      <path id="Path_267320" data-name="Path 267320" d="M39.8,50.987A3.541,3.541,0,0,0,43.34,47.45V23.964a3.537,3.537,0,1,0-7.073,0V47.45A3.54,3.54,0,0,0,39.8,50.987ZM38.534,23.964a1.269,1.269,0,1,1,2.538,0V47.45a1.269,1.269,0,1,1-2.538,0Z" transform="translate(14.404 -12.987)" fill="#8540d6"/>
      <path id="Path_267321" data-name="Path 267321" d="M48.014,50.987a3.541,3.541,0,0,0,3.537-3.537V23.964a3.537,3.537,0,0,0-7.075,0V47.45A3.541,3.541,0,0,0,48.014,50.987Zm-1.27-27.023a1.27,1.27,0,0,1,2.539,0V47.45a1.27,1.27,0,0,1-2.539,0Z" transform="translate(18.606 -12.987)" fill="#8540d6"/>
      <path id="Path_267322" data-name="Path 267322" d="M56.225,50.987a3.54,3.54,0,0,0,3.536-3.537V23.964a3.537,3.537,0,1,0-7.073,0V47.45A3.541,3.541,0,0,0,56.225,50.987Zm-1.27-27.023a1.269,1.269,0,1,1,2.538,0V47.45a1.269,1.269,0,1,1-2.538,0Z" transform="translate(22.809 -12.987)" fill="#8540d6"/>
      <rect id="Rectangle_57010" data-name="Rectangle 57010" width="4" height="27" transform="translate(15.249 9.006)" fill="#8540d6"/>
      <rect id="Rectangle_57011" data-name="Rectangle 57011" width="4" height="27" transform="translate(27.249 9.006)" fill="#8540d6"/>
      <rect id="Rectangle_57012" data-name="Rectangle 57012" width="4" height="27" transform="translate(39.249 9.006)" fill="#8540d6"/>
      <rect id="Rectangle_57013" data-name="Rectangle 57013" width="4" height="27" transform="translate(52.249 9.006)" fill="#8540d6"/>
      <rect id="Rectangle_57014" data-name="Rectangle 57014" width="4" height="27" transform="translate(64.249 9.006)" fill="#8540d6"/>
      <rect id="Rectangle_57015" data-name="Rectangle 57015" width="4" height="27" transform="translate(77.249 9.006)" fill="#8540d6"/>
    </g>
  </g>
</svg>
