<svg id="Group_14536" data-name="Group 14536" xmlns="http://www.w3.org/2000/svg" width="14" height="14" viewBox="0 0 14 14">
  <path id="Path_71127" data-name="Path 71127" d="M0,0H14V14H0Z" fill="none"/>
  <path id="Path_71128" data-name="Path 71128" d="M8.25,1l4.793,1.065a.583.583,0,0,1,.457.569V8.46a3.5,3.5,0,0,1-1.558,2.912L8.25,13.833,4.559,11.372A3.5,3.5,0,0,1,3,8.461V2.635a.583.583,0,0,1,.457-.569Zm0,3.5a1.167,1.167,0,0,0-.583,2.177v2.49H8.833V6.677A1.167,1.167,0,0,0,8.25,4.5Z" transform="translate(-1.25 -0.417)" fill="#afafaf"/>
</svg>
