<svg id="map-location-dot" xmlns="http://www.w3.org/2000/svg" width="24" height="21" viewBox="0 0 15.349 13.643">
  <g id="Group_3" data-name="Group 3" transform="translate(0)">
    <path id="Path_4" data-name="Path 4" d="M7.674,0a3.2,3.2,0,0,0-3.2,3.2c0,1.289.449,1.649,2.87,5.156a.4.4,0,0,0,.657,0c2.418-3.507,2.869-3.867,2.869-5.156A3.2,3.2,0,0,0,7.674,0Zm0,4.69A1.279,1.279,0,1,1,8.954,3.411,1.279,1.279,0,0,1,7.674,4.69ZM.268,6.065A.425.425,0,0,0,0,6.459v6.755a.427.427,0,0,0,.586.4l3.677-1.672V5.367a5.261,5.261,0,0,1-.442-.9ZM8.7,8.842a1.252,1.252,0,0,1-2.059,0c-.43-.624-1.4-2-1.528-2.189v5.263l5.116,1.729V6.651C10.1,6.838,9.135,8.215,8.7,8.842ZM14.765,4.3l-3.68,1.673v7.674l3.994-1.8a.451.451,0,0,0,.269-.395V4.69a.416.416,0,0,0-.584-.394Z" transform="translate(0)" fill="#48217A"/>
  </g>
</svg>
