<svg id="Group_379" data-name="Group 379" xmlns="http://www.w3.org/2000/svg" width="383.01" height="181.5" viewBox="0 0 383.01 181.5">
  <path id="Path_4553" data-name="Path 4553" d="M400.537,104.125H533.51s-13.185-36.178-33.476-36.178-26.647,24.972-26.647,24.972S459.7,79.351,448.452,79.351s-21.024,17.93-21.024,17.93S411.537,87.639,400.537,104.125Z" transform="translate(-150.5 -67.947)" fill="#ebebeb"/>
  <path id="Path_4554" data-name="Path 4554" d="M367.71,143.324h62.142s-13.887-20.211-24.825-20.211-14.173,13.474-14.173,13.474-7.72-6.288-14.873-5.165S367.71,143.324,367.71,143.324Z" transform="translate(-143.909 -86.935)" fill="#ebebeb" opacity="0.5"/>
  <g id="Group_197" data-name="Group 197" transform="translate(262.47 158.963)">
    <g id="Group_196" data-name="Group 196">
      <g id="Group_195" data-name="Group 195">
        <rect id="Rectangle_447" data-name="Rectangle 447" width="19.984" height="22.537" fill="#ebebeb"/>
        <rect id="Rectangle_448" data-name="Rectangle 448" width="16.256" height="19.192" transform="translate(1.864 1.673)" fill="#dbdbdb"/>
        <rect id="Rectangle_449" data-name="Rectangle 449" width="0.865" height="19.192" transform="translate(9.56 1.673)" fill="#c7c7c7"/>
        <g id="Group_191" data-name="Group 191" transform="translate(19.984)">
          <rect id="Rectangle_450" data-name="Rectangle 450" width="58.434" height="22.537" fill="#dbdbdb"/>
        </g>
        <g id="Group_194" data-name="Group 194" transform="translate(21.789 1.673)">
          <g id="Group_192" data-name="Group 192">
            <rect id="Rectangle_451" data-name="Rectangle 451" width="54.824" height="19.192" fill="#c7c7c7"/>
            <rect id="Rectangle_452" data-name="Rectangle 452" width="54.824" height="19.192" fill="#c7c7c7" opacity="0.1"/>
          </g>
          <g id="Group_193" data-name="Group 193">
            <rect id="Rectangle_453" data-name="Rectangle 453" width="0.862" height="19.192" fill="#a6a6a6"/>
            <rect id="Rectangle_454" data-name="Rectangle 454" width="0.862" height="19.192" transform="translate(1.799)" fill="#a6a6a6"/>
            <rect id="Rectangle_455" data-name="Rectangle 455" width="0.862" height="19.192" transform="translate(3.597)" fill="#a6a6a6"/>
            <rect id="Rectangle_456" data-name="Rectangle 456" width="0.862" height="19.192" transform="translate(5.396)" fill="#a6a6a6"/>
            <rect id="Rectangle_457" data-name="Rectangle 457" width="0.862" height="19.192" transform="translate(7.195)" fill="#a6a6a6"/>
            <rect id="Rectangle_458" data-name="Rectangle 458" width="0.862" height="19.192" transform="translate(8.994)" fill="#a6a6a6"/>
            <rect id="Rectangle_459" data-name="Rectangle 459" width="0.862" height="19.192" transform="translate(10.792)" fill="#a6a6a6"/>
            <rect id="Rectangle_460" data-name="Rectangle 460" width="0.862" height="19.192" transform="translate(12.591)" fill="#a6a6a6"/>
            <rect id="Rectangle_461" data-name="Rectangle 461" width="0.862" height="19.192" transform="translate(14.39)" fill="#a6a6a6"/>
            <rect id="Rectangle_462" data-name="Rectangle 462" width="0.862" height="19.192" transform="translate(16.188)" fill="#a6a6a6"/>
            <rect id="Rectangle_463" data-name="Rectangle 463" width="0.862" height="19.192" transform="translate(17.987)" fill="#a6a6a6"/>
            <rect id="Rectangle_464" data-name="Rectangle 464" width="0.862" height="19.192" transform="translate(19.786)" fill="#a6a6a6"/>
            <rect id="Rectangle_465" data-name="Rectangle 465" width="0.862" height="19.192" transform="translate(21.585)" fill="#a6a6a6"/>
            <rect id="Rectangle_466" data-name="Rectangle 466" width="0.862" height="19.192" transform="translate(23.383)" fill="#a6a6a6"/>
            <rect id="Rectangle_467" data-name="Rectangle 467" width="0.862" height="19.192" transform="translate(25.182)" fill="#a6a6a6"/>
            <rect id="Rectangle_468" data-name="Rectangle 468" width="0.862" height="19.192" transform="translate(26.981)" fill="#a6a6a6"/>
            <rect id="Rectangle_469" data-name="Rectangle 469" width="0.862" height="19.192" transform="translate(28.78)" fill="#a6a6a6"/>
            <rect id="Rectangle_470" data-name="Rectangle 470" width="0.862" height="19.192" transform="translate(30.578)" fill="#a6a6a6"/>
            <rect id="Rectangle_471" data-name="Rectangle 471" width="0.862" height="19.192" transform="translate(32.377)" fill="#a6a6a6"/>
            <rect id="Rectangle_472" data-name="Rectangle 472" width="0.862" height="19.192" transform="translate(34.176)" fill="#a6a6a6"/>
            <rect id="Rectangle_473" data-name="Rectangle 473" width="0.862" height="19.192" transform="translate(35.975)" fill="#a6a6a6"/>
            <rect id="Rectangle_474" data-name="Rectangle 474" width="0.862" height="19.192" transform="translate(37.773)" fill="#a6a6a6"/>
            <rect id="Rectangle_475" data-name="Rectangle 475" width="0.862" height="19.192" transform="translate(39.572)" fill="#a6a6a6"/>
            <rect id="Rectangle_476" data-name="Rectangle 476" width="0.862" height="19.192" transform="translate(41.371)" fill="#a6a6a6"/>
            <rect id="Rectangle_477" data-name="Rectangle 477" width="0.862" height="19.192" transform="translate(43.169)" fill="#a6a6a6"/>
            <rect id="Rectangle_478" data-name="Rectangle 478" width="0.862" height="19.192" transform="translate(44.968)" fill="#a6a6a6"/>
            <rect id="Rectangle_479" data-name="Rectangle 479" width="0.862" height="19.192" transform="translate(46.767)" fill="#a6a6a6"/>
            <rect id="Rectangle_480" data-name="Rectangle 480" width="0.862" height="19.192" transform="translate(48.566)" fill="#a6a6a6"/>
            <rect id="Rectangle_481" data-name="Rectangle 481" width="0.862" height="19.192" transform="translate(50.364)" fill="#a6a6a6"/>
            <rect id="Rectangle_482" data-name="Rectangle 482" width="0.862" height="19.192" transform="translate(52.163)" fill="#a6a6a6"/>
            <rect id="Rectangle_483" data-name="Rectangle 483" width="0.862" height="19.192" transform="translate(53.962)" fill="#a6a6a6"/>
          </g>
        </g>
      </g>
    </g>
  </g>
  <g id="Group_204" data-name="Group 204" transform="translate(289.082 136.427)">
    <g id="Group_203" data-name="Group 203">
      <g id="Group_202" data-name="Group 202">
        <rect id="Rectangle_484" data-name="Rectangle 484" width="19.984" height="22.537" fill="#ebebeb"/>
        <rect id="Rectangle_485" data-name="Rectangle 485" width="16.256" height="19.192" transform="translate(1.864 1.673)" fill="#dbdbdb"/>
        <rect id="Rectangle_486" data-name="Rectangle 486" width="0.865" height="19.192" transform="translate(9.56 1.673)" fill="#c7c7c7"/>
        <g id="Group_198" data-name="Group 198" transform="translate(19.984)">
          <rect id="Rectangle_487" data-name="Rectangle 487" width="58.434" height="22.537" fill="#dbdbdb"/>
        </g>
        <g id="Group_201" data-name="Group 201" transform="translate(21.789 1.673)">
          <g id="Group_199" data-name="Group 199">
            <rect id="Rectangle_488" data-name="Rectangle 488" width="54.824" height="19.192" fill="#c7c7c7"/>
            <rect id="Rectangle_489" data-name="Rectangle 489" width="54.824" height="19.192" fill="#c7c7c7" opacity="0.1"/>
          </g>
          <g id="Group_200" data-name="Group 200">
            <rect id="Rectangle_490" data-name="Rectangle 490" width="0.862" height="19.192" fill="#a6a6a6"/>
            <rect id="Rectangle_491" data-name="Rectangle 491" width="0.862" height="19.192" transform="translate(1.799)" fill="#a6a6a6"/>
            <rect id="Rectangle_492" data-name="Rectangle 492" width="0.862" height="19.192" transform="translate(3.597)" fill="#a6a6a6"/>
            <rect id="Rectangle_493" data-name="Rectangle 493" width="0.862" height="19.192" transform="translate(5.396)" fill="#a6a6a6"/>
            <rect id="Rectangle_494" data-name="Rectangle 494" width="0.862" height="19.192" transform="translate(7.195)" fill="#a6a6a6"/>
            <rect id="Rectangle_495" data-name="Rectangle 495" width="0.862" height="19.192" transform="translate(8.994)" fill="#a6a6a6"/>
            <rect id="Rectangle_496" data-name="Rectangle 496" width="0.862" height="19.192" transform="translate(10.792)" fill="#a6a6a6"/>
            <rect id="Rectangle_497" data-name="Rectangle 497" width="0.862" height="19.192" transform="translate(12.591)" fill="#a6a6a6"/>
            <rect id="Rectangle_498" data-name="Rectangle 498" width="0.862" height="19.192" transform="translate(14.39)" fill="#a6a6a6"/>
            <rect id="Rectangle_499" data-name="Rectangle 499" width="0.862" height="19.192" transform="translate(16.189)" fill="#a6a6a6"/>
            <rect id="Rectangle_500" data-name="Rectangle 500" width="0.862" height="19.192" transform="translate(17.987)" fill="#a6a6a6"/>
            <rect id="Rectangle_501" data-name="Rectangle 501" width="0.862" height="19.192" transform="translate(19.786)" fill="#a6a6a6"/>
            <rect id="Rectangle_502" data-name="Rectangle 502" width="0.862" height="19.192" transform="translate(21.585)" fill="#a6a6a6"/>
            <rect id="Rectangle_503" data-name="Rectangle 503" width="0.862" height="19.192" transform="translate(23.384)" fill="#a6a6a6"/>
            <rect id="Rectangle_504" data-name="Rectangle 504" width="0.862" height="19.192" transform="translate(25.182)" fill="#a6a6a6"/>
            <rect id="Rectangle_505" data-name="Rectangle 505" width="0.862" height="19.192" transform="translate(26.981)" fill="#a6a6a6"/>
            <rect id="Rectangle_506" data-name="Rectangle 506" width="0.862" height="19.192" transform="translate(28.78)" fill="#a6a6a6"/>
            <rect id="Rectangle_507" data-name="Rectangle 507" width="0.862" height="19.192" transform="translate(30.578)" fill="#a6a6a6"/>
            <rect id="Rectangle_508" data-name="Rectangle 508" width="0.862" height="19.192" transform="translate(32.377)" fill="#a6a6a6"/>
            <rect id="Rectangle_509" data-name="Rectangle 509" width="0.862" height="19.192" transform="translate(34.176)" fill="#a6a6a6"/>
            <rect id="Rectangle_510" data-name="Rectangle 510" width="0.862" height="19.192" transform="translate(35.975)" fill="#a6a6a6"/>
            <rect id="Rectangle_511" data-name="Rectangle 511" width="0.862" height="19.192" transform="translate(37.773)" fill="#a6a6a6"/>
            <rect id="Rectangle_512" data-name="Rectangle 512" width="0.862" height="19.192" transform="translate(39.572)" fill="#a6a6a6"/>
            <rect id="Rectangle_513" data-name="Rectangle 513" width="0.862" height="19.192" transform="translate(41.371)" fill="#a6a6a6"/>
            <rect id="Rectangle_514" data-name="Rectangle 514" width="0.862" height="19.192" transform="translate(43.169)" fill="#a6a6a6"/>
            <rect id="Rectangle_515" data-name="Rectangle 515" width="0.862" height="19.192" transform="translate(44.968)" fill="#a6a6a6"/>
            <rect id="Rectangle_516" data-name="Rectangle 516" width="0.862" height="19.192" transform="translate(46.767)" fill="#a6a6a6"/>
            <rect id="Rectangle_517" data-name="Rectangle 517" width="0.862" height="19.192" transform="translate(48.566)" fill="#a6a6a6"/>
            <rect id="Rectangle_518" data-name="Rectangle 518" width="0.862" height="19.192" transform="translate(50.364)" fill="#a6a6a6"/>
            <rect id="Rectangle_519" data-name="Rectangle 519" width="0.862" height="19.192" transform="translate(52.163)" fill="#a6a6a6"/>
            <rect id="Rectangle_520" data-name="Rectangle 520" width="0.862" height="19.192" transform="translate(53.962)" fill="#a6a6a6"/>
          </g>
        </g>
      </g>
    </g>
  </g>
  <g id="Group_211" data-name="Group 211" transform="translate(286.29 158.963)">
    <g id="Group_210" data-name="Group 210">
      <g id="Group_209" data-name="Group 209">
        <rect id="Rectangle_521" data-name="Rectangle 521" width="19.984" height="22.537" fill="#ebebeb"/>
        <rect id="Rectangle_522" data-name="Rectangle 522" width="16.256" height="19.192" transform="translate(1.864 1.673)" fill="#dbdbdb"/>
        <rect id="Rectangle_523" data-name="Rectangle 523" width="0.865" height="19.192" transform="translate(9.56 1.673)" fill="#c7c7c7"/>
        <g id="Group_205" data-name="Group 205" transform="translate(19.984)">
          <rect id="Rectangle_524" data-name="Rectangle 524" width="58.434" height="22.537" fill="#dbdbdb"/>
        </g>
        <g id="Group_208" data-name="Group 208" transform="translate(21.789 1.673)">
          <g id="Group_206" data-name="Group 206">
            <rect id="Rectangle_525" data-name="Rectangle 525" width="54.824" height="19.192" fill="#c7c7c7"/>
            <rect id="Rectangle_526" data-name="Rectangle 526" width="54.824" height="19.192" fill="#c7c7c7" opacity="0.1"/>
          </g>
          <g id="Group_207" data-name="Group 207">
            <rect id="Rectangle_527" data-name="Rectangle 527" width="0.862" height="19.192" fill="#a6a6a6"/>
            <rect id="Rectangle_528" data-name="Rectangle 528" width="0.862" height="19.192" transform="translate(1.799)" fill="#a6a6a6"/>
            <rect id="Rectangle_529" data-name="Rectangle 529" width="0.862" height="19.192" transform="translate(3.597)" fill="#a6a6a6"/>
            <rect id="Rectangle_530" data-name="Rectangle 530" width="0.862" height="19.192" transform="translate(5.396)" fill="#a6a6a6"/>
            <rect id="Rectangle_531" data-name="Rectangle 531" width="0.862" height="19.192" transform="translate(7.195)" fill="#a6a6a6"/>
            <rect id="Rectangle_532" data-name="Rectangle 532" width="0.862" height="19.192" transform="translate(8.994)" fill="#a6a6a6"/>
            <rect id="Rectangle_533" data-name="Rectangle 533" width="0.862" height="19.192" transform="translate(10.792)" fill="#a6a6a6"/>
            <rect id="Rectangle_534" data-name="Rectangle 534" width="0.862" height="19.192" transform="translate(12.591)" fill="#a6a6a6"/>
            <rect id="Rectangle_535" data-name="Rectangle 535" width="0.862" height="19.192" transform="translate(14.39)" fill="#a6a6a6"/>
            <rect id="Rectangle_536" data-name="Rectangle 536" width="0.862" height="19.192" transform="translate(16.189)" fill="#a6a6a6"/>
            <rect id="Rectangle_537" data-name="Rectangle 537" width="0.862" height="19.192" transform="translate(17.987)" fill="#a6a6a6"/>
            <rect id="Rectangle_538" data-name="Rectangle 538" width="0.862" height="19.192" transform="translate(19.786)" fill="#a6a6a6"/>
            <rect id="Rectangle_539" data-name="Rectangle 539" width="0.862" height="19.192" transform="translate(21.585)" fill="#a6a6a6"/>
            <rect id="Rectangle_540" data-name="Rectangle 540" width="0.862" height="19.192" transform="translate(23.384)" fill="#a6a6a6"/>
            <rect id="Rectangle_541" data-name="Rectangle 541" width="0.862" height="19.192" transform="translate(25.182)" fill="#a6a6a6"/>
            <rect id="Rectangle_542" data-name="Rectangle 542" width="0.862" height="19.192" transform="translate(26.981)" fill="#a6a6a6"/>
            <rect id="Rectangle_543" data-name="Rectangle 543" width="0.862" height="19.192" transform="translate(28.78)" fill="#a6a6a6"/>
            <rect id="Rectangle_544" data-name="Rectangle 544" width="0.862" height="19.192" transform="translate(30.578)" fill="#a6a6a6"/>
            <rect id="Rectangle_545" data-name="Rectangle 545" width="0.862" height="19.192" transform="translate(32.377)" fill="#a6a6a6"/>
            <rect id="Rectangle_546" data-name="Rectangle 546" width="0.862" height="19.192" transform="translate(34.176)" fill="#a6a6a6"/>
            <rect id="Rectangle_547" data-name="Rectangle 547" width="0.862" height="19.192" transform="translate(35.975)" fill="#a6a6a6"/>
            <rect id="Rectangle_548" data-name="Rectangle 548" width="0.862" height="19.192" transform="translate(37.773)" fill="#a6a6a6"/>
            <rect id="Rectangle_549" data-name="Rectangle 549" width="0.862" height="19.192" transform="translate(39.572)" fill="#a6a6a6"/>
            <rect id="Rectangle_550" data-name="Rectangle 550" width="0.862" height="19.192" transform="translate(41.371)" fill="#a6a6a6"/>
            <rect id="Rectangle_551" data-name="Rectangle 551" width="0.862" height="19.192" transform="translate(43.169)" fill="#a6a6a6"/>
            <rect id="Rectangle_552" data-name="Rectangle 552" width="0.862" height="19.192" transform="translate(44.968)" fill="#a6a6a6"/>
            <rect id="Rectangle_553" data-name="Rectangle 553" width="0.862" height="19.192" transform="translate(46.767)" fill="#a6a6a6"/>
            <rect id="Rectangle_554" data-name="Rectangle 554" width="0.862" height="19.192" transform="translate(48.566)" fill="#a6a6a6"/>
            <rect id="Rectangle_555" data-name="Rectangle 555" width="0.862" height="19.192" transform="translate(50.364)" fill="#a6a6a6"/>
            <rect id="Rectangle_556" data-name="Rectangle 556" width="0.862" height="19.192" transform="translate(52.163)" fill="#a6a6a6"/>
            <rect id="Rectangle_557" data-name="Rectangle 557" width="0.862" height="19.192" transform="translate(53.962)" fill="#a6a6a6"/>
          </g>
        </g>
      </g>
    </g>
  </g>
  <g id="Group_238" data-name="Group 238" transform="translate(29.269 3.136)">
    <g id="Group_232" data-name="Group 232" transform="translate(0 77.01)">
      <path id="Path_4560" data-name="Path 4560" d="M221.6,170.261c2.661-1.2,5.332-2.373,8.02-3.5s5.364-2.293,8.074-3.371l8.107-3.29,8.148-3.182,1.895-.739-1.414,1.457c-2.089,2.154-4.239,4.25-6.369,6.367s-4.3,4.2-6.477,6.262c2-2.246,4-4.482,6.052-6.674s4.073-4.411,6.16-6.568l.479.716-8.107,3.286-8.151,3.178c-2.71,1.078-5.455,2.064-8.183,3.1S224.357,169.3,221.6,170.261Z" transform="translate(-221.6 -156.123)" fill="#263238"/>
      <path id="Path_4561" data-name="Path 4561" d="M289.054,170.274c-2.756-.961-5.5-1.943-8.235-2.966s-5.473-2.018-8.183-3.1l-8.149-3.179-8.11-3.282.475-.728c2.189,2.158,4.323,4.371,6.471,6.57s4.265,4.431,6.364,6.681c-2.284-2.064-4.555-4.137-6.784-6.255s-4.482-4.21-6.674-6.364l-1.546-1.519,2.021.791,8.148,3.185,8.106,3.289c2.709,1.078,5.382,2.251,8.074,3.372S286.391,169.079,289.054,170.274Z" transform="translate(-210.637 -156.136)" fill="#263238"/>
      <g id="Group_231" data-name="Group 231" transform="translate(0 14.138)">
        <rect id="Rectangle_632" data-name="Rectangle 632" width="19.984" height="22.537" fill="#ffc727"/>
        <rect id="Rectangle_633" data-name="Rectangle 633" width="19.984" height="22.537" fill="#fffefd" opacity="0.5"/>
        <rect id="Rectangle_634" data-name="Rectangle 634" width="16.256" height="19.192" transform="translate(1.864 1.673)" fill="#ffc727" opacity="0.5"/>
        <rect id="Rectangle_635" data-name="Rectangle 635" width="0.865" height="19.192" transform="translate(9.56 1.673)" fill="#ffc727" opacity="0.5"/>
        <g id="Group_227" data-name="Group 227" transform="translate(19.984)">
          <rect id="Rectangle_636" data-name="Rectangle 636" width="58.434" height="22.537" fill="#ffc727"/>
          <rect id="Rectangle_637" data-name="Rectangle 637" width="58.434" height="22.537" fill="#fffefd" opacity="0.4"/>
        </g>
        <g id="Group_230" data-name="Group 230" transform="translate(21.789 1.673)">
          <g id="Group_228" data-name="Group 228" opacity="0.7">
            <rect id="Rectangle_638" data-name="Rectangle 638" width="54.824" height="19.192" fill="#ffc727"/>
          </g>
          <g id="Group_229" data-name="Group 229" opacity="0.1">
            <rect id="Rectangle_639" data-name="Rectangle 639" width="0.862" height="19.192"/>
            <rect id="Rectangle_640" data-name="Rectangle 640" width="0.862" height="19.192" transform="translate(1.799)"/>
            <rect id="Rectangle_641" data-name="Rectangle 641" width="0.862" height="19.192" transform="translate(3.597)"/>
            <rect id="Rectangle_642" data-name="Rectangle 642" width="0.862" height="19.192" transform="translate(5.396)"/>
            <rect id="Rectangle_643" data-name="Rectangle 643" width="0.862" height="19.192" transform="translate(7.195)"/>
            <rect id="Rectangle_644" data-name="Rectangle 644" width="0.862" height="19.192" transform="translate(8.994)"/>
            <rect id="Rectangle_645" data-name="Rectangle 645" width="0.862" height="19.192" transform="translate(10.792)"/>
            <rect id="Rectangle_646" data-name="Rectangle 646" width="0.862" height="19.192" transform="translate(12.591)"/>
            <rect id="Rectangle_647" data-name="Rectangle 647" width="0.862" height="19.192" transform="translate(14.39)"/>
            <rect id="Rectangle_648" data-name="Rectangle 648" width="0.862" height="19.192" transform="translate(16.188)"/>
            <rect id="Rectangle_649" data-name="Rectangle 649" width="0.862" height="19.192" transform="translate(17.987)"/>
            <rect id="Rectangle_650" data-name="Rectangle 650" width="0.862" height="19.192" transform="translate(19.786)"/>
            <rect id="Rectangle_651" data-name="Rectangle 651" width="0.862" height="19.192" transform="translate(21.585)"/>
            <rect id="Rectangle_652" data-name="Rectangle 652" width="0.862" height="19.192" transform="translate(23.383)"/>
            <rect id="Rectangle_653" data-name="Rectangle 653" width="0.862" height="19.192" transform="translate(25.182)"/>
            <rect id="Rectangle_654" data-name="Rectangle 654" width="0.862" height="19.192" transform="translate(26.981)"/>
            <rect id="Rectangle_655" data-name="Rectangle 655" width="0.862" height="19.192" transform="translate(28.78)"/>
            <rect id="Rectangle_656" data-name="Rectangle 656" width="0.862" height="19.192" transform="translate(30.578)"/>
            <rect id="Rectangle_657" data-name="Rectangle 657" width="0.862" height="19.192" transform="translate(32.377)"/>
            <rect id="Rectangle_658" data-name="Rectangle 658" width="0.862" height="19.192" transform="translate(34.176)"/>
            <rect id="Rectangle_659" data-name="Rectangle 659" width="0.862" height="19.192" transform="translate(35.975)"/>
            <rect id="Rectangle_660" data-name="Rectangle 660" width="0.862" height="19.192" transform="translate(37.773)"/>
            <rect id="Rectangle_661" data-name="Rectangle 661" width="0.862" height="19.192" transform="translate(39.572)"/>
            <rect id="Rectangle_662" data-name="Rectangle 662" width="0.862" height="19.192" transform="translate(41.371)"/>
            <rect id="Rectangle_663" data-name="Rectangle 663" width="0.862" height="19.192" transform="translate(43.169)"/>
            <rect id="Rectangle_664" data-name="Rectangle 664" width="0.862" height="19.192" transform="translate(44.968)"/>
            <rect id="Rectangle_665" data-name="Rectangle 665" width="0.862" height="19.192" transform="translate(46.767)"/>
            <rect id="Rectangle_666" data-name="Rectangle 666" width="0.862" height="19.192" transform="translate(48.566)"/>
            <rect id="Rectangle_667" data-name="Rectangle 667" width="0.862" height="19.192" transform="translate(50.364)"/>
            <rect id="Rectangle_668" data-name="Rectangle 668" width="0.862" height="19.192" transform="translate(52.163)"/>
            <rect id="Rectangle_669" data-name="Rectangle 669" width="0.862" height="19.192" transform="translate(53.962)"/>
          </g>
        </g>
      </g>
    </g>
    <g id="Group_233" data-name="Group 233" transform="translate(73.992)">
      <path id="Path_4562" data-name="Path 4562" d="M278.3,168.147l-1.122-1.516,92.273-68.337,41.295,68.111-1.612.978L368.908,101.04Z" transform="translate(-277.175 -98.295)" fill="#a6a6a6"/>
      <path id="Path_4563" data-name="Path 4563" d="M365.56,167.495l-15.232-61.039L335.409,166.24l-1.83-.457,16.748-67.116,17.062,68.37Z" transform="translate(-258.482 -98.171)" fill="#a6a6a6"/>
    </g>
    <g id="Group_234" data-name="Group 234" transform="translate(147.653 57.109)">
      <rect id="Rectangle_670" data-name="Rectangle 670" width="4.703" height="121.251" transform="translate(0)" fill="#c7c7c7"/>
      <rect id="Rectangle_671" data-name="Rectangle 671" width="4.703" height="121.251" transform="translate(31.98)" fill="#c7c7c7"/>
      <rect id="Rectangle_672" data-name="Rectangle 672" width="4.703" height="36.683" transform="translate(36.683 0) rotate(90)" fill="#c7c7c7"/>
      <rect id="Rectangle_673" data-name="Rectangle 673" width="4.703" height="36.683" transform="translate(36.683 62.706) rotate(90)" fill="#c7c7c7"/>
      <rect id="Rectangle_674" data-name="Rectangle 674" width="4.703" height="36.683" transform="translate(36.683 110.52) rotate(90)" fill="#c7c7c7"/>
      <path id="Path_4564" data-name="Path 4564" d="M332.5,205.306v-4.7l36.683-59.414v4.7Z" transform="translate(-332.501 -141.189)" fill="#c7c7c7"/>
    </g>
    <g id="Group_235" data-name="Group 235" transform="translate(188.412 57.109)">
      <rect id="Rectangle_675" data-name="Rectangle 675" width="4.703" height="121.251" transform="translate(0)" fill="#b8bfc2"/>
      <rect id="Rectangle_676" data-name="Rectangle 676" width="4.703" height="121.251" transform="translate(31.98)" fill="#b8bfc2"/>
      <rect id="Rectangle_677" data-name="Rectangle 677" width="4.703" height="36.683" transform="translate(36.683 0) rotate(90)" fill="#a6a6a6"/>
      <rect id="Rectangle_678" data-name="Rectangle 678" width="4.703" height="36.683" transform="translate(36.683 62.706) rotate(90)" fill="#b8bfc2"/>
      <rect id="Rectangle_679" data-name="Rectangle 679" width="4.703" height="36.683" transform="translate(36.683 110.52) rotate(90)" fill="#b8bfc2"/>
      <path id="Path_4565" data-name="Path 4565" d="M363.114,205.306v-4.7L399.8,141.189v4.7Z" transform="translate(-363.114 -141.189)" fill="#b8bfc2"/>
    </g>
    <g id="Group_237" data-name="Group 237" transform="translate(21.927 65.228)">
      <path id="Path_4566" data-name="Path 4566" d="M481.684,153.715H248.73l-10.66-5.644H481.684Z" transform="translate(-238.07 -147.026)" fill="#b8bfc2"/>
      <rect id="Rectangle_680" data-name="Rectangle 680" width="7.734" height="1.045" transform="translate(21.634)" fill="#b8bfc2"/>
      <rect id="Rectangle_681" data-name="Rectangle 681" width="7.734" height="1.045" transform="translate(36.683)" fill="#b8bfc2"/>
      <rect id="Rectangle_682" data-name="Rectangle 682" width="7.734" height="1.045" transform="translate(51.733)" fill="#b8bfc2"/>
      <rect id="Rectangle_683" data-name="Rectangle 683" width="7.734" height="1.045" transform="translate(66.782)" fill="#b8bfc2"/>
      <rect id="Rectangle_684" data-name="Rectangle 684" width="7.734" height="1.045" transform="translate(81.832)" fill="#b8bfc2"/>
      <rect id="Rectangle_685" data-name="Rectangle 685" width="7.734" height="1.045" transform="translate(96.881)" fill="#b8bfc2"/>
      <rect id="Rectangle_686" data-name="Rectangle 686" width="7.734" height="1.045" transform="translate(111.931)" fill="#b8bfc2"/>
      <rect id="Rectangle_687" data-name="Rectangle 687" width="7.734" height="1.045" transform="translate(126.98)" fill="#b8bfc2"/>
      <rect id="Rectangle_688" data-name="Rectangle 688" width="7.734" height="1.045" transform="translate(142.03)" fill="#b8bfc2"/>
      <rect id="Rectangle_689" data-name="Rectangle 689" width="7.734" height="1.045" transform="translate(157.079)" fill="#b8bfc2"/>
      <rect id="Rectangle_690" data-name="Rectangle 690" width="7.734" height="1.045" transform="translate(172.129)" fill="#b8bfc2"/>
      <rect id="Rectangle_691" data-name="Rectangle 691" width="7.734" height="1.045" transform="translate(187.178)" fill="#b8bfc2"/>
      <rect id="Rectangle_692" data-name="Rectangle 692" width="7.734" height="1.045" transform="translate(202.228)" fill="#b8bfc2"/>
      <rect id="Rectangle_693" data-name="Rectangle 693" width="7.734" height="1.045" transform="translate(217.277)" fill="#b8bfc2"/>
      <rect id="Rectangle_694" data-name="Rectangle 694" width="7.734" height="1.045" transform="translate(232.327)" fill="#b8bfc2"/>
      <g id="Group_236" data-name="Group 236" transform="translate(10.586 6.689)">
        <rect id="Rectangle_695" data-name="Rectangle 695" width="13.391" height="2.029" transform="translate(0 3.64)" fill="#a6a6a6"/>
        <rect id="Rectangle_696" data-name="Rectangle 696" width="0.493" height="3.64" transform="translate(4.995)" fill="#a6a6a6"/>
        <rect id="Rectangle_697" data-name="Rectangle 697" width="0.493" height="3.64" transform="translate(7.903)" fill="#a6a6a6"/>
      </g>
    </g>
    <rect id="Rectangle_698" data-name="Rectangle 698" width="55.443" height="15.363" transform="translate(186.74 47.775)" fill="#b8bfc2"/>
  </g>
  <g id="Birds" transform="translate(0 46.632)">
    <g id="Group_363" data-name="Group 363" transform="translate(0 0)">
      <path id="Path_4591" data-name="Path 4591" d="M425.537,166.083a19.587,19.587,0,0,0-2.455-1.051,10.288,10.288,0,0,0-2.675-.618,2.3,2.3,0,0,0-.831.092,1.218,1.218,0,0,0-.256.121c-.068.043-.108.077-.164.117-.109.077-.193.157-.288.236a12.8,12.8,0,0,0-.973.985c-.6.676-1.14,1.382-1.676,2.108l.664-.233a20.271,20.271,0,0,0-2.732-.576,11.324,11.324,0,0,0-1.426-.1,5.034,5.034,0,0,0-.76.055,2.765,2.765,0,0,0-.407.1,3.164,3.164,0,0,0-.409.194,4.779,4.779,0,0,0-1.078,1.034,13.143,13.143,0,0,0-.807,1.141,17.61,17.61,0,0,0-1.272,2.438c.586-.7,1.153-1.41,1.756-2.074.3-.334.6-.663.917-.959a4.438,4.438,0,0,1,.961-.747,2.486,2.486,0,0,1,1.071-.105,10.074,10.074,0,0,1,1.275.174c.857.153,1.732.368,2.574.6l.422.116.242-.349c.491-.7,1.025-1.4,1.558-2.07a11.637,11.637,0,0,1,.824-.949c.07-.067.142-.144.21-.2l.1-.084c.012,0,.009-.016.04-.027a1.356,1.356,0,0,1,.469-.093,13.059,13.059,0,0,1,2.526.246C423.8,165.742,424.662,165.922,425.537,166.083Z" transform="translate(-130.559 -119.879)" fill="#263238"/>
      <path id="Path_4592" data-name="Path 4592" d="M420.776,186.266a29.593,29.593,0,0,0-3.3-2.261,15.463,15.463,0,0,0-3.751-1.687,3.435,3.435,0,0,0-1.248-.108,1.849,1.849,0,0,0-.411.1c-.111.045-.182.084-.274.126-.184.081-.33.173-.491.262a18.617,18.617,0,0,0-1.717,1.162c-1.085.819-2.077,1.7-3.078,2.608l1.045-.149a30.5,30.5,0,0,0-3.846-1.643,16.8,16.8,0,0,0-2.066-.563,7.538,7.538,0,0,0-1.133-.142,4.06,4.06,0,0,0-.627.027,4.606,4.606,0,0,0-.658.166,7.225,7.225,0,0,0-1.886,1.2,19.794,19.794,0,0,0-1.518,1.442,26.179,26.179,0,0,0-2.58,3.211c1.066-.861,2.1-1.735,3.186-2.535a19.793,19.793,0,0,1,1.627-1.14,6.634,6.634,0,0,1,1.631-.819,3.709,3.709,0,0,1,1.6.158,15.308,15.308,0,0,1,1.823.627c1.216.477,2.439,1.045,3.609,1.627l.587.292.457-.439c.928-.892,1.915-1.76,2.892-2.588a17.307,17.307,0,0,1,1.489-1.156c.122-.077.25-.169.366-.228l.169-.095c.017,0,.017-.021.065-.027a2.012,2.012,0,0,1,.716,0,19.51,19.51,0,0,1,3.639,1.1C418.324,185.258,419.538,185.774,420.776,186.266Z" transform="translate(-135.45 -113.987)" fill="#263238"/>
      <path id="Path_4593" data-name="Path 4593" d="M217.912,140.571a19.39,19.39,0,0,0-2.249-1.438,10.332,10.332,0,0,0-2.539-1.046,2.3,2.3,0,0,0-.835-.044,1.146,1.146,0,0,0-.272.077c-.073.031-.12.059-.181.089-.12.059-.216.122-.322.185a12.515,12.515,0,0,0-1.121.813c-.706.569-1.35,1.177-2,1.8l.694-.121a20.343,20.343,0,0,0-2.6-1.013,11.216,11.216,0,0,0-1.391-.333,5.072,5.072,0,0,0-.758-.071,2.713,2.713,0,0,0-.419.032,2.907,2.907,0,0,0-.434.124,4.823,4.823,0,0,0-1.234.844,13.57,13.57,0,0,0-.983.995,17.813,17.813,0,0,0-1.652,2.2c.694-.6,1.367-1.2,2.072-1.759.348-.282.7-.556,1.062-.8a4.433,4.433,0,0,1,1.07-.58,2.478,2.478,0,0,1,1.072.072,10.081,10.081,0,0,1,1.23.379c.822.293,1.65.646,2.443,1.009l.4.182.3-.3c.6-.615,1.238-1.216,1.873-1.788a11.23,11.23,0,0,1,.968-.8c.081-.055.164-.118.241-.161l.109-.065c.012,0,.012-.015.044-.02a1.341,1.341,0,0,1,.478-.016,13.012,13.012,0,0,1,2.451.656C216.254,139.95,217.076,140.269,217.912,140.571Z" transform="translate(-199.617 -128.625)" fill="#263238"/>
      <path id="Path_4594" data-name="Path 4594" d="M236.605,139.368a29.541,29.541,0,0,0-2.48-3.138,15.4,15.4,0,0,0-3.081-2.725,3.461,3.461,0,0,0-1.16-.473,1.923,1.923,0,0,0-.422-.024c-.12.009-.2.025-.3.039-.2.024-.366.068-.546.105a18.682,18.682,0,0,0-1.986.6c-1.278.459-2.487,1.005-3.713,1.576l1.042.168a30.453,30.453,0,0,0-3.185-2.709,16.719,16.719,0,0,0-1.807-1.153,7.659,7.659,0,0,0-1.039-.471,3.961,3.961,0,0,0-.607-.161,4.747,4.747,0,0,0-.678-.037,7.21,7.21,0,0,0-2.16.591,20.16,20.16,0,0,0-1.877.925,26.362,26.362,0,0,0-3.418,2.3c1.276-.506,2.527-1.032,3.8-1.474a19.656,19.656,0,0,1,1.893-.607,6.667,6.667,0,0,1,1.8-.3,3.729,3.729,0,0,1,1.483.627,15.121,15.121,0,0,1,1.555,1.141c1.018.815,2.018,1.721,2.962,2.624l.474.453.569-.284c1.149-.578,2.349-1.113,3.53-1.614a17.365,17.365,0,0,1,1.763-.662c.14-.037.29-.088.418-.109l.189-.04c.017,0,.023-.015.071-.007a2.01,2.01,0,0,1,.684.213,19.5,19.5,0,0,1,3.147,2.129C234.562,137.677,235.568,138.529,236.605,139.368Z" transform="translate(-196.445 -130.964)" fill="#263238"/>
      <path id="Path_4595" data-name="Path 4595" d="M444.177,182.536A29.343,29.343,0,0,0,441.7,179.4a15.443,15.443,0,0,0-3.081-2.725,3.458,3.458,0,0,0-1.16-.473,1.848,1.848,0,0,0-.422-.024c-.12.009-.2.025-.3.039-.2.024-.366.068-.547.105a18.782,18.782,0,0,0-1.985.6c-1.278.459-2.487,1.005-3.713,1.576l1.043.168a30.616,30.616,0,0,0-3.185-2.711,16.884,16.884,0,0,0-1.807-1.152,7.671,7.671,0,0,0-1.038-.471,4.107,4.107,0,0,0-.608-.161,4.7,4.7,0,0,0-.676-.037,7.212,7.212,0,0,0-2.16.591,20.009,20.009,0,0,0-1.877.925,26.365,26.365,0,0,0-3.418,2.3c1.274-.506,2.526-1.032,3.8-1.474a19.639,19.639,0,0,1,1.893-.607,6.663,6.663,0,0,1,1.8-.3,3.734,3.734,0,0,1,1.484.627,15.083,15.083,0,0,1,1.554,1.141c1.02.815,2.02,1.722,2.964,2.624l.474.453.567-.283c1.15-.578,2.35-1.113,3.53-1.614a17.38,17.38,0,0,1,1.764-.662c.14-.037.29-.088.418-.109l.188-.04c.019,0,.024-.015.072-.007a2.009,2.009,0,0,1,.684.213,19.482,19.482,0,0,1,3.147,2.129C442.135,180.845,443.141,181.7,444.177,182.536Z" transform="translate(-127.653 -116.658)" fill="#263238"/>
    </g>
  </g>
</svg>
