<svg xmlns="http://www.w3.org/2000/svg" width="96" height="57.005" viewBox="0 0 96 57.005">
  <g id="noun-transporter-6730041" transform="translate(-0.001 -20.309)">
    <g id="Group_122330" data-name="Group 122330" transform="translate(0.001 20.309)">
      <path id="Path_267332" data-name="Path 267332" d="M58.366,11.1v-.433H61.12l13.9,5.965.782,2.782-7.414,4.445,2.5,4.492,19.1,3.585,4.4,1.8V49.308H88.616L87.729,44.5l-3.36-3.115-4.68-1.392L75.8,42.81l-2.607,2.157-3.262-1.335-9.51-.409-6.259.409h2.962l3.3-10.795Z" fill="#8540d6"/>
      <rect id="Rectangle_57036" data-name="Rectangle 57036" width="22" height="8" transform="translate(50 44.006)" fill="#8540d6"/>
      <path id="Path_267323" data-name="Path 267323" d="M92.693,51.268,79.251,47.6,76.465,36.45a1.487,1.487,0,0,0-.713-.938,48.354,48.354,0,0,0-15.743-5.731V26.677a5.969,5.969,0,0,0-1.755-4.245L56.57,20.748a1.5,1.5,0,0,0-2.123,2.123l1.684,1.684a2.985,2.985,0,0,1,.881,2.123v2.715c-.889-.075-1.414-.079-1.5-.079h-6a1.5,1.5,0,0,0-1.5,1.5v28.5l-46.511,0a1.5,1.5,0,0,0-1.5,1.5v9a1.5,1.5,0,0,0,1.5,1.5H6.519a9,9,0,0,0,16.966,0h4.032a9,9,0,0,0,16.966,0h3.773a4.506,4.506,0,0,0,4.242,3h18A4.477,4.477,0,0,0,73.45,73.2a8.993,8.993,0,0,0,16.033-1.89H94.5a1.5,1.5,0,0,0,1.5-1.5V55.6a4.515,4.515,0,0,0-3.319-4.343ZM6,68.317H3v-6H8.3A8.963,8.963,0,0,0,6,68.317Zm9,6a6,6,0,1,1,6-6A6.008,6.008,0,0,1,15,74.317Zm12-6H24a8.963,8.963,0,0,0-2.3-6h7.6a8.963,8.963,0,0,0-2.3,6Zm9,6a6,6,0,1,1,6-6A6.008,6.008,0,0,1,36,74.317Zm12-7.5v1.5H45a8.963,8.963,0,0,0-2.3-6H48Zm28.082-19.5h-5.58v-4.5h4.455ZM60,45.815v6H57v-6Zm-9-13.5h4.5c.022,0,.555.007,1.5.1v10.4H55.5a1.5,1.5,0,0,0-1.5,1.5v9a1.5,1.5,0,0,0,1.5,1.5H57v4.5a5.944,5.944,0,0,0,.806,3H52.5a4.424,4.424,0,0,0-1.5.259Zm9,39H52.5a1.5,1.5,0,0,1-1.5-1.5v-3a1.5,1.5,0,0,1,1.5-1.5H60Zm12-1.5a1.5,1.5,0,0,1-1.5,1.5h-7.5v-6h7.5a1.5,1.5,0,0,1,1.5,1.5Zm9,4.5a6,6,0,1,1,6-6A6.008,6.008,0,0,1,81.006,74.318Zm12-18h-1.5a1.5,1.5,0,1,0,0,3h1.5v9h-3a9,9,0,0,0-16.55-4.89,4.476,4.476,0,0,0-2.951-1.11h-7.5a3,3,0,0,1-3-3v-4.5h1.5a1.5,1.5,0,0,0,1.5-1.5v-9a1.5,1.5,0,0,0-1.5-1.5H60V32.843a45.522,45.522,0,0,1,13.7,4.965l.5,2.01H69a1.5,1.5,0,0,0-1.5,1.5v7.5a1.5,1.5,0,0,0,1.5,1.5h8.8l14.1,3.844A1.5,1.5,0,0,1,93,55.611v.709Z" transform="translate(-0.001 -20.309)" fill="#48217a"/>
      <path id="Path_267324" data-name="Path 267324" d="M17.063,70.25a1.5,1.5,0,0,1-3,0,1.5,1.5,0,0,1,3,0" transform="translate(-0.562 -22.243)" fill="#8540d6"/>
      <path id="Path_267325" data-name="Path 267325" d="M38.937,70.25a1.5,1.5,0,0,1-3,0,1.5,1.5,0,0,1,3,0" transform="translate(-1.436 -22.243)" fill="#8540d6"/>
      <path id="Path_267326" data-name="Path 267326" d="M85.813,70.25a1.5,1.5,0,0,1-3,0,1.5,1.5,0,0,1,3,0" transform="translate(-3.307 -22.243)" fill="#8540d6"/>
    </g>
  </g>
</svg>
