<svg xmlns="http://www.w3.org/2000/svg" width="44.659" height="44.659" viewBox="0 0 44.659 44.659">
  <path id="Subtraction_6" data-name="Subtraction 6" d="M38.374,44.659H6.286A6.286,6.286,0,0,1,0,38.374V6.286A6.286,6.286,0,0,1,6.286,0H38.374a6.286,6.286,0,0,1,6.286,6.286V38.374a6.286,6.286,0,0,1-6.286,6.286ZM20.718,25.035h0l6.421,9.344H34.15L24.616,20.5h0l8.766-10.19H31.305l-7.612,8.848-6.08-8.848H10.6L19.8,23.692,10.6,34.379h2.078l8.038-9.344Zm10.589,7.851H28.115l-6.345-9.075h0l-.932-1.332-7.412-10.6h3.191L22.6,20.432l.931,1.332,7.775,11.121Z" fill="#fff"/>
</svg>
