<svg id="youtube" xmlns="http://www.w3.org/2000/svg" width="44.659" height="44.659" viewBox="0 0 44.659 44.659">
  <path id="Subtraction_4" data-name="Subtraction 4" d="M38.374,44.659H6.286A6.286,6.286,0,0,1,0,38.374V6.286A6.286,6.286,0,0,1,6.286,0H38.374a6.286,6.286,0,0,1,6.286,6.286V38.374a6.286,6.286,0,0,1-6.286,6.286ZM18.271,30.3c.234,0,.44,0,.63.014.79.039,1.5.058,2.168.058.294,0,.588,0,.874-.011.409-.011.848-.016,1.344-.016.547,0,1.1.006,1.639.012h0c.538.006,1.094.013,1.642.013,1.1,0,1.993-.027,2.8-.086.222-.016.45-.018.693-.02a6.514,6.514,0,0,0,1.276-.093,1.866,1.866,0,0,0,1.069-.588,4.227,4.227,0,0,0,.757-1.334,10.789,10.789,0,0,0,.4-1.491,14.539,14.539,0,0,0,.282-3.486c-.007-.218-.013-.42-.019-.615-.008-.3-.015-.607-.022-.9v0c-.02-.871-.042-1.773-.091-2.658a7.4,7.4,0,0,0-.3-1.683,14.093,14.093,0,0,0-.6-1.608,1.505,1.505,0,0,0-.374-.5,3.675,3.675,0,0,0-.517-.388,4.418,4.418,0,0,0-2.023-.5c-.654-.048-1.32-.06-1.964-.072h-.005c-.232,0-.472-.009-.707-.015-.127,0-.257,0-.4,0-.34,0-.683.009-1.015.018h0c-.332.009-.676.018-1.013.018-.3,0-.569-.007-.817-.023-1.114-.07-2.252-.073-3.255-.076h-.19c-.748,0-1.508.014-2.243.027h-.007c-.422.008-.859.016-1.289.021-.362,0-.678.006-.965.006-.312,0-.6,0-.873-.007H15.05a5.582,5.582,0,0,0-1.773.243,2.687,2.687,0,0,0-1.034.676,5.677,5.677,0,0,0-.7,1.076,3.558,3.558,0,0,0-.4,1.552,4.177,4.177,0,0,1-.132.726,3.358,3.358,0,0,0-.133.878c.012.459-.013.923-.037,1.372-.02.375-.041.764-.04,1.147v.157a30.75,30.75,0,0,0,.123,3.3,11.72,11.72,0,0,0,.283,1.607,8.582,8.582,0,0,0,.549,1.552l.226.394a1.759,1.759,0,0,1,.167.3,1.284,1.284,0,0,0,.229.369,2.719,2.719,0,0,0,1.523.493H13.9l.075.009c.369.045.746.064,1.11.082.24.012.489.024.733.044.267.022.554.032.9.032.257,0,.52-.005.773-.011h0C17.752,30.308,18.014,30.3,18.271,30.3Z" transform="translate(0 0)" fill="#fff"/>
  <path id="Path_267347" data-name="Path 267347" d="M47.533,42.414c-.366-.211-.737-.406-1.083-.649s-.619-.466-.953-.693c-.178-.121-.569-.24-.569-.356v.953c0,.549-.042,3.376-.035,3.731.009.593-.037,1.186-.016,1.779.02.565.024,1.106,0,1.7,0,0,1.413-.686,1.6-.8.725-.456,1.435-.952,2.177-1.376.365-.208.742-.393,1.091-.628.317-.215,1.544-1.247,1.586-1.221-.567-.346-1.116-.709-1.707-1.015C48.875,43.438,48.269,42.838,47.533,42.414Z" transform="translate(-25.775 -22.466)" fill="#fff"/>
</svg>
